<?xml version="1.0" encoding="utf-8" standalone="no"?>
<!DOCTYPE svg PUBLIC "-//W3C//DTD SVG 1.1//EN"
  "http://www.w3.org/Graphics/SVG/1.1/DTD/svg11.dtd">
<svg xmlns:xlink="http://www.w3.org/1999/xlink" width="460.8pt" height="345.6pt" viewBox="0 0 460.8 345.6" xmlns="http://www.w3.org/2000/svg" version="1.1">
 <metadata>
  <rdf:RDF xmlns:dc="http://purl.org/dc/elements/1.1/" xmlns:cc="http://creativecommons.org/ns#" xmlns:rdf="http://www.w3.org/1999/02/22-rdf-syntax-ns#">
   <cc:Work>
    <dc:type rdf:resource="http://purl.org/dc/dcmitype/StillImage"/>
    <dc:date>2023-10-12T11:59:11.064669</dc:date>
    <dc:format>image/svg+xml</dc:format>
    <dc:creator>
     <cc:Agent>
      <dc:title>Matplotlib v3.7.2, https://matplotlib.org/</dc:title>
     </cc:Agent>
    </dc:creator>
   </cc:Work>
  </rdf:RDF>
 </metadata>
 <defs>
  <style type="text/css">*{stroke-linejoin: round; stroke-linecap: butt}</style>
 </defs>
 <g id="figure_1">
  <g id="patch_1">
   <path d="M 0 345.6 
L 460.8 345.6 
L 460.8 0 
L 0 0 
z
" style="fill: #ffffff"/>
  </g>
  <g id="axes_1">
   <g id="patch_2">
    <path d="M 57.6 147.9168 
L 414.72 147.9168 
L 414.72 41.472 
L 57.6 41.472 
z
" style="fill: #ffffff"/>
   </g>
   <g id="matplotlib.axis_1">
    <g id="xtick_1">
     <g id="line2d_1">
      <defs>
       <path id="mcfb4dc2ec8" d="M 0 0 
L 0 3.5 
" style="stroke: #000000; stroke-width: 0.8"/>
      </defs>
      <g>
       <use xlink:href="#mcfb4dc2ec8" x="65.036816" y="147.9168" style="stroke: #000000; stroke-width: 0.8"/>
      </g>
     </g>
     <g id="text_1">
      <!-- −100 -->
      <g transform="translate(51.303222 162.515237) scale(0.1 -0.1)">
       <defs>
        <path id="DejaVuSans-2212" d="M 678 2272 
L 4684 2272 
L 4684 1741 
L 678 1741 
L 678 2272 
z
" transform="scale(0.015625)"/>
        <path id="DejaVuSans-31" d="M 794 531 
L 1825 531 
L 1825 4091 
L 703 3866 
L 703 4441 
L 1819 4666 
L 2450 4666 
L 2450 531 
L 3481 531 
L 3481 0 
L 794 0 
L 794 531 
z
" transform="scale(0.015625)"/>
        <path id="DejaVuSans-30" d="M 2034 4250 
Q 1547 4250 1301 3770 
Q 1056 3291 1056 2328 
Q 1056 1369 1301 889 
Q 1547 409 2034 409 
Q 2525 409 2770 889 
Q 3016 1369 3016 2328 
Q 3016 3291 2770 3770 
Q 2525 4250 2034 4250 
z
M 2034 4750 
Q 2819 4750 3233 4129 
Q 3647 3509 3647 2328 
Q 3647 1150 3233 529 
Q 2819 -91 2034 -91 
Q 1250 -91 836 529 
Q 422 1150 422 2328 
Q 422 3509 836 4129 
Q 1250 4750 2034 4750 
z
" transform="scale(0.015625)"/>
       </defs>
       <use xlink:href="#DejaVuSans-2212"/>
       <use xlink:href="#DejaVuSans-31" x="83.789062"/>
       <use xlink:href="#DejaVuSans-30" x="147.412109"/>
       <use xlink:href="#DejaVuSans-30" x="211.035156"/>
      </g>
     </g>
    </g>
    <g id="xtick_2">
     <g id="line2d_2">
      <g>
       <use xlink:href="#mcfb4dc2ec8" x="105.356655" y="147.9168" style="stroke: #000000; stroke-width: 0.8"/>
      </g>
     </g>
     <g id="text_2">
      <!-- −80 -->
      <g transform="translate(94.804312 162.515237) scale(0.1 -0.1)">
       <defs>
        <path id="DejaVuSans-38" d="M 2034 2216 
Q 1584 2216 1326 1975 
Q 1069 1734 1069 1313 
Q 1069 891 1326 650 
Q 1584 409 2034 409 
Q 2484 409 2743 651 
Q 3003 894 3003 1313 
Q 3003 1734 2745 1975 
Q 2488 2216 2034 2216 
z
M 1403 2484 
Q 997 2584 770 2862 
Q 544 3141 544 3541 
Q 544 4100 942 4425 
Q 1341 4750 2034 4750 
Q 2731 4750 3128 4425 
Q 3525 4100 3525 3541 
Q 3525 3141 3298 2862 
Q 3072 2584 2669 2484 
Q 3125 2378 3379 2068 
Q 3634 1759 3634 1313 
Q 3634 634 3220 271 
Q 2806 -91 2034 -91 
Q 1263 -91 848 271 
Q 434 634 434 1313 
Q 434 1759 690 2068 
Q 947 2378 1403 2484 
z
M 1172 3481 
Q 1172 3119 1398 2916 
Q 1625 2713 2034 2713 
Q 2441 2713 2670 2916 
Q 2900 3119 2900 3481 
Q 2900 3844 2670 4047 
Q 2441 4250 2034 4250 
Q 1625 4250 1398 4047 
Q 1172 3844 1172 3481 
z
" transform="scale(0.015625)"/>
       </defs>
       <use xlink:href="#DejaVuSans-2212"/>
       <use xlink:href="#DejaVuSans-38" x="83.789062"/>
       <use xlink:href="#DejaVuSans-30" x="147.412109"/>
      </g>
     </g>
    </g>
    <g id="xtick_3">
     <g id="line2d_3">
      <g>
       <use xlink:href="#mcfb4dc2ec8" x="145.676495" y="147.9168" style="stroke: #000000; stroke-width: 0.8"/>
      </g>
     </g>
     <g id="text_3">
      <!-- −60 -->
      <g transform="translate(135.124151 162.515237) scale(0.1 -0.1)">
       <defs>
        <path id="DejaVuSans-36" d="M 2113 2584 
Q 1688 2584 1439 2293 
Q 1191 2003 1191 1497 
Q 1191 994 1439 701 
Q 1688 409 2113 409 
Q 2538 409 2786 701 
Q 3034 994 3034 1497 
Q 3034 2003 2786 2293 
Q 2538 2584 2113 2584 
z
M 3366 4563 
L 3366 3988 
Q 3128 4100 2886 4159 
Q 2644 4219 2406 4219 
Q 1781 4219 1451 3797 
Q 1122 3375 1075 2522 
Q 1259 2794 1537 2939 
Q 1816 3084 2150 3084 
Q 2853 3084 3261 2657 
Q 3669 2231 3669 1497 
Q 3669 778 3244 343 
Q 2819 -91 2113 -91 
Q 1303 -91 875 529 
Q 447 1150 447 2328 
Q 447 3434 972 4092 
Q 1497 4750 2381 4750 
Q 2619 4750 2861 4703 
Q 3103 4656 3366 4563 
z
" transform="scale(0.015625)"/>
       </defs>
       <use xlink:href="#DejaVuSans-2212"/>
       <use xlink:href="#DejaVuSans-36" x="83.789062"/>
       <use xlink:href="#DejaVuSans-30" x="147.412109"/>
      </g>
     </g>
    </g>
    <g id="xtick_4">
     <g id="line2d_4">
      <g>
       <use xlink:href="#mcfb4dc2ec8" x="185.996334" y="147.9168" style="stroke: #000000; stroke-width: 0.8"/>
      </g>
     </g>
     <g id="text_4">
      <!-- −40 -->
      <g transform="translate(175.443991 162.515237) scale(0.1 -0.1)">
       <defs>
        <path id="DejaVuSans-34" d="M 2419 4116 
L 825 1625 
L 2419 1625 
L 2419 4116 
z
M 2253 4666 
L 3047 4666 
L 3047 1625 
L 3713 1625 
L 3713 1100 
L 3047 1100 
L 3047 0 
L 2419 0 
L 2419 1100 
L 313 1100 
L 313 1709 
L 2253 4666 
z
" transform="scale(0.015625)"/>
       </defs>
       <use xlink:href="#DejaVuSans-2212"/>
       <use xlink:href="#DejaVuSans-34" x="83.789062"/>
       <use xlink:href="#DejaVuSans-30" x="147.412109"/>
      </g>
     </g>
    </g>
    <g id="xtick_5">
     <g id="line2d_5">
      <g>
       <use xlink:href="#mcfb4dc2ec8" x="226.316174" y="147.9168" style="stroke: #000000; stroke-width: 0.8"/>
      </g>
     </g>
     <g id="text_5">
      <!-- −20 -->
      <g transform="translate(215.76383 162.515237) scale(0.1 -0.1)">
       <defs>
        <path id="DejaVuSans-32" d="M 1228 531 
L 3431 531 
L 3431 0 
L 469 0 
L 469 531 
Q 828 903 1448 1529 
Q 2069 2156 2228 2338 
Q 2531 2678 2651 2914 
Q 2772 3150 2772 3378 
Q 2772 3750 2511 3984 
Q 2250 4219 1831 4219 
Q 1534 4219 1204 4116 
Q 875 4013 500 3803 
L 500 4441 
Q 881 4594 1212 4672 
Q 1544 4750 1819 4750 
Q 2544 4750 2975 4387 
Q 3406 4025 3406 3419 
Q 3406 3131 3298 2873 
Q 3191 2616 2906 2266 
Q 2828 2175 2409 1742 
Q 1991 1309 1228 531 
z
" transform="scale(0.015625)"/>
       </defs>
       <use xlink:href="#DejaVuSans-2212"/>
       <use xlink:href="#DejaVuSans-32" x="83.789062"/>
       <use xlink:href="#DejaVuSans-30" x="147.412109"/>
      </g>
     </g>
    </g>
    <g id="xtick_6">
     <g id="line2d_6">
      <g>
       <use xlink:href="#mcfb4dc2ec8" x="266.636013" y="147.9168" style="stroke: #000000; stroke-width: 0.8"/>
      </g>
     </g>
     <g id="text_6">
      <!-- 0 -->
      <g transform="translate(263.454763 162.515237) scale(0.1 -0.1)">
       <use xlink:href="#DejaVuSans-30"/>
      </g>
     </g>
    </g>
    <g id="xtick_7">
     <g id="line2d_7">
      <g>
       <use xlink:href="#mcfb4dc2ec8" x="306.955853" y="147.9168" style="stroke: #000000; stroke-width: 0.8"/>
      </g>
     </g>
     <g id="text_7">
      <!-- 20 -->
      <g transform="translate(300.593353 162.515237) scale(0.1 -0.1)">
       <use xlink:href="#DejaVuSans-32"/>
       <use xlink:href="#DejaVuSans-30" x="63.623047"/>
      </g>
     </g>
    </g>
    <g id="xtick_8">
     <g id="line2d_8">
      <g>
       <use xlink:href="#mcfb4dc2ec8" x="347.275692" y="147.9168" style="stroke: #000000; stroke-width: 0.8"/>
      </g>
     </g>
     <g id="text_8">
      <!-- 40 -->
      <g transform="translate(340.913192 162.515237) scale(0.1 -0.1)">
       <use xlink:href="#DejaVuSans-34"/>
       <use xlink:href="#DejaVuSans-30" x="63.623047"/>
      </g>
     </g>
    </g>
    <g id="xtick_9">
     <g id="line2d_9">
      <g>
       <use xlink:href="#mcfb4dc2ec8" x="387.595532" y="147.9168" style="stroke: #000000; stroke-width: 0.8"/>
      </g>
     </g>
     <g id="text_9">
      <!-- 60 -->
      <g transform="translate(381.233032 162.515237) scale(0.1 -0.1)">
       <use xlink:href="#DejaVuSans-36"/>
       <use xlink:href="#DejaVuSans-30" x="63.623047"/>
      </g>
     </g>
    </g>
    <g id="text_10">
     <!-- x -->
     <g transform="translate(233.200625 176.193362) scale(0.1 -0.1)">
      <defs>
       <path id="DejaVuSans-78" d="M 3513 3500 
L 2247 1797 
L 3578 0 
L 2900 0 
L 1881 1375 
L 863 0 
L 184 0 
L 1544 1831 
L 300 3500 
L 978 3500 
L 1906 2253 
L 2834 3500 
L 3513 3500 
z
" transform="scale(0.015625)"/>
      </defs>
      <use xlink:href="#DejaVuSans-78"/>
     </g>
    </g>
   </g>
   <g id="matplotlib.axis_2">
    <g id="ytick_1">
     <g id="line2d_10">
      <defs>
       <path id="mc39d47aaf6" d="M 0 0 
L -3.5 0 
" style="stroke: #000000; stroke-width: 0.8"/>
      </defs>
      <g>
       <use xlink:href="#mc39d47aaf6" x="57.6" y="147.915582" style="stroke: #000000; stroke-width: 0.8"/>
      </g>
     </g>
     <g id="text_11">
      <!-- 0 -->
      <g transform="translate(44.2375 151.714801) scale(0.1 -0.1)">
       <use xlink:href="#DejaVuSans-30"/>
      </g>
     </g>
    </g>
    <g id="ytick_2">
     <g id="line2d_11">
      <g>
       <use xlink:href="#mc39d47aaf6" x="57.6" y="114.361494" style="stroke: #000000; stroke-width: 0.8"/>
      </g>
     </g>
     <g id="text_12">
      <!-- 10000 -->
      <g transform="translate(18.7875 118.160712) scale(0.1 -0.1)">
       <use xlink:href="#DejaVuSans-31"/>
       <use xlink:href="#DejaVuSans-30" x="63.623047"/>
       <use xlink:href="#DejaVuSans-30" x="127.246094"/>
       <use xlink:href="#DejaVuSans-30" x="190.869141"/>
       <use xlink:href="#DejaVuSans-30" x="254.492188"/>
      </g>
     </g>
    </g>
    <g id="ytick_3">
     <g id="line2d_12">
      <g>
       <use xlink:href="#mc39d47aaf6" x="57.6" y="80.807405" style="stroke: #000000; stroke-width: 0.8"/>
      </g>
     </g>
     <g id="text_13">
      <!-- 20000 -->
      <g transform="translate(18.7875 84.606624) scale(0.1 -0.1)">
       <use xlink:href="#DejaVuSans-32"/>
       <use xlink:href="#DejaVuSans-30" x="63.623047"/>
       <use xlink:href="#DejaVuSans-30" x="127.246094"/>
       <use xlink:href="#DejaVuSans-30" x="190.869141"/>
       <use xlink:href="#DejaVuSans-30" x="254.492188"/>
      </g>
     </g>
    </g>
    <g id="ytick_4">
     <g id="line2d_13">
      <g>
       <use xlink:href="#mc39d47aaf6" x="57.6" y="47.253317" style="stroke: #000000; stroke-width: 0.8"/>
      </g>
     </g>
     <g id="text_14">
      <!-- 30000 -->
      <g transform="translate(18.7875 51.052536) scale(0.1 -0.1)">
       <defs>
        <path id="DejaVuSans-33" d="M 2597 2516 
Q 3050 2419 3304 2112 
Q 3559 1806 3559 1356 
Q 3559 666 3084 287 
Q 2609 -91 1734 -91 
Q 1441 -91 1130 -33 
Q 819 25 488 141 
L 488 750 
Q 750 597 1062 519 
Q 1375 441 1716 441 
Q 2309 441 2620 675 
Q 2931 909 2931 1356 
Q 2931 1769 2642 2001 
Q 2353 2234 1838 2234 
L 1294 2234 
L 1294 2753 
L 1863 2753 
Q 2328 2753 2575 2939 
Q 2822 3125 2822 3475 
Q 2822 3834 2567 4026 
Q 2313 4219 1838 4219 
Q 1578 4219 1281 4162 
Q 984 4106 628 3988 
L 628 4550 
Q 988 4650 1302 4700 
Q 1616 4750 1894 4750 
Q 2613 4750 3031 4423 
Q 3450 4097 3450 3541 
Q 3450 3153 3228 2886 
Q 3006 2619 2597 2516 
z
" transform="scale(0.015625)"/>
       </defs>
       <use xlink:href="#DejaVuSans-33"/>
       <use xlink:href="#DejaVuSans-30" x="63.623047"/>
       <use xlink:href="#DejaVuSans-30" x="127.246094"/>
       <use xlink:href="#DejaVuSans-30" x="190.869141"/>
       <use xlink:href="#DejaVuSans-30" x="254.492188"/>
      </g>
     </g>
    </g>
    <g id="text_15">
     <!-- y -->
     <g transform="translate(12.707813 97.653775) rotate(-90) scale(0.1 -0.1)">
      <defs>
       <path id="DejaVuSans-79" d="M 2059 -325 
Q 1816 -950 1584 -1140 
Q 1353 -1331 966 -1331 
L 506 -1331 
L 506 -850 
L 844 -850 
Q 1081 -850 1212 -737 
Q 1344 -625 1503 -206 
L 1606 56 
L 191 3500 
L 800 3500 
L 1894 763 
L 2988 3500 
L 3597 3500 
L 2059 -325 
z
" transform="scale(0.015625)"/>
      </defs>
      <use xlink:href="#DejaVuSans-79"/>
     </g>
    </g>
   </g>
   <g id="line2d_14">
    <defs>
     <path id="m97e52b2879" d="M 0 1.5 
C 0.397805 1.5 0.77937 1.341951 1.06066 1.06066 
C 1.341951 0.77937 1.5 0.397805 1.5 0 
C 1.5 -0.397805 1.341951 -0.77937 1.06066 -1.06066 
C 0.77937 -1.341951 0.397805 -1.5 0 -1.5 
C -0.397805 -1.5 -0.77937 -1.341951 -1.06066 -1.06066 
C -1.341951 -0.77937 -1.5 -0.397805 -1.5 0 
C -1.5 0.397805 -1.341951 0.77937 -1.06066 1.06066 
C -0.77937 1.341951 -0.397805 1.5 0 1.5 
z
" style="stroke: #0000ff"/>
    </defs>
    <g clip-path="url(#p90a33fb930)">
     <use xlink:href="#m97e52b2879" x="279.269308" y="147.370637" style="fill: #0000ff; stroke: #0000ff"/>
     <use xlink:href="#m97e52b2879" x="302.853421" y="144.281607" style="fill: #0000ff; stroke: #0000ff"/>
     <use xlink:href="#m97e52b2879" x="327.482355" y="138.114698" style="fill: #0000ff; stroke: #0000ff"/>
     <use xlink:href="#m97e52b2879" x="203.063887" y="138.517214" style="fill: #0000ff; stroke: #0000ff"/>
     <use xlink:href="#m97e52b2879" x="203.626805" y="138.688076" style="fill: #0000ff; stroke: #0000ff"/>
    </g>
   </g>
   <g id="patch_3">
    <path d="M 57.6 147.9168 
L 57.6 41.472 
" style="fill: none; stroke: #000000; stroke-width: 0.8; stroke-linejoin: miter; stroke-linecap: square"/>
   </g>
   <g id="patch_4">
    <path d="M 414.72 147.9168 
L 414.72 41.472 
" style="fill: none; stroke: #000000; stroke-width: 0.8; stroke-linejoin: miter; stroke-linecap: square"/>
   </g>
   <g id="patch_5">
    <path d="M 57.6 147.9168 
L 414.72 147.9168 
" style="fill: none; stroke: #000000; stroke-width: 0.8; stroke-linejoin: miter; stroke-linecap: square"/>
   </g>
   <g id="patch_6">
    <path d="M 57.6 41.472 
L 414.72 41.472 
" style="fill: none; stroke: #000000; stroke-width: 0.8; stroke-linejoin: miter; stroke-linecap: square"/>
   </g>
   <g id="text_16">
    <!-- Training Data -->
    <g transform="translate(196.25625 35.472) scale(0.12 -0.12)">
     <defs>
      <path id="DejaVuSans-54" d="M -19 4666 
L 3928 4666 
L 3928 4134 
L 2272 4134 
L 2272 0 
L 1638 0 
L 1638 4134 
L -19 4134 
L -19 4666 
z
" transform="scale(0.015625)"/>
      <path id="DejaVuSans-72" d="M 2631 2963 
Q 2534 3019 2420 3045 
Q 2306 3072 2169 3072 
Q 1681 3072 1420 2755 
Q 1159 2438 1159 1844 
L 1159 0 
L 581 0 
L 581 3500 
L 1159 3500 
L 1159 2956 
Q 1341 3275 1631 3429 
Q 1922 3584 2338 3584 
Q 2397 3584 2469 3576 
Q 2541 3569 2628 3553 
L 2631 2963 
z
" transform="scale(0.015625)"/>
      <path id="DejaVuSans-61" d="M 2194 1759 
Q 1497 1759 1228 1600 
Q 959 1441 959 1056 
Q 959 750 1161 570 
Q 1363 391 1709 391 
Q 2188 391 2477 730 
Q 2766 1069 2766 1631 
L 2766 1759 
L 2194 1759 
z
M 3341 1997 
L 3341 0 
L 2766 0 
L 2766 531 
Q 2569 213 2275 61 
Q 1981 -91 1556 -91 
Q 1019 -91 701 211 
Q 384 513 384 1019 
Q 384 1609 779 1909 
Q 1175 2209 1959 2209 
L 2766 2209 
L 2766 2266 
Q 2766 2663 2505 2880 
Q 2244 3097 1772 3097 
Q 1472 3097 1187 3025 
Q 903 2953 641 2809 
L 641 3341 
Q 956 3463 1253 3523 
Q 1550 3584 1831 3584 
Q 2591 3584 2966 3190 
Q 3341 2797 3341 1997 
z
" transform="scale(0.015625)"/>
      <path id="DejaVuSans-69" d="M 603 3500 
L 1178 3500 
L 1178 0 
L 603 0 
L 603 3500 
z
M 603 4863 
L 1178 4863 
L 1178 4134 
L 603 4134 
L 603 4863 
z
" transform="scale(0.015625)"/>
      <path id="DejaVuSans-6e" d="M 3513 2113 
L 3513 0 
L 2938 0 
L 2938 2094 
Q 2938 2591 2744 2837 
Q 2550 3084 2163 3084 
Q 1697 3084 1428 2787 
Q 1159 2491 1159 1978 
L 1159 0 
L 581 0 
L 581 3500 
L 1159 3500 
L 1159 2956 
Q 1366 3272 1645 3428 
Q 1925 3584 2291 3584 
Q 2894 3584 3203 3211 
Q 3513 2838 3513 2113 
z
" transform="scale(0.015625)"/>
      <path id="DejaVuSans-67" d="M 2906 1791 
Q 2906 2416 2648 2759 
Q 2391 3103 1925 3103 
Q 1463 3103 1205 2759 
Q 947 2416 947 1791 
Q 947 1169 1205 825 
Q 1463 481 1925 481 
Q 2391 481 2648 825 
Q 2906 1169 2906 1791 
z
M 3481 434 
Q 3481 -459 3084 -895 
Q 2688 -1331 1869 -1331 
Q 1566 -1331 1297 -1286 
Q 1028 -1241 775 -1147 
L 775 -588 
Q 1028 -725 1275 -790 
Q 1522 -856 1778 -856 
Q 2344 -856 2625 -561 
Q 2906 -266 2906 331 
L 2906 616 
Q 2728 306 2450 153 
Q 2172 0 1784 0 
Q 1141 0 747 490 
Q 353 981 353 1791 
Q 353 2603 747 3093 
Q 1141 3584 1784 3584 
Q 2172 3584 2450 3431 
Q 2728 3278 2906 2969 
L 2906 3500 
L 3481 3500 
L 3481 434 
z
" transform="scale(0.015625)"/>
      <path id="DejaVuSans-20" transform="scale(0.015625)"/>
      <path id="DejaVuSans-44" d="M 1259 4147 
L 1259 519 
L 2022 519 
Q 2988 519 3436 956 
Q 3884 1394 3884 2338 
Q 3884 3275 3436 3711 
Q 2988 4147 2022 4147 
L 1259 4147 
z
M 628 4666 
L 1925 4666 
Q 3281 4666 3915 4102 
Q 4550 3538 4550 2338 
Q 4550 1131 3912 565 
Q 3275 0 1925 0 
L 628 0 
L 628 4666 
z
" transform="scale(0.015625)"/>
      <path id="DejaVuSans-74" d="M 1172 4494 
L 1172 3500 
L 2356 3500 
L 2356 3053 
L 1172 3053 
L 1172 1153 
Q 1172 725 1289 603 
Q 1406 481 1766 481 
L 2356 481 
L 2356 0 
L 1766 0 
Q 1100 0 847 248 
Q 594 497 594 1153 
L 594 3053 
L 172 3053 
L 172 3500 
L 594 3500 
L 594 4494 
L 1172 4494 
z
" transform="scale(0.015625)"/>
     </defs>
     <use xlink:href="#DejaVuSans-54"/>
     <use xlink:href="#DejaVuSans-72" x="46.333984"/>
     <use xlink:href="#DejaVuSans-61" x="87.447266"/>
     <use xlink:href="#DejaVuSans-69" x="148.726562"/>
     <use xlink:href="#DejaVuSans-6e" x="176.509766"/>
     <use xlink:href="#DejaVuSans-69" x="239.888672"/>
     <use xlink:href="#DejaVuSans-6e" x="267.671875"/>
     <use xlink:href="#DejaVuSans-67" x="331.050781"/>
     <use xlink:href="#DejaVuSans-20" x="394.527344"/>
     <use xlink:href="#DejaVuSans-44" x="426.314453"/>
     <use xlink:href="#DejaVuSans-61" x="503.316406"/>
     <use xlink:href="#DejaVuSans-74" x="564.595703"/>
     <use xlink:href="#DejaVuSans-61" x="603.804688"/>
    </g>
   </g>
  </g>
  <g id="axes_2">
   <g id="patch_7">
    <path d="M 57.6 307.584 
L 414.72 307.584 
L 414.72 201.1392 
L 57.6 201.1392 
z
" style="fill: #ffffff"/>
   </g>
   <g id="matplotlib.axis_3">
    <g id="xtick_10">
     <g id="line2d_15">
      <g>
       <use xlink:href="#mcfb4dc2ec8" x="65.036816" y="307.584" style="stroke: #000000; stroke-width: 0.8"/>
      </g>
     </g>
     <g id="text_17">
      <!-- −100 -->
      <g transform="translate(51.303222 322.182437) scale(0.1 -0.1)">
       <use xlink:href="#DejaVuSans-2212"/>
       <use xlink:href="#DejaVuSans-31" x="83.789062"/>
       <use xlink:href="#DejaVuSans-30" x="147.412109"/>
       <use xlink:href="#DejaVuSans-30" x="211.035156"/>
      </g>
     </g>
    </g>
    <g id="xtick_11">
     <g id="line2d_16">
      <g>
       <use xlink:href="#mcfb4dc2ec8" x="105.356655" y="307.584" style="stroke: #000000; stroke-width: 0.8"/>
      </g>
     </g>
     <g id="text_18">
      <!-- −80 -->
      <g transform="translate(94.804312 322.182437) scale(0.1 -0.1)">
       <use xlink:href="#DejaVuSans-2212"/>
       <use xlink:href="#DejaVuSans-38" x="83.789062"/>
       <use xlink:href="#DejaVuSans-30" x="147.412109"/>
      </g>
     </g>
    </g>
    <g id="xtick_12">
     <g id="line2d_17">
      <g>
       <use xlink:href="#mcfb4dc2ec8" x="145.676495" y="307.584" style="stroke: #000000; stroke-width: 0.8"/>
      </g>
     </g>
     <g id="text_19">
      <!-- −60 -->
      <g transform="translate(135.124151 322.182437) scale(0.1 -0.1)">
       <use xlink:href="#DejaVuSans-2212"/>
       <use xlink:href="#DejaVuSans-36" x="83.789062"/>
       <use xlink:href="#DejaVuSans-30" x="147.412109"/>
      </g>
     </g>
    </g>
    <g id="xtick_13">
     <g id="line2d_18">
      <g>
       <use xlink:href="#mcfb4dc2ec8" x="185.996334" y="307.584" style="stroke: #000000; stroke-width: 0.8"/>
      </g>
     </g>
     <g id="text_20">
      <!-- −40 -->
      <g transform="translate(175.443991 322.182437) scale(0.1 -0.1)">
       <use xlink:href="#DejaVuSans-2212"/>
       <use xlink:href="#DejaVuSans-34" x="83.789062"/>
       <use xlink:href="#DejaVuSans-30" x="147.412109"/>
      </g>
     </g>
    </g>
    <g id="xtick_14">
     <g id="line2d_19">
      <g>
       <use xlink:href="#mcfb4dc2ec8" x="226.316174" y="307.584" style="stroke: #000000; stroke-width: 0.8"/>
      </g>
     </g>
     <g id="text_21">
      <!-- −20 -->
      <g transform="translate(215.76383 322.182437) scale(0.1 -0.1)">
       <use xlink:href="#DejaVuSans-2212"/>
       <use xlink:href="#DejaVuSans-32" x="83.789062"/>
       <use xlink:href="#DejaVuSans-30" x="147.412109"/>
      </g>
     </g>
    </g>
    <g id="xtick_15">
     <g id="line2d_20">
      <g>
       <use xlink:href="#mcfb4dc2ec8" x="266.636013" y="307.584" style="stroke: #000000; stroke-width: 0.8"/>
      </g>
     </g>
     <g id="text_22">
      <!-- 0 -->
      <g transform="translate(263.454763 322.182437) scale(0.1 -0.1)">
       <use xlink:href="#DejaVuSans-30"/>
      </g>
     </g>
    </g>
    <g id="xtick_16">
     <g id="line2d_21">
      <g>
       <use xlink:href="#mcfb4dc2ec8" x="306.955853" y="307.584" style="stroke: #000000; stroke-width: 0.8"/>
      </g>
     </g>
     <g id="text_23">
      <!-- 20 -->
      <g transform="translate(300.593353 322.182437) scale(0.1 -0.1)">
       <use xlink:href="#DejaVuSans-32"/>
       <use xlink:href="#DejaVuSans-30" x="63.623047"/>
      </g>
     </g>
    </g>
    <g id="xtick_17">
     <g id="line2d_22">
      <g>
       <use xlink:href="#mcfb4dc2ec8" x="347.275692" y="307.584" style="stroke: #000000; stroke-width: 0.8"/>
      </g>
     </g>
     <g id="text_24">
      <!-- 40 -->
      <g transform="translate(340.913192 322.182437) scale(0.1 -0.1)">
       <use xlink:href="#DejaVuSans-34"/>
       <use xlink:href="#DejaVuSans-30" x="63.623047"/>
      </g>
     </g>
    </g>
    <g id="xtick_18">
     <g id="line2d_23">
      <g>
       <use xlink:href="#mcfb4dc2ec8" x="387.595532" y="307.584" style="stroke: #000000; stroke-width: 0.8"/>
      </g>
     </g>
     <g id="text_25">
      <!-- 60 -->
      <g transform="translate(381.233032 322.182437) scale(0.1 -0.1)">
       <use xlink:href="#DejaVuSans-36"/>
       <use xlink:href="#DejaVuSans-30" x="63.623047"/>
      </g>
     </g>
    </g>
    <g id="text_26">
     <!-- x -->
     <g transform="translate(233.200625 335.860562) scale(0.1 -0.1)">
      <use xlink:href="#DejaVuSans-78"/>
     </g>
    </g>
   </g>
   <g id="matplotlib.axis_4">
    <g id="ytick_5">
     <g id="line2d_24">
      <g>
       <use xlink:href="#mc39d47aaf6" x="57.6" y="307.582782" style="stroke: #000000; stroke-width: 0.8"/>
      </g>
     </g>
     <g id="text_27">
      <!-- 0 -->
      <g transform="translate(44.2375 311.382001) scale(0.1 -0.1)">
       <use xlink:href="#DejaVuSans-30"/>
      </g>
     </g>
    </g>
    <g id="ytick_6">
     <g id="line2d_25">
      <g>
       <use xlink:href="#mc39d47aaf6" x="57.6" y="274.028694" style="stroke: #000000; stroke-width: 0.8"/>
      </g>
     </g>
     <g id="text_28">
      <!-- 10000 -->
      <g transform="translate(18.7875 277.827912) scale(0.1 -0.1)">
       <use xlink:href="#DejaVuSans-31"/>
       <use xlink:href="#DejaVuSans-30" x="63.623047"/>
       <use xlink:href="#DejaVuSans-30" x="127.246094"/>
       <use xlink:href="#DejaVuSans-30" x="190.869141"/>
       <use xlink:href="#DejaVuSans-30" x="254.492188"/>
      </g>
     </g>
    </g>
    <g id="ytick_7">
     <g id="line2d_26">
      <g>
       <use xlink:href="#mc39d47aaf6" x="57.6" y="240.474605" style="stroke: #000000; stroke-width: 0.8"/>
      </g>
     </g>
     <g id="text_29">
      <!-- 20000 -->
      <g transform="translate(18.7875 244.273824) scale(0.1 -0.1)">
       <use xlink:href="#DejaVuSans-32"/>
       <use xlink:href="#DejaVuSans-30" x="63.623047"/>
       <use xlink:href="#DejaVuSans-30" x="127.246094"/>
       <use xlink:href="#DejaVuSans-30" x="190.869141"/>
       <use xlink:href="#DejaVuSans-30" x="254.492188"/>
      </g>
     </g>
    </g>
    <g id="ytick_8">
     <g id="line2d_27">
      <g>
       <use xlink:href="#mc39d47aaf6" x="57.6" y="206.920517" style="stroke: #000000; stroke-width: 0.8"/>
      </g>
     </g>
     <g id="text_30">
      <!-- 30000 -->
      <g transform="translate(18.7875 210.719736) scale(0.1 -0.1)">
       <use xlink:href="#DejaVuSans-33"/>
       <use xlink:href="#DejaVuSans-30" x="63.623047"/>
       <use xlink:href="#DejaVuSans-30" x="127.246094"/>
       <use xlink:href="#DejaVuSans-30" x="190.869141"/>
       <use xlink:href="#DejaVuSans-30" x="254.492188"/>
      </g>
     </g>
    </g>
    <g id="text_31">
     <!-- y -->
     <g transform="translate(12.707813 257.320975) rotate(-90) scale(0.1 -0.1)">
      <use xlink:href="#DejaVuSans-79"/>
     </g>
    </g>
   </g>
   <g id="line2d_28">
    <defs>
     <path id="maa5ad2676c" d="M 0 1.5 
C 0.397805 1.5 0.77937 1.341951 1.06066 1.06066 
C 1.341951 0.77937 1.5 0.397805 1.5 0 
C 1.5 -0.397805 1.341951 -0.77937 1.06066 -1.06066 
C 0.77937 -1.341951 0.397805 -1.5 0 -1.5 
C -0.397805 -1.5 -0.77937 -1.341951 -1.06066 -1.06066 
C -1.341951 -0.77937 -1.5 -0.397805 -1.5 0 
C -1.5 0.397805 -1.341951 0.77937 -1.06066 1.06066 
C -0.77937 1.341951 -0.397805 1.5 0 1.5 
z
" style="stroke: #ff0000"/>
    </defs>
    <g clip-path="url(#p5cb5513e58)">
     <use xlink:href="#maa5ad2676c" x="57.6" y="201.420871" style="fill: #ff0000; stroke: #ff0000"/>
     <use xlink:href="#maa5ad2676c" x="63.18972" y="207.075692" style="fill: #ff0000; stroke: #ff0000"/>
     <use xlink:href="#maa5ad2676c" x="63.603879" y="207.488518" style="fill: #ff0000; stroke: #ff0000"/>
     <use xlink:href="#maa5ad2676c" x="64.095803" y="207.977753" style="fill: #ff0000; stroke: #ff0000"/>
     <use xlink:href="#maa5ad2676c" x="71.645729" y="215.336007" style="fill: #ff0000; stroke: #ff0000"/>
     <use xlink:href="#maa5ad2676c" x="71.84408" y="215.525509" style="fill: #ff0000; stroke: #ff0000"/>
     <use xlink:href="#maa5ad2676c" x="75.084876" y="218.59424" style="fill: #ff0000; stroke: #ff0000"/>
     <use xlink:href="#maa5ad2676c" x="76.473101" y="219.892836" style="fill: #ff0000; stroke: #ff0000"/>
     <use xlink:href="#maa5ad2676c" x="78.99932" y="222.23147" style="fill: #ff0000; stroke: #ff0000"/>
     <use xlink:href="#maa5ad2676c" x="88.322145" y="230.588404" style="fill: #ff0000; stroke: #ff0000"/>
     <use xlink:href="#maa5ad2676c" x="104.539981" y="244.100092" style="fill: #ff0000; stroke: #ff0000"/>
     <use xlink:href="#maa5ad2676c" x="110.109676" y="248.439854" style="fill: #ff0000; stroke: #ff0000"/>
     <use xlink:href="#maa5ad2676c" x="112.62962" y="250.352837" style="fill: #ff0000; stroke: #ff0000"/>
     <use xlink:href="#maa5ad2676c" x="116.299201" y="253.082302" style="fill: #ff0000; stroke: #ff0000"/>
     <use xlink:href="#maa5ad2676c" x="117.486322" y="253.951012" style="fill: #ff0000; stroke: #ff0000"/>
     <use xlink:href="#maa5ad2676c" x="117.492443" y="253.955481" style="fill: #ff0000; stroke: #ff0000"/>
     <use xlink:href="#maa5ad2676c" x="119.373684" y="255.317774" style="fill: #ff0000; stroke: #ff0000"/>
     <use xlink:href="#maa5ad2676c" x="121.082306" y="256.53988" style="fill: #ff0000; stroke: #ff0000"/>
     <use xlink:href="#maa5ad2676c" x="121.754632" y="257.0168" style="fill: #ff0000; stroke: #ff0000"/>
     <use xlink:href="#maa5ad2676c" x="122.796035" y="257.751111" style="fill: #ff0000; stroke: #ff0000"/>
     <use xlink:href="#maa5ad2676c" x="125.561825" y="259.675231" style="fill: #ff0000; stroke: #ff0000"/>
     <use xlink:href="#maa5ad2676c" x="129.610836" y="262.423727" style="fill: #ff0000; stroke: #ff0000"/>
     <use xlink:href="#maa5ad2676c" x="135.51011" y="266.28284" style="fill: #ff0000; stroke: #ff0000"/>
     <use xlink:href="#maa5ad2676c" x="150.923385" y="275.552085" style="fill: #ff0000; stroke: #ff0000"/>
     <use xlink:href="#maa5ad2676c" x="156.979182" y="278.871915" style="fill: #ff0000; stroke: #ff0000"/>
     <use xlink:href="#maa5ad2676c" x="158.495967" y="279.674978" style="fill: #ff0000; stroke: #ff0000"/>
     <use xlink:href="#maa5ad2676c" x="159.984167" y="280.451829" style="fill: #ff0000; stroke: #ff0000"/>
     <use xlink:href="#maa5ad2676c" x="169.450902" y="285.136678" style="fill: #ff0000; stroke: #ff0000"/>
     <use xlink:href="#maa5ad2676c" x="169.614508" y="285.213739" style="fill: #ff0000; stroke: #ff0000"/>
     <use xlink:href="#maa5ad2676c" x="171.147612" y="285.929423" style="fill: #ff0000; stroke: #ff0000"/>
     <use xlink:href="#maa5ad2676c" x="182.219518" y="290.752348" style="fill: #ff0000; stroke: #ff0000"/>
     <use xlink:href="#maa5ad2676c" x="184.525838" y="291.680561" style="fill: #ff0000; stroke: #ff0000"/>
     <use xlink:href="#maa5ad2676c" x="186.104054" y="292.300554" style="fill: #ff0000; stroke: #ff0000"/>
     <use xlink:href="#maa5ad2676c" x="186.550028" y="292.473517" style="fill: #ff0000; stroke: #ff0000"/>
     <use xlink:href="#maa5ad2676c" x="189.602301" y="293.630836" style="fill: #ff0000; stroke: #ff0000"/>
     <use xlink:href="#maa5ad2676c" x="193.276697" y="294.962825" style="fill: #ff0000; stroke: #ff0000"/>
     <use xlink:href="#maa5ad2676c" x="194.402756" y="295.357637" style="fill: #ff0000; stroke: #ff0000"/>
     <use xlink:href="#maa5ad2676c" x="197.312203" y="296.348656" style="fill: #ff0000; stroke: #ff0000"/>
     <use xlink:href="#maa5ad2676c" x="199.105235" y="296.938516" style="fill: #ff0000; stroke: #ff0000"/>
     <use xlink:href="#maa5ad2676c" x="204.024068" y="298.474911" style="fill: #ff0000; stroke: #ff0000"/>
     <use xlink:href="#maa5ad2676c" x="211.820633" y="300.664627" style="fill: #ff0000; stroke: #ff0000"/>
     <use xlink:href="#maa5ad2676c" x="214.384766" y="301.318982" style="fill: #ff0000; stroke: #ff0000"/>
     <use xlink:href="#maa5ad2676c" x="216.427928" y="301.817071" style="fill: #ff0000; stroke: #ff0000"/>
     <use xlink:href="#maa5ad2676c" x="219.990155" y="302.636029" style="fill: #ff0000; stroke: #ff0000"/>
     <use xlink:href="#maa5ad2676c" x="224.004894" y="303.483677" style="fill: #ff0000; stroke: #ff0000"/>
     <use xlink:href="#maa5ad2676c" x="226.485197" y="303.967452" style="fill: #ff0000; stroke: #ff0000"/>
     <use xlink:href="#maa5ad2676c" x="227.439626" y="304.145492" style="fill: #ff0000; stroke: #ff0000"/>
     <use xlink:href="#maa5ad2676c" x="229.417996" y="304.500166" style="fill: #ff0000; stroke: #ff0000"/>
     <use xlink:href="#maa5ad2676c" x="230.605744" y="304.703786" style="fill: #ff0000; stroke: #ff0000"/>
     <use xlink:href="#maa5ad2676c" x="238.495859" y="305.879021" style="fill: #ff0000; stroke: #ff0000"/>
     <use xlink:href="#maa5ad2676c" x="239.573855" y="306.015644" style="fill: #ff0000; stroke: #ff0000"/>
     <use xlink:href="#maa5ad2676c" x="244.117135" y="306.528196" style="fill: #ff0000; stroke: #ff0000"/>
     <use xlink:href="#maa5ad2676c" x="247.635273" y="306.854852" style="fill: #ff0000; stroke: #ff0000"/>
     <use xlink:href="#maa5ad2676c" x="255.06356" y="307.343165" style="fill: #ff0000; stroke: #ff0000"/>
     <use xlink:href="#maa5ad2676c" x="255.894415" y="307.380787" style="fill: #ff0000; stroke: #ff0000"/>
     <use xlink:href="#maa5ad2676c" x="260.50355" y="307.52739" style="fill: #ff0000; stroke: #ff0000"/>
     <use xlink:href="#maa5ad2676c" x="260.513392" y="307.527591" style="fill: #ff0000; stroke: #ff0000"/>
     <use xlink:href="#maa5ad2676c" x="260.939965" y="307.535818" style="fill: #ff0000; stroke: #ff0000"/>
     <use xlink:href="#maa5ad2676c" x="263.431689" y="307.565863" style="fill: #ff0000; stroke: #ff0000"/>
     <use xlink:href="#maa5ad2676c" x="263.601986" y="307.566793" style="fill: #ff0000; stroke: #ff0000"/>
     <use xlink:href="#maa5ad2676c" x="266.062795" y="307.564205" style="fill: #ff0000; stroke: #ff0000"/>
     <use xlink:href="#maa5ad2676c" x="267.772955" y="307.544739" style="fill: #ff0000; stroke: #ff0000"/>
     <use xlink:href="#maa5ad2676c" x="267.818413" y="307.544023" style="fill: #ff0000; stroke: #ff0000"/>
     <use xlink:href="#maa5ad2676c" x="272.839466" y="307.40203" style="fill: #ff0000; stroke: #ff0000"/>
     <use xlink:href="#maa5ad2676c" x="274.983372" y="307.303355" style="fill: #ff0000; stroke: #ff0000"/>
     <use xlink:href="#maa5ad2676c" x="284.194346" y="306.620368" style="fill: #ff0000; stroke: #ff0000"/>
     <use xlink:href="#maa5ad2676c" x="288.457921" y="306.161936" style="fill: #ff0000; stroke: #ff0000"/>
     <use xlink:href="#maa5ad2676c" x="297.35721" y="304.914927" style="fill: #ff0000; stroke: #ff0000"/>
     <use xlink:href="#maa5ad2676c" x="302.135526" y="304.083494" style="fill: #ff0000; stroke: #ff0000"/>
     <use xlink:href="#maa5ad2676c" x="307.95552" y="302.918035" style="fill: #ff0000; stroke: #ff0000"/>
     <use xlink:href="#maa5ad2676c" x="308.301888" y="302.843384" style="fill: #ff0000; stroke: #ff0000"/>
     <use xlink:href="#maa5ad2676c" x="312.497181" y="301.892008" style="fill: #ff0000; stroke: #ff0000"/>
     <use xlink:href="#maa5ad2676c" x="312.855977" y="301.806596" style="fill: #ff0000; stroke: #ff0000"/>
     <use xlink:href="#maa5ad2676c" x="315.803076" y="301.080902" style="fill: #ff0000; stroke: #ff0000"/>
     <use xlink:href="#maa5ad2676c" x="322.256967" y="299.341422" style="fill: #ff0000; stroke: #ff0000"/>
     <use xlink:href="#maa5ad2676c" x="331.760674" y="296.404323" style="fill: #ff0000; stroke: #ff0000"/>
     <use xlink:href="#maa5ad2676c" x="340.507841" y="293.305625" style="fill: #ff0000; stroke: #ff0000"/>
     <use xlink:href="#maa5ad2676c" x="343.386511" y="292.202964" style="fill: #ff0000; stroke: #ff0000"/>
     <use xlink:href="#maa5ad2676c" x="344.545508" y="291.747423" style="fill: #ff0000; stroke: #ff0000"/>
     <use xlink:href="#maa5ad2676c" x="344.97321" y="291.577634" style="fill: #ff0000; stroke: #ff0000"/>
     <use xlink:href="#maa5ad2676c" x="349.152173" y="289.871002" style="fill: #ff0000; stroke: #ff0000"/>
     <use xlink:href="#maa5ad2676c" x="349.868918" y="289.569604" style="fill: #ff0000; stroke: #ff0000"/>
     <use xlink:href="#maa5ad2676c" x="353.702913" y="287.914149" style="fill: #ff0000; stroke: #ff0000"/>
     <use xlink:href="#maa5ad2676c" x="356.534487" y="286.644777" style="fill: #ff0000; stroke: #ff0000"/>
     <use xlink:href="#maa5ad2676c" x="360.032934" y="285.021599" style="fill: #ff0000; stroke: #ff0000"/>
     <use xlink:href="#maa5ad2676c" x="361.198291" y="284.467447" style="fill: #ff0000; stroke: #ff0000"/>
     <use xlink:href="#maa5ad2676c" x="363.942717" y="283.135837" style="fill: #ff0000; stroke: #ff0000"/>
     <use xlink:href="#maa5ad2676c" x="368.282302" y="280.954105" style="fill: #ff0000; stroke: #ff0000"/>
     <use xlink:href="#maa5ad2676c" x="376.233121" y="276.714793" style="fill: #ff0000; stroke: #ff0000"/>
     <use xlink:href="#maa5ad2676c" x="376.528509" y="276.551263" style="fill: #ff0000; stroke: #ff0000"/>
     <use xlink:href="#maa5ad2676c" x="380.093332" y="274.543637" style="fill: #ff0000; stroke: #ff0000"/>
     <use xlink:href="#maa5ad2676c" x="380.776217" y="274.151871" style="fill: #ff0000; stroke: #ff0000"/>
     <use xlink:href="#maa5ad2676c" x="385.320289" y="271.486116" style="fill: #ff0000; stroke: #ff0000"/>
     <use xlink:href="#maa5ad2676c" x="387.100955" y="270.413608" style="fill: #ff0000; stroke: #ff0000"/>
     <use xlink:href="#maa5ad2676c" x="399.103737" y="262.774466" style="fill: #ff0000; stroke: #ff0000"/>
     <use xlink:href="#maa5ad2676c" x="400.825202" y="261.620329" style="fill: #ff0000; stroke: #ff0000"/>
     <use xlink:href="#maa5ad2676c" x="408.110164" y="256.573696" style="fill: #ff0000; stroke: #ff0000"/>
     <use xlink:href="#maa5ad2676c" x="410.376247" y="254.950272" style="fill: #ff0000; stroke: #ff0000"/>
     <use xlink:href="#maa5ad2676c" x="414.679118" y="251.797681" style="fill: #ff0000; stroke: #ff0000"/>
     <use xlink:href="#maa5ad2676c" x="414.72" y="251.76728" style="fill: #ff0000; stroke: #ff0000"/>
    </g>
   </g>
   <g id="line2d_29">
    <path d="M 57.6 201.1392 
L 63.18972 206.811132 
L 63.603879 207.22521 
L 64.095803 207.715932 
L 71.645729 215.096397 
L 71.84408 215.286469 
L 75.084876 218.364434 
L 76.473101 219.666935 
L 78.99932 222.012609 
L 88.322145 230.394597 
L 104.539981 243.946542 
L 110.109676 248.299157 
L 112.62962 250.217788 
L 116.299201 252.955301 
L 117.486322 253.826563 
L 117.492443 253.831046 
L 119.373684 255.197343 
L 121.082306 256.423037 
L 121.754632 256.90136 
L 122.796035 257.63782 
L 125.561825 259.56757 
L 129.610836 262.324087 
L 135.51011 266.194427 
L 150.923385 275.490338 
L 156.979182 278.819595 
L 158.495967 279.624929 
L 159.984167 280.403975 
L 169.450902 285.101929 
L 169.614508 285.179207 
L 171.147612 285.896873 
L 182.219518 290.732998 
L 184.525838 291.663713 
L 186.104054 292.28537 
L 186.550028 292.458793 
L 189.602301 293.619192 
L 193.276697 294.954688 
L 194.402756 295.350536 
L 197.312203 296.344126 
L 199.105235 296.935502 
L 204.024068 298.475797 
L 211.820633 300.670894 
L 214.384766 301.326804 
L 216.427928 301.826058 
L 219.990155 302.646885 
L 224.004894 303.496394 
L 226.485197 303.981192 
L 227.439626 304.159597 
L 229.417996 304.514985 
L 230.605744 304.719003 
L 238.495859 305.896306 
L 239.573855 306.033134 
L 244.117135 306.546344 
L 247.635273 306.873281 
L 255.06356 307.361535 
L 255.894415 307.399095 
L 260.50355 307.545155 
L 260.513392 307.545353 
L 260.939965 307.553513 
L 263.431689 307.583104 
L 263.601986 307.584 
L 266.062795 307.578074 
L 267.772955 307.564868 
L 267.818413 307.564281 
L 272.839466 307.428603 
L 274.983372 307.327893 
L 284.194346 306.629947 
L 288.457921 306.169084 
L 297.35721 304.91606 
L 302.135526 304.080872 
L 307.95552 302.910343 
L 308.301888 302.835374 
L 312.497181 301.879982 
L 312.855977 301.794213 
L 315.803076 301.065513 
L 322.256967 299.318959 
L 331.760674 296.370227 
L 340.507841 293.259539 
L 343.386511 292.152662 
L 344.545508 291.695386 
L 344.97321 291.524954 
L 349.152173 289.81186 
L 349.868918 289.509323 
L 353.702913 287.84765 
L 356.534487 286.573532 
L 360.032934 284.94431 
L 361.198291 284.388105 
L 363.942717 283.051565 
L 368.282302 280.861797 
L 376.233121 276.606965 
L 376.528509 276.442841 
L 380.093332 274.427912 
L 380.776217 274.03472 
L 385.320289 271.359312 
L 387.100955 270.282924 
L 399.103737 262.616339 
L 400.825202 261.458077 
L 408.110164 256.393461 
L 410.376247 254.764259 
L 414.679118 251.600479 
L 414.72 251.569985 
" clip-path="url(#p5cb5513e58)" style="fill: none; stroke: #008000; stroke-width: 1.5; stroke-linecap: square"/>
   </g>
   <g id="patch_8">
    <path d="M 57.6 307.584 
L 57.6 201.1392 
" style="fill: none; stroke: #000000; stroke-width: 0.8; stroke-linejoin: miter; stroke-linecap: square"/>
   </g>
   <g id="patch_9">
    <path d="M 414.72 307.584 
L 414.72 201.1392 
" style="fill: none; stroke: #000000; stroke-width: 0.8; stroke-linejoin: miter; stroke-linecap: square"/>
   </g>
   <g id="patch_10">
    <path d="M 57.6 307.584 
L 414.72 307.584 
" style="fill: none; stroke: #000000; stroke-width: 0.8; stroke-linejoin: miter; stroke-linecap: square"/>
   </g>
   <g id="patch_11">
    <path d="M 57.6 201.1392 
L 414.72 201.1392 
" style="fill: none; stroke: #000000; stroke-width: 0.8; stroke-linejoin: miter; stroke-linecap: square"/>
   </g>
   <g id="text_32">
    <!-- Test Data and Predictions -->
    <g transform="translate(160.080938 195.1392) scale(0.12 -0.12)">
     <defs>
      <path id="DejaVuSans-65" d="M 3597 1894 
L 3597 1613 
L 953 1613 
Q 991 1019 1311 708 
Q 1631 397 2203 397 
Q 2534 397 2845 478 
Q 3156 559 3463 722 
L 3463 178 
Q 3153 47 2828 -22 
Q 2503 -91 2169 -91 
Q 1331 -91 842 396 
Q 353 884 353 1716 
Q 353 2575 817 3079 
Q 1281 3584 2069 3584 
Q 2775 3584 3186 3129 
Q 3597 2675 3597 1894 
z
M 3022 2063 
Q 3016 2534 2758 2815 
Q 2500 3097 2075 3097 
Q 1594 3097 1305 2825 
Q 1016 2553 972 2059 
L 3022 2063 
z
" transform="scale(0.015625)"/>
      <path id="DejaVuSans-73" d="M 2834 3397 
L 2834 2853 
Q 2591 2978 2328 3040 
Q 2066 3103 1784 3103 
Q 1356 3103 1142 2972 
Q 928 2841 928 2578 
Q 928 2378 1081 2264 
Q 1234 2150 1697 2047 
L 1894 2003 
Q 2506 1872 2764 1633 
Q 3022 1394 3022 966 
Q 3022 478 2636 193 
Q 2250 -91 1575 -91 
Q 1294 -91 989 -36 
Q 684 19 347 128 
L 347 722 
Q 666 556 975 473 
Q 1284 391 1588 391 
Q 1994 391 2212 530 
Q 2431 669 2431 922 
Q 2431 1156 2273 1281 
Q 2116 1406 1581 1522 
L 1381 1569 
Q 847 1681 609 1914 
Q 372 2147 372 2553 
Q 372 3047 722 3315 
Q 1072 3584 1716 3584 
Q 2034 3584 2315 3537 
Q 2597 3491 2834 3397 
z
" transform="scale(0.015625)"/>
      <path id="DejaVuSans-64" d="M 2906 2969 
L 2906 4863 
L 3481 4863 
L 3481 0 
L 2906 0 
L 2906 525 
Q 2725 213 2448 61 
Q 2172 -91 1784 -91 
Q 1150 -91 751 415 
Q 353 922 353 1747 
Q 353 2572 751 3078 
Q 1150 3584 1784 3584 
Q 2172 3584 2448 3432 
Q 2725 3281 2906 2969 
z
M 947 1747 
Q 947 1113 1208 752 
Q 1469 391 1925 391 
Q 2381 391 2643 752 
Q 2906 1113 2906 1747 
Q 2906 2381 2643 2742 
Q 2381 3103 1925 3103 
Q 1469 3103 1208 2742 
Q 947 2381 947 1747 
z
" transform="scale(0.015625)"/>
      <path id="DejaVuSans-50" d="M 1259 4147 
L 1259 2394 
L 2053 2394 
Q 2494 2394 2734 2622 
Q 2975 2850 2975 3272 
Q 2975 3691 2734 3919 
Q 2494 4147 2053 4147 
L 1259 4147 
z
M 628 4666 
L 2053 4666 
Q 2838 4666 3239 4311 
Q 3641 3956 3641 3272 
Q 3641 2581 3239 2228 
Q 2838 1875 2053 1875 
L 1259 1875 
L 1259 0 
L 628 0 
L 628 4666 
z
" transform="scale(0.015625)"/>
      <path id="DejaVuSans-63" d="M 3122 3366 
L 3122 2828 
Q 2878 2963 2633 3030 
Q 2388 3097 2138 3097 
Q 1578 3097 1268 2742 
Q 959 2388 959 1747 
Q 959 1106 1268 751 
Q 1578 397 2138 397 
Q 2388 397 2633 464 
Q 2878 531 3122 666 
L 3122 134 
Q 2881 22 2623 -34 
Q 2366 -91 2075 -91 
Q 1284 -91 818 406 
Q 353 903 353 1747 
Q 353 2603 823 3093 
Q 1294 3584 2113 3584 
Q 2378 3584 2631 3529 
Q 2884 3475 3122 3366 
z
" transform="scale(0.015625)"/>
      <path id="DejaVuSans-6f" d="M 1959 3097 
Q 1497 3097 1228 2736 
Q 959 2375 959 1747 
Q 959 1119 1226 758 
Q 1494 397 1959 397 
Q 2419 397 2687 759 
Q 2956 1122 2956 1747 
Q 2956 2369 2687 2733 
Q 2419 3097 1959 3097 
z
M 1959 3584 
Q 2709 3584 3137 3096 
Q 3566 2609 3566 1747 
Q 3566 888 3137 398 
Q 2709 -91 1959 -91 
Q 1206 -91 779 398 
Q 353 888 353 1747 
Q 353 2609 779 3096 
Q 1206 3584 1959 3584 
z
" transform="scale(0.015625)"/>
     </defs>
     <use xlink:href="#DejaVuSans-54"/>
     <use xlink:href="#DejaVuSans-65" x="44.083984"/>
     <use xlink:href="#DejaVuSans-73" x="105.607422"/>
     <use xlink:href="#DejaVuSans-74" x="157.707031"/>
     <use xlink:href="#DejaVuSans-20" x="196.916016"/>
     <use xlink:href="#DejaVuSans-44" x="228.703125"/>
     <use xlink:href="#DejaVuSans-61" x="305.705078"/>
     <use xlink:href="#DejaVuSans-74" x="366.984375"/>
     <use xlink:href="#DejaVuSans-61" x="406.193359"/>
     <use xlink:href="#DejaVuSans-20" x="467.472656"/>
     <use xlink:href="#DejaVuSans-61" x="499.259766"/>
     <use xlink:href="#DejaVuSans-6e" x="560.539062"/>
     <use xlink:href="#DejaVuSans-64" x="623.917969"/>
     <use xlink:href="#DejaVuSans-20" x="687.394531"/>
     <use xlink:href="#DejaVuSans-50" x="719.181641"/>
     <use xlink:href="#DejaVuSans-72" x="777.734375"/>
     <use xlink:href="#DejaVuSans-65" x="816.597656"/>
     <use xlink:href="#DejaVuSans-64" x="878.121094"/>
     <use xlink:href="#DejaVuSans-69" x="941.597656"/>
     <use xlink:href="#DejaVuSans-63" x="969.380859"/>
     <use xlink:href="#DejaVuSans-74" x="1024.361328"/>
     <use xlink:href="#DejaVuSans-69" x="1063.570312"/>
     <use xlink:href="#DejaVuSans-6f" x="1091.353516"/>
     <use xlink:href="#DejaVuSans-6e" x="1152.535156"/>
     <use xlink:href="#DejaVuSans-73" x="1215.914062"/>
    </g>
   </g>
   <g id="legend_1">
    <g id="patch_12">
     <path d="M 328.779375 238.49545 
L 407.72 238.49545 
Q 409.72 238.49545 409.72 236.49545 
L 409.72 208.1392 
Q 409.72 206.1392 407.72 206.1392 
L 328.779375 206.1392 
Q 326.779375 206.1392 326.779375 208.1392 
L 326.779375 236.49545 
Q 326.779375 238.49545 328.779375 238.49545 
z
" style="fill: #ffffff; opacity: 0.8; stroke: #cccccc; stroke-linejoin: miter"/>
    </g>
    <g id="line2d_30">
     <g>
      <use xlink:href="#maa5ad2676c" x="340.779375" y="214.237637" style="fill: #ff0000; stroke: #ff0000"/>
     </g>
    </g>
    <g id="text_33">
     <!-- Test data -->
     <g transform="translate(358.779375 217.737637) scale(0.1 -0.1)">
      <use xlink:href="#DejaVuSans-54"/>
      <use xlink:href="#DejaVuSans-65" x="44.083984"/>
      <use xlink:href="#DejaVuSans-73" x="105.607422"/>
      <use xlink:href="#DejaVuSans-74" x="157.707031"/>
      <use xlink:href="#DejaVuSans-20" x="196.916016"/>
      <use xlink:href="#DejaVuSans-64" x="228.703125"/>
      <use xlink:href="#DejaVuSans-61" x="292.179688"/>
      <use xlink:href="#DejaVuSans-74" x="353.458984"/>
      <use xlink:href="#DejaVuSans-61" x="392.667969"/>
     </g>
    </g>
    <g id="line2d_31">
     <path d="M 330.779375 228.915762 
L 340.779375 228.915762 
L 350.779375 228.915762 
" style="fill: none; stroke: #008000; stroke-width: 1.5; stroke-linecap: square"/>
    </g>
    <g id="text_34">
     <!-- Predicted -->
     <g transform="translate(358.779375 232.415762) scale(0.1 -0.1)">
      <use xlink:href="#DejaVuSans-50"/>
      <use xlink:href="#DejaVuSans-72" x="58.552734"/>
      <use xlink:href="#DejaVuSans-65" x="97.416016"/>
      <use xlink:href="#DejaVuSans-64" x="158.939453"/>
      <use xlink:href="#DejaVuSans-69" x="222.416016"/>
      <use xlink:href="#DejaVuSans-63" x="250.199219"/>
      <use xlink:href="#DejaVuSans-74" x="305.179688"/>
      <use xlink:href="#DejaVuSans-65" x="344.388672"/>
      <use xlink:href="#DejaVuSans-64" x="405.912109"/>
     </g>
    </g>
   </g>
  </g>
 </g>
 <defs>
  <clipPath id="p90a33fb930">
   <rect x="57.6" y="41.472" width="357.12" height="106.4448"/>
  </clipPath>
  <clipPath id="p5cb5513e58">
   <rect x="57.6" y="201.1392" width="357.12" height="106.4448"/>
  </clipPath>
 </defs>
</svg>
