<?xml version="1.0" encoding="utf-8" standalone="no"?>
<!DOCTYPE svg PUBLIC "-//W3C//DTD SVG 1.1//EN"
  "http://www.w3.org/Graphics/SVG/1.1/DTD/svg11.dtd">
<svg xmlns:xlink="http://www.w3.org/1999/xlink" width="460.8pt" height="345.6pt" viewBox="0 0 460.8 345.6" xmlns="http://www.w3.org/2000/svg" version="1.1">
 <metadata>
  <rdf:RDF xmlns:dc="http://purl.org/dc/elements/1.1/" xmlns:cc="http://creativecommons.org/ns#" xmlns:rdf="http://www.w3.org/1999/02/22-rdf-syntax-ns#">
   <cc:Work>
    <dc:type rdf:resource="http://purl.org/dc/dcmitype/StillImage"/>
    <dc:date>2023-07-19T16:46:54.389225</dc:date>
    <dc:format>image/svg+xml</dc:format>
    <dc:creator>
     <cc:Agent>
      <dc:title>Matplotlib v3.7.2, https://matplotlib.org/</dc:title>
     </cc:Agent>
    </dc:creator>
   </cc:Work>
  </rdf:RDF>
 </metadata>
 <defs>
  <style type="text/css">*{stroke-linejoin: round; stroke-linecap: butt}</style>
 </defs>
 <g id="figure_1">
  <g id="patch_1">
   <path d="M 0 345.6 
L 460.8 345.6 
L 460.8 0 
L 0 0 
z
" style="fill: #ffffff"/>
  </g>
  <g id="axes_1">
   <g id="patch_2">
    <path d="M 57.6 147.9168 
L 414.72 147.9168 
L 414.72 41.472 
L 57.6 41.472 
z
" style="fill: #ffffff"/>
   </g>
   <g id="matplotlib.axis_1">
    <g id="xtick_1">
     <g id="line2d_1">
      <defs>
       <path id="m92a4fb8ff8" d="M 0 0 
L 0 3.5 
" style="stroke: #000000; stroke-width: 0.8"/>
      </defs>
      <g>
       <use xlink:href="#m92a4fb8ff8" x="57.6" y="147.9168" style="stroke: #000000; stroke-width: 0.8"/>
      </g>
     </g>
     <g id="text_1">
      <!-- −30 -->
      <g transform="translate(47.047656 162.515237) scale(0.1 -0.1)">
       <defs>
        <path id="DejaVuSans-2212" d="M 678 2272 
L 4684 2272 
L 4684 1741 
L 678 1741 
L 678 2272 
z
" transform="scale(0.015625)"/>
        <path id="DejaVuSans-33" d="M 2597 2516 
Q 3050 2419 3304 2112 
Q 3559 1806 3559 1356 
Q 3559 666 3084 287 
Q 2609 -91 1734 -91 
Q 1441 -91 1130 -33 
Q 819 25 488 141 
L 488 750 
Q 750 597 1062 519 
Q 1375 441 1716 441 
Q 2309 441 2620 675 
Q 2931 909 2931 1356 
Q 2931 1769 2642 2001 
Q 2353 2234 1838 2234 
L 1294 2234 
L 1294 2753 
L 1863 2753 
Q 2328 2753 2575 2939 
Q 2822 3125 2822 3475 
Q 2822 3834 2567 4026 
Q 2313 4219 1838 4219 
Q 1578 4219 1281 4162 
Q 984 4106 628 3988 
L 628 4550 
Q 988 4650 1302 4700 
Q 1616 4750 1894 4750 
Q 2613 4750 3031 4423 
Q 3450 4097 3450 3541 
Q 3450 3153 3228 2886 
Q 3006 2619 2597 2516 
z
" transform="scale(0.015625)"/>
        <path id="DejaVuSans-30" d="M 2034 4250 
Q 1547 4250 1301 3770 
Q 1056 3291 1056 2328 
Q 1056 1369 1301 889 
Q 1547 409 2034 409 
Q 2525 409 2770 889 
Q 3016 1369 3016 2328 
Q 3016 3291 2770 3770 
Q 2525 4250 2034 4250 
z
M 2034 4750 
Q 2819 4750 3233 4129 
Q 3647 3509 3647 2328 
Q 3647 1150 3233 529 
Q 2819 -91 2034 -91 
Q 1250 -91 836 529 
Q 422 1150 422 2328 
Q 422 3509 836 4129 
Q 1250 4750 2034 4750 
z
" transform="scale(0.015625)"/>
       </defs>
       <use xlink:href="#DejaVuSans-2212"/>
       <use xlink:href="#DejaVuSans-33" x="83.789062"/>
       <use xlink:href="#DejaVuSans-30" x="147.412109"/>
      </g>
     </g>
    </g>
    <g id="xtick_2">
     <g id="line2d_2">
      <g>
       <use xlink:href="#m92a4fb8ff8" x="117.12" y="147.9168" style="stroke: #000000; stroke-width: 0.8"/>
      </g>
     </g>
     <g id="text_2">
      <!-- −20 -->
      <g transform="translate(106.567656 162.515237) scale(0.1 -0.1)">
       <defs>
        <path id="DejaVuSans-32" d="M 1228 531 
L 3431 531 
L 3431 0 
L 469 0 
L 469 531 
Q 828 903 1448 1529 
Q 2069 2156 2228 2338 
Q 2531 2678 2651 2914 
Q 2772 3150 2772 3378 
Q 2772 3750 2511 3984 
Q 2250 4219 1831 4219 
Q 1534 4219 1204 4116 
Q 875 4013 500 3803 
L 500 4441 
Q 881 4594 1212 4672 
Q 1544 4750 1819 4750 
Q 2544 4750 2975 4387 
Q 3406 4025 3406 3419 
Q 3406 3131 3298 2873 
Q 3191 2616 2906 2266 
Q 2828 2175 2409 1742 
Q 1991 1309 1228 531 
z
" transform="scale(0.015625)"/>
       </defs>
       <use xlink:href="#DejaVuSans-2212"/>
       <use xlink:href="#DejaVuSans-32" x="83.789062"/>
       <use xlink:href="#DejaVuSans-30" x="147.412109"/>
      </g>
     </g>
    </g>
    <g id="xtick_3">
     <g id="line2d_3">
      <g>
       <use xlink:href="#m92a4fb8ff8" x="176.64" y="147.9168" style="stroke: #000000; stroke-width: 0.8"/>
      </g>
     </g>
     <g id="text_3">
      <!-- −10 -->
      <g transform="translate(166.087656 162.515237) scale(0.1 -0.1)">
       <defs>
        <path id="DejaVuSans-31" d="M 794 531 
L 1825 531 
L 1825 4091 
L 703 3866 
L 703 4441 
L 1819 4666 
L 2450 4666 
L 2450 531 
L 3481 531 
L 3481 0 
L 794 0 
L 794 531 
z
" transform="scale(0.015625)"/>
       </defs>
       <use xlink:href="#DejaVuSans-2212"/>
       <use xlink:href="#DejaVuSans-31" x="83.789062"/>
       <use xlink:href="#DejaVuSans-30" x="147.412109"/>
      </g>
     </g>
    </g>
    <g id="xtick_4">
     <g id="line2d_4">
      <g>
       <use xlink:href="#m92a4fb8ff8" x="236.16" y="147.9168" style="stroke: #000000; stroke-width: 0.8"/>
      </g>
     </g>
     <g id="text_4">
      <!-- 0 -->
      <g transform="translate(232.97875 162.515237) scale(0.1 -0.1)">
       <use xlink:href="#DejaVuSans-30"/>
      </g>
     </g>
    </g>
    <g id="xtick_5">
     <g id="line2d_5">
      <g>
       <use xlink:href="#m92a4fb8ff8" x="295.68" y="147.9168" style="stroke: #000000; stroke-width: 0.8"/>
      </g>
     </g>
     <g id="text_5">
      <!-- 10 -->
      <g transform="translate(289.3175 162.515237) scale(0.1 -0.1)">
       <use xlink:href="#DejaVuSans-31"/>
       <use xlink:href="#DejaVuSans-30" x="63.623047"/>
      </g>
     </g>
    </g>
    <g id="xtick_6">
     <g id="line2d_6">
      <g>
       <use xlink:href="#m92a4fb8ff8" x="355.2" y="147.9168" style="stroke: #000000; stroke-width: 0.8"/>
      </g>
     </g>
     <g id="text_6">
      <!-- 20 -->
      <g transform="translate(348.8375 162.515237) scale(0.1 -0.1)">
       <use xlink:href="#DejaVuSans-32"/>
       <use xlink:href="#DejaVuSans-30" x="63.623047"/>
      </g>
     </g>
    </g>
    <g id="xtick_7">
     <g id="line2d_7">
      <g>
       <use xlink:href="#m92a4fb8ff8" x="414.72" y="147.9168" style="stroke: #000000; stroke-width: 0.8"/>
      </g>
     </g>
     <g id="text_7">
      <!-- 30 -->
      <g transform="translate(408.3575 162.515237) scale(0.1 -0.1)">
       <use xlink:href="#DejaVuSans-33"/>
       <use xlink:href="#DejaVuSans-30" x="63.623047"/>
      </g>
     </g>
    </g>
    <g id="text_8">
     <!-- x -->
     <g transform="translate(233.200625 176.193362) scale(0.1 -0.1)">
      <defs>
       <path id="DejaVuSans-78" d="M 3513 3500 
L 2247 1797 
L 3578 0 
L 2900 0 
L 1881 1375 
L 863 0 
L 184 0 
L 1544 1831 
L 300 3500 
L 978 3500 
L 1906 2253 
L 2834 3500 
L 3513 3500 
z
" transform="scale(0.015625)"/>
      </defs>
      <use xlink:href="#DejaVuSans-78"/>
     </g>
    </g>
   </g>
   <g id="matplotlib.axis_2">
    <g id="ytick_1">
     <g id="line2d_8">
      <defs>
       <path id="m3d782e924a" d="M 0 0 
L -3.5 0 
" style="stroke: #000000; stroke-width: 0.8"/>
      </defs>
      <g>
       <use xlink:href="#m3d782e924a" x="57.6" y="147.410317" style="stroke: #000000; stroke-width: 0.8"/>
      </g>
     </g>
     <g id="text_9">
      <!-- 0 -->
      <g transform="translate(44.2375 151.209536) scale(0.1 -0.1)">
       <use xlink:href="#DejaVuSans-30"/>
      </g>
     </g>
    </g>
    <g id="ytick_2">
     <g id="line2d_9">
      <g>
       <use xlink:href="#m3d782e924a" x="57.6" y="109.040771" style="stroke: #000000; stroke-width: 0.8"/>
      </g>
     </g>
     <g id="text_10">
      <!-- 1000 -->
      <g transform="translate(25.15 112.83999) scale(0.1 -0.1)">
       <use xlink:href="#DejaVuSans-31"/>
       <use xlink:href="#DejaVuSans-30" x="63.623047"/>
       <use xlink:href="#DejaVuSans-30" x="127.246094"/>
       <use xlink:href="#DejaVuSans-30" x="190.869141"/>
      </g>
     </g>
    </g>
    <g id="ytick_3">
     <g id="line2d_10">
      <g>
       <use xlink:href="#m3d782e924a" x="57.6" y="70.671225" style="stroke: #000000; stroke-width: 0.8"/>
      </g>
     </g>
     <g id="text_11">
      <!-- 2000 -->
      <g transform="translate(25.15 74.470443) scale(0.1 -0.1)">
       <use xlink:href="#DejaVuSans-32"/>
       <use xlink:href="#DejaVuSans-30" x="63.623047"/>
       <use xlink:href="#DejaVuSans-30" x="127.246094"/>
       <use xlink:href="#DejaVuSans-30" x="190.869141"/>
      </g>
     </g>
    </g>
    <g id="text_12">
     <!-- y -->
     <g transform="translate(19.070312 97.653775) rotate(-90) scale(0.1 -0.1)">
      <defs>
       <path id="DejaVuSans-79" d="M 2059 -325 
Q 1816 -950 1584 -1140 
Q 1353 -1331 966 -1331 
L 506 -1331 
L 506 -850 
L 844 -850 
Q 1081 -850 1212 -737 
Q 1344 -625 1503 -206 
L 1606 56 
L 191 3500 
L 800 3500 
L 1894 763 
L 2988 3500 
L 3597 3500 
L 2059 -325 
z
" transform="scale(0.015625)"/>
      </defs>
      <use xlink:href="#DejaVuSans-79"/>
     </g>
    </g>
   </g>
   <g id="line2d_11">
    <defs>
     <path id="meb06000042" d="M 0 1.5 
C 0.397805 1.5 0.77937 1.341951 1.06066 1.06066 
C 1.341951 0.77937 1.5 0.397805 1.5 0 
C 1.5 -0.397805 1.341951 -0.77937 1.06066 -1.06066 
C 0.77937 -1.341951 0.397805 -1.5 0 -1.5 
C -0.397805 -1.5 -0.77937 -1.341951 -1.06066 -1.06066 
C -1.341951 -0.77937 -1.5 -0.397805 -1.5 0 
C -1.5 0.397805 -1.341951 0.77937 -1.06066 1.06066 
C -0.77937 1.341951 -0.397805 1.5 0 1.5 
z
" style="stroke: #0000ff"/>
    </defs>
    <g clip-path="url(#p55908a5edc)">
     <use xlink:href="#meb06000042" x="146.88" y="122.62359" style="fill: #0000ff; stroke: #0000ff"/>
     <use xlink:href="#meb06000042" x="176.64" y="136.628475" style="fill: #0000ff; stroke: #0000ff"/>
     <use xlink:href="#meb06000042" x="206.4" y="144.877927" style="fill: #0000ff; stroke: #0000ff"/>
     <use xlink:href="#meb06000042" x="236.16" y="147.371947" style="fill: #0000ff; stroke: #0000ff"/>
     <use xlink:href="#meb06000042" x="265.92" y="144.110536" style="fill: #0000ff; stroke: #0000ff"/>
     <use xlink:href="#meb06000042" x="295.68" y="135.093693" style="fill: #0000ff; stroke: #0000ff"/>
     <use xlink:href="#meb06000042" x="325.44" y="120.321417" style="fill: #0000ff; stroke: #0000ff"/>
     <use xlink:href="#meb06000042" x="355.2" y="99.79371" style="fill: #0000ff; stroke: #0000ff"/>
     <use xlink:href="#meb06000042" x="384.96" y="73.510571" style="fill: #0000ff; stroke: #0000ff"/>
     <use xlink:href="#meb06000042" x="414.72" y="41.472" style="fill: #0000ff; stroke: #0000ff"/>
    </g>
   </g>
   <g id="patch_3">
    <path d="M 57.6 147.9168 
L 57.6 41.472 
" style="fill: none; stroke: #000000; stroke-width: 0.8; stroke-linejoin: miter; stroke-linecap: square"/>
   </g>
   <g id="patch_4">
    <path d="M 414.72 147.9168 
L 414.72 41.472 
" style="fill: none; stroke: #000000; stroke-width: 0.8; stroke-linejoin: miter; stroke-linecap: square"/>
   </g>
   <g id="patch_5">
    <path d="M 57.6 147.9168 
L 414.72 147.9168 
" style="fill: none; stroke: #000000; stroke-width: 0.8; stroke-linejoin: miter; stroke-linecap: square"/>
   </g>
   <g id="patch_6">
    <path d="M 57.6 41.472 
L 414.72 41.472 
" style="fill: none; stroke: #000000; stroke-width: 0.8; stroke-linejoin: miter; stroke-linecap: square"/>
   </g>
   <g id="text_13">
    <!-- Training Data -->
    <g transform="translate(196.25625 35.472) scale(0.12 -0.12)">
     <defs>
      <path id="DejaVuSans-54" d="M -19 4666 
L 3928 4666 
L 3928 4134 
L 2272 4134 
L 2272 0 
L 1638 0 
L 1638 4134 
L -19 4134 
L -19 4666 
z
" transform="scale(0.015625)"/>
      <path id="DejaVuSans-72" d="M 2631 2963 
Q 2534 3019 2420 3045 
Q 2306 3072 2169 3072 
Q 1681 3072 1420 2755 
Q 1159 2438 1159 1844 
L 1159 0 
L 581 0 
L 581 3500 
L 1159 3500 
L 1159 2956 
Q 1341 3275 1631 3429 
Q 1922 3584 2338 3584 
Q 2397 3584 2469 3576 
Q 2541 3569 2628 3553 
L 2631 2963 
z
" transform="scale(0.015625)"/>
      <path id="DejaVuSans-61" d="M 2194 1759 
Q 1497 1759 1228 1600 
Q 959 1441 959 1056 
Q 959 750 1161 570 
Q 1363 391 1709 391 
Q 2188 391 2477 730 
Q 2766 1069 2766 1631 
L 2766 1759 
L 2194 1759 
z
M 3341 1997 
L 3341 0 
L 2766 0 
L 2766 531 
Q 2569 213 2275 61 
Q 1981 -91 1556 -91 
Q 1019 -91 701 211 
Q 384 513 384 1019 
Q 384 1609 779 1909 
Q 1175 2209 1959 2209 
L 2766 2209 
L 2766 2266 
Q 2766 2663 2505 2880 
Q 2244 3097 1772 3097 
Q 1472 3097 1187 3025 
Q 903 2953 641 2809 
L 641 3341 
Q 956 3463 1253 3523 
Q 1550 3584 1831 3584 
Q 2591 3584 2966 3190 
Q 3341 2797 3341 1997 
z
" transform="scale(0.015625)"/>
      <path id="DejaVuSans-69" d="M 603 3500 
L 1178 3500 
L 1178 0 
L 603 0 
L 603 3500 
z
M 603 4863 
L 1178 4863 
L 1178 4134 
L 603 4134 
L 603 4863 
z
" transform="scale(0.015625)"/>
      <path id="DejaVuSans-6e" d="M 3513 2113 
L 3513 0 
L 2938 0 
L 2938 2094 
Q 2938 2591 2744 2837 
Q 2550 3084 2163 3084 
Q 1697 3084 1428 2787 
Q 1159 2491 1159 1978 
L 1159 0 
L 581 0 
L 581 3500 
L 1159 3500 
L 1159 2956 
Q 1366 3272 1645 3428 
Q 1925 3584 2291 3584 
Q 2894 3584 3203 3211 
Q 3513 2838 3513 2113 
z
" transform="scale(0.015625)"/>
      <path id="DejaVuSans-67" d="M 2906 1791 
Q 2906 2416 2648 2759 
Q 2391 3103 1925 3103 
Q 1463 3103 1205 2759 
Q 947 2416 947 1791 
Q 947 1169 1205 825 
Q 1463 481 1925 481 
Q 2391 481 2648 825 
Q 2906 1169 2906 1791 
z
M 3481 434 
Q 3481 -459 3084 -895 
Q 2688 -1331 1869 -1331 
Q 1566 -1331 1297 -1286 
Q 1028 -1241 775 -1147 
L 775 -588 
Q 1028 -725 1275 -790 
Q 1522 -856 1778 -856 
Q 2344 -856 2625 -561 
Q 2906 -266 2906 331 
L 2906 616 
Q 2728 306 2450 153 
Q 2172 0 1784 0 
Q 1141 0 747 490 
Q 353 981 353 1791 
Q 353 2603 747 3093 
Q 1141 3584 1784 3584 
Q 2172 3584 2450 3431 
Q 2728 3278 2906 2969 
L 2906 3500 
L 3481 3500 
L 3481 434 
z
" transform="scale(0.015625)"/>
      <path id="DejaVuSans-20" transform="scale(0.015625)"/>
      <path id="DejaVuSans-44" d="M 1259 4147 
L 1259 519 
L 2022 519 
Q 2988 519 3436 956 
Q 3884 1394 3884 2338 
Q 3884 3275 3436 3711 
Q 2988 4147 2022 4147 
L 1259 4147 
z
M 628 4666 
L 1925 4666 
Q 3281 4666 3915 4102 
Q 4550 3538 4550 2338 
Q 4550 1131 3912 565 
Q 3275 0 1925 0 
L 628 0 
L 628 4666 
z
" transform="scale(0.015625)"/>
      <path id="DejaVuSans-74" d="M 1172 4494 
L 1172 3500 
L 2356 3500 
L 2356 3053 
L 1172 3053 
L 1172 1153 
Q 1172 725 1289 603 
Q 1406 481 1766 481 
L 2356 481 
L 2356 0 
L 1766 0 
Q 1100 0 847 248 
Q 594 497 594 1153 
L 594 3053 
L 172 3053 
L 172 3500 
L 594 3500 
L 594 4494 
L 1172 4494 
z
" transform="scale(0.015625)"/>
     </defs>
     <use xlink:href="#DejaVuSans-54"/>
     <use xlink:href="#DejaVuSans-72" x="46.333984"/>
     <use xlink:href="#DejaVuSans-61" x="87.447266"/>
     <use xlink:href="#DejaVuSans-69" x="148.726562"/>
     <use xlink:href="#DejaVuSans-6e" x="176.509766"/>
     <use xlink:href="#DejaVuSans-69" x="239.888672"/>
     <use xlink:href="#DejaVuSans-6e" x="267.671875"/>
     <use xlink:href="#DejaVuSans-67" x="331.050781"/>
     <use xlink:href="#DejaVuSans-20" x="394.527344"/>
     <use xlink:href="#DejaVuSans-44" x="426.314453"/>
     <use xlink:href="#DejaVuSans-61" x="503.316406"/>
     <use xlink:href="#DejaVuSans-74" x="564.595703"/>
     <use xlink:href="#DejaVuSans-61" x="603.804688"/>
    </g>
   </g>
  </g>
  <g id="axes_2">
   <g id="patch_7">
    <path d="M 57.6 307.584 
L 414.72 307.584 
L 414.72 201.1392 
L 57.6 201.1392 
z
" style="fill: #ffffff"/>
   </g>
   <g id="matplotlib.axis_3">
    <g id="xtick_8">
     <g id="line2d_12">
      <g>
       <use xlink:href="#m92a4fb8ff8" x="57.6" y="307.584" style="stroke: #000000; stroke-width: 0.8"/>
      </g>
     </g>
     <g id="text_14">
      <!-- −30 -->
      <g transform="translate(47.047656 322.182437) scale(0.1 -0.1)">
       <use xlink:href="#DejaVuSans-2212"/>
       <use xlink:href="#DejaVuSans-33" x="83.789062"/>
       <use xlink:href="#DejaVuSans-30" x="147.412109"/>
      </g>
     </g>
    </g>
    <g id="xtick_9">
     <g id="line2d_13">
      <g>
       <use xlink:href="#m92a4fb8ff8" x="117.12" y="307.584" style="stroke: #000000; stroke-width: 0.8"/>
      </g>
     </g>
     <g id="text_15">
      <!-- −20 -->
      <g transform="translate(106.567656 322.182437) scale(0.1 -0.1)">
       <use xlink:href="#DejaVuSans-2212"/>
       <use xlink:href="#DejaVuSans-32" x="83.789062"/>
       <use xlink:href="#DejaVuSans-30" x="147.412109"/>
      </g>
     </g>
    </g>
    <g id="xtick_10">
     <g id="line2d_14">
      <g>
       <use xlink:href="#m92a4fb8ff8" x="176.64" y="307.584" style="stroke: #000000; stroke-width: 0.8"/>
      </g>
     </g>
     <g id="text_16">
      <!-- −10 -->
      <g transform="translate(166.087656 322.182437) scale(0.1 -0.1)">
       <use xlink:href="#DejaVuSans-2212"/>
       <use xlink:href="#DejaVuSans-31" x="83.789062"/>
       <use xlink:href="#DejaVuSans-30" x="147.412109"/>
      </g>
     </g>
    </g>
    <g id="xtick_11">
     <g id="line2d_15">
      <g>
       <use xlink:href="#m92a4fb8ff8" x="236.16" y="307.584" style="stroke: #000000; stroke-width: 0.8"/>
      </g>
     </g>
     <g id="text_17">
      <!-- 0 -->
      <g transform="translate(232.97875 322.182437) scale(0.1 -0.1)">
       <use xlink:href="#DejaVuSans-30"/>
      </g>
     </g>
    </g>
    <g id="xtick_12">
     <g id="line2d_16">
      <g>
       <use xlink:href="#m92a4fb8ff8" x="295.68" y="307.584" style="stroke: #000000; stroke-width: 0.8"/>
      </g>
     </g>
     <g id="text_18">
      <!-- 10 -->
      <g transform="translate(289.3175 322.182437) scale(0.1 -0.1)">
       <use xlink:href="#DejaVuSans-31"/>
       <use xlink:href="#DejaVuSans-30" x="63.623047"/>
      </g>
     </g>
    </g>
    <g id="xtick_13">
     <g id="line2d_17">
      <g>
       <use xlink:href="#m92a4fb8ff8" x="355.2" y="307.584" style="stroke: #000000; stroke-width: 0.8"/>
      </g>
     </g>
     <g id="text_19">
      <!-- 20 -->
      <g transform="translate(348.8375 322.182437) scale(0.1 -0.1)">
       <use xlink:href="#DejaVuSans-32"/>
       <use xlink:href="#DejaVuSans-30" x="63.623047"/>
      </g>
     </g>
    </g>
    <g id="xtick_14">
     <g id="line2d_18">
      <g>
       <use xlink:href="#m92a4fb8ff8" x="414.72" y="307.584" style="stroke: #000000; stroke-width: 0.8"/>
      </g>
     </g>
     <g id="text_20">
      <!-- 30 -->
      <g transform="translate(408.3575 322.182437) scale(0.1 -0.1)">
       <use xlink:href="#DejaVuSans-33"/>
       <use xlink:href="#DejaVuSans-30" x="63.623047"/>
      </g>
     </g>
    </g>
    <g id="text_21">
     <!-- x -->
     <g transform="translate(233.200625 335.860562) scale(0.1 -0.1)">
      <use xlink:href="#DejaVuSans-78"/>
     </g>
    </g>
   </g>
   <g id="matplotlib.axis_4">
    <g id="ytick_4">
     <g id="line2d_19">
      <g>
       <use xlink:href="#m3d782e924a" x="57.6" y="307.077517" style="stroke: #000000; stroke-width: 0.8"/>
      </g>
     </g>
     <g id="text_22">
      <!-- 0 -->
      <g transform="translate(44.2375 310.876736) scale(0.1 -0.1)">
       <use xlink:href="#DejaVuSans-30"/>
      </g>
     </g>
    </g>
    <g id="ytick_5">
     <g id="line2d_20">
      <g>
       <use xlink:href="#m3d782e924a" x="57.6" y="268.707971" style="stroke: #000000; stroke-width: 0.8"/>
      </g>
     </g>
     <g id="text_23">
      <!-- 1000 -->
      <g transform="translate(25.15 272.50719) scale(0.1 -0.1)">
       <use xlink:href="#DejaVuSans-31"/>
       <use xlink:href="#DejaVuSans-30" x="63.623047"/>
       <use xlink:href="#DejaVuSans-30" x="127.246094"/>
       <use xlink:href="#DejaVuSans-30" x="190.869141"/>
      </g>
     </g>
    </g>
    <g id="ytick_6">
     <g id="line2d_21">
      <g>
       <use xlink:href="#m3d782e924a" x="57.6" y="230.338425" style="stroke: #000000; stroke-width: 0.8"/>
      </g>
     </g>
     <g id="text_24">
      <!-- 2000 -->
      <g transform="translate(25.15 234.137643) scale(0.1 -0.1)">
       <use xlink:href="#DejaVuSans-32"/>
       <use xlink:href="#DejaVuSans-30" x="63.623047"/>
       <use xlink:href="#DejaVuSans-30" x="127.246094"/>
       <use xlink:href="#DejaVuSans-30" x="190.869141"/>
      </g>
     </g>
    </g>
    <g id="text_25">
     <!-- y -->
     <g transform="translate(19.070312 257.320975) rotate(-90) scale(0.1 -0.1)">
      <use xlink:href="#DejaVuSans-79"/>
     </g>
    </g>
   </g>
   <g id="line2d_22">
    <defs>
     <path id="ma13ffe0eba" d="M 0 1.5 
C 0.397805 1.5 0.77937 1.341951 1.06066 1.06066 
C 1.341951 0.77937 1.5 0.397805 1.5 0 
C 1.5 -0.397805 1.341951 -0.77937 1.06066 -1.06066 
C 0.77937 -1.341951 0.397805 -1.5 0 -1.5 
C -0.397805 -1.5 -0.77937 -1.341951 -1.06066 -1.06066 
C -1.341951 -0.77937 -1.5 -0.397805 -1.5 0 
C -1.5 0.397805 -1.341951 0.77937 -1.06066 1.06066 
C -0.77937 1.341951 -0.397805 1.5 0 1.5 
z
" style="stroke: #ff0000"/>
    </defs>
    <g clip-path="url(#pbcf4205fdf)">
     <use xlink:href="#ma13ffe0eba" x="57.6" y="205.743546" style="fill: #ff0000; stroke: #ff0000"/>
     <use xlink:href="#ma13ffe0eba" x="60.606062" y="209.163578" style="fill: #ff0000; stroke: #ff0000"/>
     <use xlink:href="#ma13ffe0eba" x="63.612123" y="212.524866" style="fill: #ff0000; stroke: #ff0000"/>
     <use xlink:href="#ma13ffe0eba" x="66.618185" y="215.827448" style="fill: #ff0000; stroke: #ff0000"/>
     <use xlink:href="#ma13ffe0eba" x="69.624246" y="219.071305" style="fill: #ff0000; stroke: #ff0000"/>
     <use xlink:href="#ma13ffe0eba" x="72.630308" y="222.256436" style="fill: #ff0000; stroke: #ff0000"/>
     <use xlink:href="#ma13ffe0eba" x="75.636369" y="225.382842" style="fill: #ff0000; stroke: #ff0000"/>
     <use xlink:href="#ma13ffe0eba" x="78.642419" y="228.450504" style="fill: #ff0000; stroke: #ff0000"/>
     <use xlink:href="#ma13ffe0eba" x="81.648481" y="231.459479" style="fill: #ff0000; stroke: #ff0000"/>
     <use xlink:href="#ma13ffe0eba" x="84.654542" y="234.409714" style="fill: #ff0000; stroke: #ff0000"/>
     <use xlink:href="#ma13ffe0eba" x="87.660604" y="237.301237" style="fill: #ff0000; stroke: #ff0000"/>
     <use xlink:href="#ma13ffe0eba" x="90.666665" y="240.134026" style="fill: #ff0000; stroke: #ff0000"/>
     <use xlink:href="#ma13ffe0eba" x="93.672727" y="242.908095" style="fill: #ff0000; stroke: #ff0000"/>
     <use xlink:href="#ma13ffe0eba" x="96.678788" y="245.623443" style="fill: #ff0000; stroke: #ff0000"/>
     <use xlink:href="#ma13ffe0eba" x="99.68485" y="248.280075" style="fill: #ff0000; stroke: #ff0000"/>
     <use xlink:href="#ma13ffe0eba" x="102.690911" y="250.877977" style="fill: #ff0000; stroke: #ff0000"/>
     <use xlink:href="#ma13ffe0eba" x="105.696973" y="253.417149" style="fill: #ff0000; stroke: #ff0000"/>
     <use xlink:href="#ma13ffe0eba" x="108.703035" y="255.897606" style="fill: #ff0000; stroke: #ff0000"/>
     <use xlink:href="#ma13ffe0eba" x="111.709096" y="258.319346" style="fill: #ff0000; stroke: #ff0000"/>
     <use xlink:href="#ma13ffe0eba" x="114.715146" y="260.682347" style="fill: #ff0000; stroke: #ff0000"/>
     <use xlink:href="#ma13ffe0eba" x="117.721208" y="262.986632" style="fill: #ff0000; stroke: #ff0000"/>
     <use xlink:href="#ma13ffe0eba" x="120.727269" y="265.232192" style="fill: #ff0000; stroke: #ff0000"/>
     <use xlink:href="#ma13ffe0eba" x="123.733331" y="267.419041" style="fill: #ff0000; stroke: #ff0000"/>
     <use xlink:href="#ma13ffe0eba" x="126.739392" y="269.547157" style="fill: #ff0000; stroke: #ff0000"/>
     <use xlink:href="#ma13ffe0eba" x="129.745454" y="271.616551" style="fill: #ff0000; stroke: #ff0000"/>
     <use xlink:href="#ma13ffe0eba" x="132.751515" y="273.627226" style="fill: #ff0000; stroke: #ff0000"/>
     <use xlink:href="#ma13ffe0eba" x="135.757577" y="275.579176" style="fill: #ff0000; stroke: #ff0000"/>
     <use xlink:href="#ma13ffe0eba" x="138.763638" y="277.4724" style="fill: #ff0000; stroke: #ff0000"/>
     <use xlink:href="#ma13ffe0eba" x="141.769694" y="279.3069" style="fill: #ff0000; stroke: #ff0000"/>
     <use xlink:href="#ma13ffe0eba" x="144.775756" y="281.082683" style="fill: #ff0000; stroke: #ff0000"/>
     <use xlink:href="#ma13ffe0eba" x="147.781817" y="282.799742" style="fill: #ff0000; stroke: #ff0000"/>
     <use xlink:href="#ma13ffe0eba" x="150.787879" y="284.458077" style="fill: #ff0000; stroke: #ff0000"/>
     <use xlink:href="#ma13ffe0eba" x="153.79394" y="286.057687" style="fill: #ff0000; stroke: #ff0000"/>
     <use xlink:href="#ma13ffe0eba" x="156.800002" y="287.598578" style="fill: #ff0000; stroke: #ff0000"/>
     <use xlink:href="#ma13ffe0eba" x="159.806063" y="289.080743" style="fill: #ff0000; stroke: #ff0000"/>
     <use xlink:href="#ma13ffe0eba" x="162.812119" y="290.504186" style="fill: #ff0000; stroke: #ff0000"/>
     <use xlink:href="#ma13ffe0eba" x="165.818181" y="291.868908" style="fill: #ff0000; stroke: #ff0000"/>
     <use xlink:href="#ma13ffe0eba" x="168.824242" y="293.174904" style="fill: #ff0000; stroke: #ff0000"/>
     <use xlink:href="#ma13ffe0eba" x="171.830304" y="294.422179" style="fill: #ff0000; stroke: #ff0000"/>
     <use xlink:href="#ma13ffe0eba" x="174.836365" y="295.610731" style="fill: #ff0000; stroke: #ff0000"/>
     <use xlink:href="#ma13ffe0eba" x="177.842427" y="296.74056" style="fill: #ff0000; stroke: #ff0000"/>
     <use xlink:href="#ma13ffe0eba" x="180.848483" y="297.811664" style="fill: #ff0000; stroke: #ff0000"/>
     <use xlink:href="#ma13ffe0eba" x="183.854544" y="298.824048" style="fill: #ff0000; stroke: #ff0000"/>
     <use xlink:href="#ma13ffe0eba" x="186.860606" y="299.777708" style="fill: #ff0000; stroke: #ff0000"/>
     <use xlink:href="#ma13ffe0eba" x="189.866667" y="300.672645" style="fill: #ff0000; stroke: #ff0000"/>
     <use xlink:href="#ma13ffe0eba" x="192.872726" y="301.508859" style="fill: #ff0000; stroke: #ff0000"/>
     <use xlink:href="#ma13ffe0eba" x="195.878788" y="302.286351" style="fill: #ff0000; stroke: #ff0000"/>
     <use xlink:href="#ma13ffe0eba" x="198.884849" y="303.005119" style="fill: #ff0000; stroke: #ff0000"/>
     <use xlink:href="#ma13ffe0eba" x="201.890908" y="303.665164" style="fill: #ff0000; stroke: #ff0000"/>
     <use xlink:href="#ma13ffe0eba" x="204.896969" y="304.266487" style="fill: #ff0000; stroke: #ff0000"/>
     <use xlink:href="#ma13ffe0eba" x="207.903031" y="304.809087" style="fill: #ff0000; stroke: #ff0000"/>
     <use xlink:href="#ma13ffe0eba" x="210.909092" y="305.292963" style="fill: #ff0000; stroke: #ff0000"/>
     <use xlink:href="#ma13ffe0eba" x="213.915151" y="305.718117" style="fill: #ff0000; stroke: #ff0000"/>
     <use xlink:href="#ma13ffe0eba" x="216.921212" y="306.084548" style="fill: #ff0000; stroke: #ff0000"/>
     <use xlink:href="#ma13ffe0eba" x="219.927273" y="306.392256" style="fill: #ff0000; stroke: #ff0000"/>
     <use xlink:href="#ma13ffe0eba" x="222.933333" y="306.641241" style="fill: #ff0000; stroke: #ff0000"/>
     <use xlink:href="#ma13ffe0eba" x="225.939394" y="306.831503" style="fill: #ff0000; stroke: #ff0000"/>
     <use xlink:href="#ma13ffe0eba" x="228.945454" y="306.963043" style="fill: #ff0000; stroke: #ff0000"/>
     <use xlink:href="#ma13ffe0eba" x="231.951515" y="307.035859" style="fill: #ff0000; stroke: #ff0000"/>
     <use xlink:href="#ma13ffe0eba" x="234.957576" y="307.049952" style="fill: #ff0000; stroke: #ff0000"/>
     <use xlink:href="#ma13ffe0eba" x="237.963636" y="307.005323" style="fill: #ff0000; stroke: #ff0000"/>
     <use xlink:href="#ma13ffe0eba" x="240.969697" y="306.901971" style="fill: #ff0000; stroke: #ff0000"/>
     <use xlink:href="#ma13ffe0eba" x="243.975758" y="306.739896" style="fill: #ff0000; stroke: #ff0000"/>
     <use xlink:href="#ma13ffe0eba" x="246.981819" y="306.519097" style="fill: #ff0000; stroke: #ff0000"/>
     <use xlink:href="#ma13ffe0eba" x="249.987879" y="306.239576" style="fill: #ff0000; stroke: #ff0000"/>
     <use xlink:href="#ma13ffe0eba" x="252.993939" y="305.901332" style="fill: #ff0000; stroke: #ff0000"/>
     <use xlink:href="#ma13ffe0eba" x="256" y="305.504366" style="fill: #ff0000; stroke: #ff0000"/>
     <use xlink:href="#ma13ffe0eba" x="259.006061" y="305.048676" style="fill: #ff0000; stroke: #ff0000"/>
     <use xlink:href="#ma13ffe0eba" x="262.012121" y="304.534263" style="fill: #ff0000; stroke: #ff0000"/>
     <use xlink:href="#ma13ffe0eba" x="265.018183" y="303.961128" style="fill: #ff0000; stroke: #ff0000"/>
     <use xlink:href="#ma13ffe0eba" x="268.024241" y="303.329269" style="fill: #ff0000; stroke: #ff0000"/>
     <use xlink:href="#ma13ffe0eba" x="271.030303" y="302.638688" style="fill: #ff0000; stroke: #ff0000"/>
     <use xlink:href="#ma13ffe0eba" x="274.036364" y="301.889383" style="fill: #ff0000; stroke: #ff0000"/>
     <use xlink:href="#ma13ffe0eba" x="277.042423" y="301.081357" style="fill: #ff0000; stroke: #ff0000"/>
     <use xlink:href="#ma13ffe0eba" x="280.048485" y="300.214607" style="fill: #ff0000; stroke: #ff0000"/>
     <use xlink:href="#ma13ffe0eba" x="283.054546" y="299.289133" style="fill: #ff0000; stroke: #ff0000"/>
     <use xlink:href="#ma13ffe0eba" x="286.060608" y="298.304938" style="fill: #ff0000; stroke: #ff0000"/>
     <use xlink:href="#ma13ffe0eba" x="289.066669" y="297.262018" style="fill: #ff0000; stroke: #ff0000"/>
     <use xlink:href="#ma13ffe0eba" x="292.072725" y="296.160378" style="fill: #ff0000; stroke: #ff0000"/>
     <use xlink:href="#ma13ffe0eba" x="295.078787" y="295.000013" style="fill: #ff0000; stroke: #ff0000"/>
     <use xlink:href="#ma13ffe0eba" x="298.084848" y="293.780925" style="fill: #ff0000; stroke: #ff0000"/>
     <use xlink:href="#ma13ffe0eba" x="301.09091" y="292.503115" style="fill: #ff0000; stroke: #ff0000"/>
     <use xlink:href="#ma13ffe0eba" x="304.096971" y="291.166581" style="fill: #ff0000; stroke: #ff0000"/>
     <use xlink:href="#ma13ffe0eba" x="307.103033" y="289.771325" style="fill: #ff0000; stroke: #ff0000"/>
     <use xlink:href="#ma13ffe0eba" x="310.109089" y="288.317348" style="fill: #ff0000; stroke: #ff0000"/>
     <use xlink:href="#ma13ffe0eba" x="313.11515" y="286.804645" style="fill: #ff0000; stroke: #ff0000"/>
     <use xlink:href="#ma13ffe0eba" x="316.121212" y="285.233217" style="fill: #ff0000; stroke: #ff0000"/>
     <use xlink:href="#ma13ffe0eba" x="319.127273" y="283.603071" style="fill: #ff0000; stroke: #ff0000"/>
     <use xlink:href="#ma13ffe0eba" x="322.133335" y="281.914198" style="fill: #ff0000; stroke: #ff0000"/>
     <use xlink:href="#ma13ffe0eba" x="325.139396" y="280.166606" style="fill: #ff0000; stroke: #ff0000"/>
     <use xlink:href="#ma13ffe0eba" x="328.145452" y="278.360291" style="fill: #ff0000; stroke: #ff0000"/>
     <use xlink:href="#ma13ffe0eba" x="331.151513" y="276.495251" style="fill: #ff0000; stroke: #ff0000"/>
     <use xlink:href="#ma13ffe0eba" x="334.157581" y="274.571481" style="fill: #ff0000; stroke: #ff0000"/>
     <use xlink:href="#ma13ffe0eba" x="337.163631" y="272.589007" style="fill: #ff0000; stroke: #ff0000"/>
     <use xlink:href="#ma13ffe0eba" x="340.169692" y="270.547798" style="fill: #ff0000; stroke: #ff0000"/>
     <use xlink:href="#ma13ffe0eba" x="343.175754" y="268.447866" style="fill: #ff0000; stroke: #ff0000"/>
     <use xlink:href="#ma13ffe0eba" x="346.181815" y="266.289209" style="fill: #ff0000; stroke: #ff0000"/>
     <use xlink:href="#ma13ffe0eba" x="349.187877" y="264.071832" style="fill: #ff0000; stroke: #ff0000"/>
     <use xlink:href="#ma13ffe0eba" x="352.193938" y="261.795734" style="fill: #ff0000; stroke: #ff0000"/>
     <use xlink:href="#ma13ffe0eba" x="355.2" y="259.46091" style="fill: #ff0000; stroke: #ff0000"/>
    </g>
   </g>
   <g id="line2d_23">
    <path d="M 57.6 238.308265 
L 60.606062 239.789155 
L 63.612123 241.27005 
L 66.618185 242.75094 
L 69.624246 244.23184 
L 72.630308 245.712735 
L 75.636369 247.19363 
L 78.642419 248.67451 
L 81.648481 250.155405 
L 84.654542 251.6363 
L 87.660604 253.117191 
L 90.666665 254.598081 
L 93.672727 256.07898 
L 96.678788 257.559875 
L 99.68485 259.04077 
L 102.690911 260.52166 
L 105.696973 262.002551 
L 108.703035 263.483446 
L 111.709096 264.964336 
L 114.715146 266.445231 
L 117.721208 267.926126 
L 120.727269 269.407018 
L 123.733331 270.887911 
L 126.739392 272.368806 
L 129.745454 273.849698 
L 132.751515 275.330591 
L 135.757577 276.811486 
L 138.763638 278.292379 
L 141.769694 279.773264 
L 144.775756 281.254164 
L 147.781817 282.735059 
L 150.787879 284.215951 
L 153.79394 285.696844 
L 156.800002 287.177736 
L 159.806063 288.658631 
L 162.812119 290.136522 
L 165.818181 291.596391 
L 168.824242 293.056258 
L 171.830304 294.487375 
L 174.836365 295.772231 
L 177.842427 296.6097 
L 180.848483 297.394766 
L 183.854544 298.179832 
L 186.860606 298.964896 
L 189.866667 299.749964 
L 192.872726 300.535029 
L 195.878788 301.320095 
L 198.884849 302.105161 
L 201.890908 302.973119 
L 204.896969 303.985416 
L 207.903031 305.090697 
L 210.909092 305.798793 
L 213.915151 306.46146 
L 216.921212 307.102886 
L 219.927273 307.584 
L 222.933333 307.558828 
L 225.939394 307.501575 
L 228.945454 307.428205 
L 231.951515 307.27852 
L 234.957576 307.126752 
L 237.963636 306.823958 
L 240.969697 306.394661 
L 243.975758 305.909259 
L 246.981819 305.474356 
L 249.987879 305.073282 
L 252.993939 304.675039 
L 256 304.288751 
L 259.006061 303.910522 
L 262.012121 303.678805 
L 265.018183 303.734032 
L 268.024241 303.892007 
L 271.030303 303.757352 
L 274.036364 303.211601 
L 277.042423 302.514093 
L 280.048485 301.657502 
L 283.054546 300.389913 
L 286.060608 299.049675 
L 289.066669 297.709437 
L 292.072725 296.369199 
L 295.078787 295.028962 
L 298.084848 293.691025 
L 301.09091 292.353664 
L 304.096971 291.016302 
L 307.103033 289.678937 
L 310.109089 288.254044 
L 313.11515 286.720571 
L 316.121212 285.106104 
L 319.127273 283.455293 
L 322.133335 281.804489 
L 325.139396 280.153686 
L 328.145452 278.439822 
L 331.151513 276.589632 
L 334.157581 274.702608 
L 337.163631 272.707418 
L 340.169692 270.703464 
L 343.175754 268.56567 
L 346.181815 266.390674 
L 349.187877 264.166074 
L 352.193938 261.845007 
L 355.2 259.46091 
" clip-path="url(#pbcf4205fdf)" style="fill: none; stroke: #008000; stroke-width: 1.5; stroke-linecap: square"/>
   </g>
   <g id="patch_8">
    <path d="M 57.6 307.584 
L 57.6 201.1392 
" style="fill: none; stroke: #000000; stroke-width: 0.8; stroke-linejoin: miter; stroke-linecap: square"/>
   </g>
   <g id="patch_9">
    <path d="M 414.72 307.584 
L 414.72 201.1392 
" style="fill: none; stroke: #000000; stroke-width: 0.8; stroke-linejoin: miter; stroke-linecap: square"/>
   </g>
   <g id="patch_10">
    <path d="M 57.6 307.584 
L 414.72 307.584 
" style="fill: none; stroke: #000000; stroke-width: 0.8; stroke-linejoin: miter; stroke-linecap: square"/>
   </g>
   <g id="patch_11">
    <path d="M 57.6 201.1392 
L 414.72 201.1392 
" style="fill: none; stroke: #000000; stroke-width: 0.8; stroke-linejoin: miter; stroke-linecap: square"/>
   </g>
   <g id="text_26">
    <!-- Test Data and Predictions -->
    <g transform="translate(160.080938 195.1392) scale(0.12 -0.12)">
     <defs>
      <path id="DejaVuSans-65" d="M 3597 1894 
L 3597 1613 
L 953 1613 
Q 991 1019 1311 708 
Q 1631 397 2203 397 
Q 2534 397 2845 478 
Q 3156 559 3463 722 
L 3463 178 
Q 3153 47 2828 -22 
Q 2503 -91 2169 -91 
Q 1331 -91 842 396 
Q 353 884 353 1716 
Q 353 2575 817 3079 
Q 1281 3584 2069 3584 
Q 2775 3584 3186 3129 
Q 3597 2675 3597 1894 
z
M 3022 2063 
Q 3016 2534 2758 2815 
Q 2500 3097 2075 3097 
Q 1594 3097 1305 2825 
Q 1016 2553 972 2059 
L 3022 2063 
z
" transform="scale(0.015625)"/>
      <path id="DejaVuSans-73" d="M 2834 3397 
L 2834 2853 
Q 2591 2978 2328 3040 
Q 2066 3103 1784 3103 
Q 1356 3103 1142 2972 
Q 928 2841 928 2578 
Q 928 2378 1081 2264 
Q 1234 2150 1697 2047 
L 1894 2003 
Q 2506 1872 2764 1633 
Q 3022 1394 3022 966 
Q 3022 478 2636 193 
Q 2250 -91 1575 -91 
Q 1294 -91 989 -36 
Q 684 19 347 128 
L 347 722 
Q 666 556 975 473 
Q 1284 391 1588 391 
Q 1994 391 2212 530 
Q 2431 669 2431 922 
Q 2431 1156 2273 1281 
Q 2116 1406 1581 1522 
L 1381 1569 
Q 847 1681 609 1914 
Q 372 2147 372 2553 
Q 372 3047 722 3315 
Q 1072 3584 1716 3584 
Q 2034 3584 2315 3537 
Q 2597 3491 2834 3397 
z
" transform="scale(0.015625)"/>
      <path id="DejaVuSans-64" d="M 2906 2969 
L 2906 4863 
L 3481 4863 
L 3481 0 
L 2906 0 
L 2906 525 
Q 2725 213 2448 61 
Q 2172 -91 1784 -91 
Q 1150 -91 751 415 
Q 353 922 353 1747 
Q 353 2572 751 3078 
Q 1150 3584 1784 3584 
Q 2172 3584 2448 3432 
Q 2725 3281 2906 2969 
z
M 947 1747 
Q 947 1113 1208 752 
Q 1469 391 1925 391 
Q 2381 391 2643 752 
Q 2906 1113 2906 1747 
Q 2906 2381 2643 2742 
Q 2381 3103 1925 3103 
Q 1469 3103 1208 2742 
Q 947 2381 947 1747 
z
" transform="scale(0.015625)"/>
      <path id="DejaVuSans-50" d="M 1259 4147 
L 1259 2394 
L 2053 2394 
Q 2494 2394 2734 2622 
Q 2975 2850 2975 3272 
Q 2975 3691 2734 3919 
Q 2494 4147 2053 4147 
L 1259 4147 
z
M 628 4666 
L 2053 4666 
Q 2838 4666 3239 4311 
Q 3641 3956 3641 3272 
Q 3641 2581 3239 2228 
Q 2838 1875 2053 1875 
L 1259 1875 
L 1259 0 
L 628 0 
L 628 4666 
z
" transform="scale(0.015625)"/>
      <path id="DejaVuSans-63" d="M 3122 3366 
L 3122 2828 
Q 2878 2963 2633 3030 
Q 2388 3097 2138 3097 
Q 1578 3097 1268 2742 
Q 959 2388 959 1747 
Q 959 1106 1268 751 
Q 1578 397 2138 397 
Q 2388 397 2633 464 
Q 2878 531 3122 666 
L 3122 134 
Q 2881 22 2623 -34 
Q 2366 -91 2075 -91 
Q 1284 -91 818 406 
Q 353 903 353 1747 
Q 353 2603 823 3093 
Q 1294 3584 2113 3584 
Q 2378 3584 2631 3529 
Q 2884 3475 3122 3366 
z
" transform="scale(0.015625)"/>
      <path id="DejaVuSans-6f" d="M 1959 3097 
Q 1497 3097 1228 2736 
Q 959 2375 959 1747 
Q 959 1119 1226 758 
Q 1494 397 1959 397 
Q 2419 397 2687 759 
Q 2956 1122 2956 1747 
Q 2956 2369 2687 2733 
Q 2419 3097 1959 3097 
z
M 1959 3584 
Q 2709 3584 3137 3096 
Q 3566 2609 3566 1747 
Q 3566 888 3137 398 
Q 2709 -91 1959 -91 
Q 1206 -91 779 398 
Q 353 888 353 1747 
Q 353 2609 779 3096 
Q 1206 3584 1959 3584 
z
" transform="scale(0.015625)"/>
     </defs>
     <use xlink:href="#DejaVuSans-54"/>
     <use xlink:href="#DejaVuSans-65" x="44.083984"/>
     <use xlink:href="#DejaVuSans-73" x="105.607422"/>
     <use xlink:href="#DejaVuSans-74" x="157.707031"/>
     <use xlink:href="#DejaVuSans-20" x="196.916016"/>
     <use xlink:href="#DejaVuSans-44" x="228.703125"/>
     <use xlink:href="#DejaVuSans-61" x="305.705078"/>
     <use xlink:href="#DejaVuSans-74" x="366.984375"/>
     <use xlink:href="#DejaVuSans-61" x="406.193359"/>
     <use xlink:href="#DejaVuSans-20" x="467.472656"/>
     <use xlink:href="#DejaVuSans-61" x="499.259766"/>
     <use xlink:href="#DejaVuSans-6e" x="560.539062"/>
     <use xlink:href="#DejaVuSans-64" x="623.917969"/>
     <use xlink:href="#DejaVuSans-20" x="687.394531"/>
     <use xlink:href="#DejaVuSans-50" x="719.181641"/>
     <use xlink:href="#DejaVuSans-72" x="777.734375"/>
     <use xlink:href="#DejaVuSans-65" x="816.597656"/>
     <use xlink:href="#DejaVuSans-64" x="878.121094"/>
     <use xlink:href="#DejaVuSans-69" x="941.597656"/>
     <use xlink:href="#DejaVuSans-63" x="969.380859"/>
     <use xlink:href="#DejaVuSans-74" x="1024.361328"/>
     <use xlink:href="#DejaVuSans-69" x="1063.570312"/>
     <use xlink:href="#DejaVuSans-6f" x="1091.353516"/>
     <use xlink:href="#DejaVuSans-6e" x="1152.535156"/>
     <use xlink:href="#DejaVuSans-73" x="1215.914062"/>
    </g>
   </g>
   <g id="legend_1">
    <g id="patch_12">
     <path d="M 328.779375 238.49545 
L 407.72 238.49545 
Q 409.72 238.49545 409.72 236.49545 
L 409.72 208.1392 
Q 409.72 206.1392 407.72 206.1392 
L 328.779375 206.1392 
Q 326.779375 206.1392 326.779375 208.1392 
L 326.779375 236.49545 
Q 326.779375 238.49545 328.779375 238.49545 
z
" style="fill: #ffffff; opacity: 0.8; stroke: #cccccc; stroke-linejoin: miter"/>
    </g>
    <g id="line2d_24">
     <g>
      <use xlink:href="#ma13ffe0eba" x="340.779375" y="214.237637" style="fill: #ff0000; stroke: #ff0000"/>
     </g>
    </g>
    <g id="text_27">
     <!-- Test data -->
     <g transform="translate(358.779375 217.737637) scale(0.1 -0.1)">
      <use xlink:href="#DejaVuSans-54"/>
      <use xlink:href="#DejaVuSans-65" x="44.083984"/>
      <use xlink:href="#DejaVuSans-73" x="105.607422"/>
      <use xlink:href="#DejaVuSans-74" x="157.707031"/>
      <use xlink:href="#DejaVuSans-20" x="196.916016"/>
      <use xlink:href="#DejaVuSans-64" x="228.703125"/>
      <use xlink:href="#DejaVuSans-61" x="292.179688"/>
      <use xlink:href="#DejaVuSans-74" x="353.458984"/>
      <use xlink:href="#DejaVuSans-61" x="392.667969"/>
     </g>
    </g>
    <g id="line2d_25">
     <path d="M 330.779375 228.915762 
L 340.779375 228.915762 
L 350.779375 228.915762 
" style="fill: none; stroke: #008000; stroke-width: 1.5; stroke-linecap: square"/>
    </g>
    <g id="text_28">
     <!-- Predicted -->
     <g transform="translate(358.779375 232.415762) scale(0.1 -0.1)">
      <use xlink:href="#DejaVuSans-50"/>
      <use xlink:href="#DejaVuSans-72" x="58.552734"/>
      <use xlink:href="#DejaVuSans-65" x="97.416016"/>
      <use xlink:href="#DejaVuSans-64" x="158.939453"/>
      <use xlink:href="#DejaVuSans-69" x="222.416016"/>
      <use xlink:href="#DejaVuSans-63" x="250.199219"/>
      <use xlink:href="#DejaVuSans-74" x="305.179688"/>
      <use xlink:href="#DejaVuSans-65" x="344.388672"/>
      <use xlink:href="#DejaVuSans-64" x="405.912109"/>
     </g>
    </g>
   </g>
  </g>
 </g>
 <defs>
  <clipPath id="p55908a5edc">
   <rect x="57.6" y="41.472" width="357.12" height="106.4448"/>
  </clipPath>
  <clipPath id="pbcf4205fdf">
   <rect x="57.6" y="201.1392" width="357.12" height="106.4448"/>
  </clipPath>
 </defs>
</svg>
