<?xml version="1.0" encoding="utf-8" standalone="no"?>
<!DOCTYPE svg PUBLIC "-//W3C//DTD SVG 1.1//EN"
  "http://www.w3.org/Graphics/SVG/1.1/DTD/svg11.dtd">
<svg xmlns:xlink="http://www.w3.org/1999/xlink" width="460.8pt" height="345.6pt" viewBox="0 0 460.8 345.6" xmlns="http://www.w3.org/2000/svg" version="1.1">
 <metadata>
  <rdf:RDF xmlns:dc="http://purl.org/dc/elements/1.1/" xmlns:cc="http://creativecommons.org/ns#" xmlns:rdf="http://www.w3.org/1999/02/22-rdf-syntax-ns#">
   <cc:Work>
    <dc:type rdf:resource="http://purl.org/dc/dcmitype/StillImage"/>
    <dc:date>2023-10-12T11:58:21.462687</dc:date>
    <dc:format>image/svg+xml</dc:format>
    <dc:creator>
     <cc:Agent>
      <dc:title>Matplotlib v3.7.2, https://matplotlib.org/</dc:title>
     </cc:Agent>
    </dc:creator>
   </cc:Work>
  </rdf:RDF>
 </metadata>
 <defs>
  <style type="text/css">*{stroke-linejoin: round; stroke-linecap: butt}</style>
 </defs>
 <g id="figure_1">
  <g id="patch_1">
   <path d="M 0 345.6 
L 460.8 345.6 
L 460.8 0 
L 0 0 
z
" style="fill: #ffffff"/>
  </g>
  <g id="axes_1">
   <g id="patch_2">
    <path d="M 57.6 307.584 
L 414.72 307.584 
L 414.72 41.472 
L 57.6 41.472 
z
" style="fill: #ffffff"/>
   </g>
   <g id="matplotlib.axis_1">
    <g id="xtick_1">
     <g id="line2d_1">
      <defs>
       <path id="ma38153ce6f" d="M 0 0 
L 0 3.5 
" style="stroke: #000000; stroke-width: 0.8"/>
      </defs>
      <g>
       <use xlink:href="#ma38153ce6f" x="73.832727" y="307.584" style="stroke: #000000; stroke-width: 0.8"/>
      </g>
     </g>
     <g id="text_1">
      <!-- 0 -->
      <g transform="translate(70.651477 322.182437) scale(0.1 -0.1)">
       <defs>
        <path id="DejaVuSans-30" d="M 2034 4250 
Q 1547 4250 1301 3770 
Q 1056 3291 1056 2328 
Q 1056 1369 1301 889 
Q 1547 409 2034 409 
Q 2525 409 2770 889 
Q 3016 1369 3016 2328 
Q 3016 3291 2770 3770 
Q 2525 4250 2034 4250 
z
M 2034 4750 
Q 2819 4750 3233 4129 
Q 3647 3509 3647 2328 
Q 3647 1150 3233 529 
Q 2819 -91 2034 -91 
Q 1250 -91 836 529 
Q 422 1150 422 2328 
Q 422 3509 836 4129 
Q 1250 4750 2034 4750 
z
" transform="scale(0.015625)"/>
       </defs>
       <use xlink:href="#DejaVuSans-30"/>
      </g>
     </g>
    </g>
    <g id="xtick_2">
     <g id="line2d_2">
      <g>
       <use xlink:href="#ma38153ce6f" x="138.776625" y="307.584" style="stroke: #000000; stroke-width: 0.8"/>
      </g>
     </g>
     <g id="text_2">
      <!-- 1000 -->
      <g transform="translate(126.051625 322.182437) scale(0.1 -0.1)">
       <defs>
        <path id="DejaVuSans-31" d="M 794 531 
L 1825 531 
L 1825 4091 
L 703 3866 
L 703 4441 
L 1819 4666 
L 2450 4666 
L 2450 531 
L 3481 531 
L 3481 0 
L 794 0 
L 794 531 
z
" transform="scale(0.015625)"/>
       </defs>
       <use xlink:href="#DejaVuSans-31"/>
       <use xlink:href="#DejaVuSans-30" x="63.623047"/>
       <use xlink:href="#DejaVuSans-30" x="127.246094"/>
       <use xlink:href="#DejaVuSans-30" x="190.869141"/>
      </g>
     </g>
    </g>
    <g id="xtick_3">
     <g id="line2d_3">
      <g>
       <use xlink:href="#ma38153ce6f" x="203.720523" y="307.584" style="stroke: #000000; stroke-width: 0.8"/>
      </g>
     </g>
     <g id="text_3">
      <!-- 2000 -->
      <g transform="translate(190.995523 322.182437) scale(0.1 -0.1)">
       <defs>
        <path id="DejaVuSans-32" d="M 1228 531 
L 3431 531 
L 3431 0 
L 469 0 
L 469 531 
Q 828 903 1448 1529 
Q 2069 2156 2228 2338 
Q 2531 2678 2651 2914 
Q 2772 3150 2772 3378 
Q 2772 3750 2511 3984 
Q 2250 4219 1831 4219 
Q 1534 4219 1204 4116 
Q 875 4013 500 3803 
L 500 4441 
Q 881 4594 1212 4672 
Q 1544 4750 1819 4750 
Q 2544 4750 2975 4387 
Q 3406 4025 3406 3419 
Q 3406 3131 3298 2873 
Q 3191 2616 2906 2266 
Q 2828 2175 2409 1742 
Q 1991 1309 1228 531 
z
" transform="scale(0.015625)"/>
       </defs>
       <use xlink:href="#DejaVuSans-32"/>
       <use xlink:href="#DejaVuSans-30" x="63.623047"/>
       <use xlink:href="#DejaVuSans-30" x="127.246094"/>
       <use xlink:href="#DejaVuSans-30" x="190.869141"/>
      </g>
     </g>
    </g>
    <g id="xtick_4">
     <g id="line2d_4">
      <g>
       <use xlink:href="#ma38153ce6f" x="268.664421" y="307.584" style="stroke: #000000; stroke-width: 0.8"/>
      </g>
     </g>
     <g id="text_4">
      <!-- 3000 -->
      <g transform="translate(255.939421 322.182437) scale(0.1 -0.1)">
       <defs>
        <path id="DejaVuSans-33" d="M 2597 2516 
Q 3050 2419 3304 2112 
Q 3559 1806 3559 1356 
Q 3559 666 3084 287 
Q 2609 -91 1734 -91 
Q 1441 -91 1130 -33 
Q 819 25 488 141 
L 488 750 
Q 750 597 1062 519 
Q 1375 441 1716 441 
Q 2309 441 2620 675 
Q 2931 909 2931 1356 
Q 2931 1769 2642 2001 
Q 2353 2234 1838 2234 
L 1294 2234 
L 1294 2753 
L 1863 2753 
Q 2328 2753 2575 2939 
Q 2822 3125 2822 3475 
Q 2822 3834 2567 4026 
Q 2313 4219 1838 4219 
Q 1578 4219 1281 4162 
Q 984 4106 628 3988 
L 628 4550 
Q 988 4650 1302 4700 
Q 1616 4750 1894 4750 
Q 2613 4750 3031 4423 
Q 3450 4097 3450 3541 
Q 3450 3153 3228 2886 
Q 3006 2619 2597 2516 
z
" transform="scale(0.015625)"/>
       </defs>
       <use xlink:href="#DejaVuSans-33"/>
       <use xlink:href="#DejaVuSans-30" x="63.623047"/>
       <use xlink:href="#DejaVuSans-30" x="127.246094"/>
       <use xlink:href="#DejaVuSans-30" x="190.869141"/>
      </g>
     </g>
    </g>
    <g id="xtick_5">
     <g id="line2d_5">
      <g>
       <use xlink:href="#ma38153ce6f" x="333.608319" y="307.584" style="stroke: #000000; stroke-width: 0.8"/>
      </g>
     </g>
     <g id="text_5">
      <!-- 4000 -->
      <g transform="translate(320.883319 322.182437) scale(0.1 -0.1)">
       <defs>
        <path id="DejaVuSans-34" d="M 2419 4116 
L 825 1625 
L 2419 1625 
L 2419 4116 
z
M 2253 4666 
L 3047 4666 
L 3047 1625 
L 3713 1625 
L 3713 1100 
L 3047 1100 
L 3047 0 
L 2419 0 
L 2419 1100 
L 313 1100 
L 313 1709 
L 2253 4666 
z
" transform="scale(0.015625)"/>
       </defs>
       <use xlink:href="#DejaVuSans-34"/>
       <use xlink:href="#DejaVuSans-30" x="63.623047"/>
       <use xlink:href="#DejaVuSans-30" x="127.246094"/>
       <use xlink:href="#DejaVuSans-30" x="190.869141"/>
      </g>
     </g>
    </g>
    <g id="xtick_6">
     <g id="line2d_6">
      <g>
       <use xlink:href="#ma38153ce6f" x="398.552217" y="307.584" style="stroke: #000000; stroke-width: 0.8"/>
      </g>
     </g>
     <g id="text_6">
      <!-- 5000 -->
      <g transform="translate(385.827217 322.182437) scale(0.1 -0.1)">
       <defs>
        <path id="DejaVuSans-35" d="M 691 4666 
L 3169 4666 
L 3169 4134 
L 1269 4134 
L 1269 2991 
Q 1406 3038 1543 3061 
Q 1681 3084 1819 3084 
Q 2600 3084 3056 2656 
Q 3513 2228 3513 1497 
Q 3513 744 3044 326 
Q 2575 -91 1722 -91 
Q 1428 -91 1123 -41 
Q 819 9 494 109 
L 494 744 
Q 775 591 1075 516 
Q 1375 441 1709 441 
Q 2250 441 2565 725 
Q 2881 1009 2881 1497 
Q 2881 1984 2565 2268 
Q 2250 2553 1709 2553 
Q 1456 2553 1204 2497 
Q 953 2441 691 2322 
L 691 4666 
z
" transform="scale(0.015625)"/>
       </defs>
       <use xlink:href="#DejaVuSans-35"/>
       <use xlink:href="#DejaVuSans-30" x="63.623047"/>
       <use xlink:href="#DejaVuSans-30" x="127.246094"/>
       <use xlink:href="#DejaVuSans-30" x="190.869141"/>
      </g>
     </g>
    </g>
    <g id="text_7">
     <!-- Epoch -->
     <g transform="translate(220.849063 335.860562) scale(0.1 -0.1)">
      <defs>
       <path id="DejaVuSans-45" d="M 628 4666 
L 3578 4666 
L 3578 4134 
L 1259 4134 
L 1259 2753 
L 3481 2753 
L 3481 2222 
L 1259 2222 
L 1259 531 
L 3634 531 
L 3634 0 
L 628 0 
L 628 4666 
z
" transform="scale(0.015625)"/>
       <path id="DejaVuSans-70" d="M 1159 525 
L 1159 -1331 
L 581 -1331 
L 581 3500 
L 1159 3500 
L 1159 2969 
Q 1341 3281 1617 3432 
Q 1894 3584 2278 3584 
Q 2916 3584 3314 3078 
Q 3713 2572 3713 1747 
Q 3713 922 3314 415 
Q 2916 -91 2278 -91 
Q 1894 -91 1617 61 
Q 1341 213 1159 525 
z
M 3116 1747 
Q 3116 2381 2855 2742 
Q 2594 3103 2138 3103 
Q 1681 3103 1420 2742 
Q 1159 2381 1159 1747 
Q 1159 1113 1420 752 
Q 1681 391 2138 391 
Q 2594 391 2855 752 
Q 3116 1113 3116 1747 
z
" transform="scale(0.015625)"/>
       <path id="DejaVuSans-6f" d="M 1959 3097 
Q 1497 3097 1228 2736 
Q 959 2375 959 1747 
Q 959 1119 1226 758 
Q 1494 397 1959 397 
Q 2419 397 2687 759 
Q 2956 1122 2956 1747 
Q 2956 2369 2687 2733 
Q 2419 3097 1959 3097 
z
M 1959 3584 
Q 2709 3584 3137 3096 
Q 3566 2609 3566 1747 
Q 3566 888 3137 398 
Q 2709 -91 1959 -91 
Q 1206 -91 779 398 
Q 353 888 353 1747 
Q 353 2609 779 3096 
Q 1206 3584 1959 3584 
z
" transform="scale(0.015625)"/>
       <path id="DejaVuSans-63" d="M 3122 3366 
L 3122 2828 
Q 2878 2963 2633 3030 
Q 2388 3097 2138 3097 
Q 1578 3097 1268 2742 
Q 959 2388 959 1747 
Q 959 1106 1268 751 
Q 1578 397 2138 397 
Q 2388 397 2633 464 
Q 2878 531 3122 666 
L 3122 134 
Q 2881 22 2623 -34 
Q 2366 -91 2075 -91 
Q 1284 -91 818 406 
Q 353 903 353 1747 
Q 353 2603 823 3093 
Q 1294 3584 2113 3584 
Q 2378 3584 2631 3529 
Q 2884 3475 3122 3366 
z
" transform="scale(0.015625)"/>
       <path id="DejaVuSans-68" d="M 3513 2113 
L 3513 0 
L 2938 0 
L 2938 2094 
Q 2938 2591 2744 2837 
Q 2550 3084 2163 3084 
Q 1697 3084 1428 2787 
Q 1159 2491 1159 1978 
L 1159 0 
L 581 0 
L 581 4863 
L 1159 4863 
L 1159 2956 
Q 1366 3272 1645 3428 
Q 1925 3584 2291 3584 
Q 2894 3584 3203 3211 
Q 3513 2838 3513 2113 
z
" transform="scale(0.015625)"/>
      </defs>
      <use xlink:href="#DejaVuSans-45"/>
      <use xlink:href="#DejaVuSans-70" x="63.183594"/>
      <use xlink:href="#DejaVuSans-6f" x="126.660156"/>
      <use xlink:href="#DejaVuSans-63" x="187.841797"/>
      <use xlink:href="#DejaVuSans-68" x="242.822266"/>
     </g>
    </g>
   </g>
   <g id="matplotlib.axis_2">
    <g id="ytick_1">
     <g id="line2d_7">
      <defs>
       <path id="m03cca40a25" d="M 0 0 
L -3.5 0 
" style="stroke: #000000; stroke-width: 0.8"/>
      </defs>
      <g>
       <use xlink:href="#m03cca40a25" x="57.6" y="306.523355" style="stroke: #000000; stroke-width: 0.8"/>
      </g>
     </g>
     <g id="text_8">
      <!-- $\mathdefault{10^{0}}$ -->
      <g transform="translate(33 310.322574) scale(0.1 -0.1)">
       <use xlink:href="#DejaVuSans-31" transform="translate(0 0.765625)"/>
       <use xlink:href="#DejaVuSans-30" transform="translate(63.623047 0.765625)"/>
       <use xlink:href="#DejaVuSans-30" transform="translate(128.203125 39.046875) scale(0.7)"/>
      </g>
     </g>
    </g>
    <g id="ytick_2">
     <g id="line2d_8">
      <g>
       <use xlink:href="#m03cca40a25" x="57.6" y="269.767066" style="stroke: #000000; stroke-width: 0.8"/>
      </g>
     </g>
     <g id="text_9">
      <!-- $\mathdefault{10^{1}}$ -->
      <g transform="translate(33 273.566285) scale(0.1 -0.1)">
       <use xlink:href="#DejaVuSans-31" transform="translate(0 0.684375)"/>
       <use xlink:href="#DejaVuSans-30" transform="translate(63.623047 0.684375)"/>
       <use xlink:href="#DejaVuSans-31" transform="translate(128.203125 38.965625) scale(0.7)"/>
      </g>
     </g>
    </g>
    <g id="ytick_3">
     <g id="line2d_9">
      <g>
       <use xlink:href="#m03cca40a25" x="57.6" y="233.010777" style="stroke: #000000; stroke-width: 0.8"/>
      </g>
     </g>
     <g id="text_10">
      <!-- $\mathdefault{10^{2}}$ -->
      <g transform="translate(33 236.809996) scale(0.1 -0.1)">
       <use xlink:href="#DejaVuSans-31" transform="translate(0 0.765625)"/>
       <use xlink:href="#DejaVuSans-30" transform="translate(63.623047 0.765625)"/>
       <use xlink:href="#DejaVuSans-32" transform="translate(128.203125 39.046875) scale(0.7)"/>
      </g>
     </g>
    </g>
    <g id="ytick_4">
     <g id="line2d_10">
      <g>
       <use xlink:href="#m03cca40a25" x="57.6" y="196.254489" style="stroke: #000000; stroke-width: 0.8"/>
      </g>
     </g>
     <g id="text_11">
      <!-- $\mathdefault{10^{3}}$ -->
      <g transform="translate(33 200.053707) scale(0.1 -0.1)">
       <use xlink:href="#DejaVuSans-31" transform="translate(0 0.765625)"/>
       <use xlink:href="#DejaVuSans-30" transform="translate(63.623047 0.765625)"/>
       <use xlink:href="#DejaVuSans-33" transform="translate(128.203125 39.046875) scale(0.7)"/>
      </g>
     </g>
    </g>
    <g id="ytick_5">
     <g id="line2d_11">
      <g>
       <use xlink:href="#m03cca40a25" x="57.6" y="159.4982" style="stroke: #000000; stroke-width: 0.8"/>
      </g>
     </g>
     <g id="text_12">
      <!-- $\mathdefault{10^{4}}$ -->
      <g transform="translate(33 163.297418) scale(0.1 -0.1)">
       <use xlink:href="#DejaVuSans-31" transform="translate(0 0.684375)"/>
       <use xlink:href="#DejaVuSans-30" transform="translate(63.623047 0.684375)"/>
       <use xlink:href="#DejaVuSans-34" transform="translate(128.203125 38.965625) scale(0.7)"/>
      </g>
     </g>
    </g>
    <g id="ytick_6">
     <g id="line2d_12">
      <g>
       <use xlink:href="#m03cca40a25" x="57.6" y="122.741911" style="stroke: #000000; stroke-width: 0.8"/>
      </g>
     </g>
     <g id="text_13">
      <!-- $\mathdefault{10^{5}}$ -->
      <g transform="translate(33 126.54113) scale(0.1 -0.1)">
       <use xlink:href="#DejaVuSans-31" transform="translate(0 0.684375)"/>
       <use xlink:href="#DejaVuSans-30" transform="translate(63.623047 0.684375)"/>
       <use xlink:href="#DejaVuSans-35" transform="translate(128.203125 38.965625) scale(0.7)"/>
      </g>
     </g>
    </g>
    <g id="ytick_7">
     <g id="line2d_13">
      <g>
       <use xlink:href="#m03cca40a25" x="57.6" y="85.985622" style="stroke: #000000; stroke-width: 0.8"/>
      </g>
     </g>
     <g id="text_14">
      <!-- $\mathdefault{10^{6}}$ -->
      <g transform="translate(33 89.784841) scale(0.1 -0.1)">
       <defs>
        <path id="DejaVuSans-36" d="M 2113 2584 
Q 1688 2584 1439 2293 
Q 1191 2003 1191 1497 
Q 1191 994 1439 701 
Q 1688 409 2113 409 
Q 2538 409 2786 701 
Q 3034 994 3034 1497 
Q 3034 2003 2786 2293 
Q 2538 2584 2113 2584 
z
M 3366 4563 
L 3366 3988 
Q 3128 4100 2886 4159 
Q 2644 4219 2406 4219 
Q 1781 4219 1451 3797 
Q 1122 3375 1075 2522 
Q 1259 2794 1537 2939 
Q 1816 3084 2150 3084 
Q 2853 3084 3261 2657 
Q 3669 2231 3669 1497 
Q 3669 778 3244 343 
Q 2819 -91 2113 -91 
Q 1303 -91 875 529 
Q 447 1150 447 2328 
Q 447 3434 972 4092 
Q 1497 4750 2381 4750 
Q 2619 4750 2861 4703 
Q 3103 4656 3366 4563 
z
" transform="scale(0.015625)"/>
       </defs>
       <use xlink:href="#DejaVuSans-31" transform="translate(0 0.765625)"/>
       <use xlink:href="#DejaVuSans-30" transform="translate(63.623047 0.765625)"/>
       <use xlink:href="#DejaVuSans-36" transform="translate(128.203125 39.046875) scale(0.7)"/>
      </g>
     </g>
    </g>
    <g id="ytick_8">
     <g id="line2d_14">
      <g>
       <use xlink:href="#m03cca40a25" x="57.6" y="49.229333" style="stroke: #000000; stroke-width: 0.8"/>
      </g>
     </g>
     <g id="text_15">
      <!-- $\mathdefault{10^{7}}$ -->
      <g transform="translate(33 53.028552) scale(0.1 -0.1)">
       <defs>
        <path id="DejaVuSans-37" d="M 525 4666 
L 3525 4666 
L 3525 4397 
L 1831 0 
L 1172 0 
L 2766 4134 
L 525 4134 
L 525 4666 
z
" transform="scale(0.015625)"/>
       </defs>
       <use xlink:href="#DejaVuSans-31" transform="translate(0 0.684375)"/>
       <use xlink:href="#DejaVuSans-30" transform="translate(63.623047 0.684375)"/>
       <use xlink:href="#DejaVuSans-37" transform="translate(128.203125 38.965625) scale(0.7)"/>
      </g>
     </g>
    </g>
    <g id="ytick_9">
     <g id="line2d_15">
      <defs>
       <path id="mf0b75e4077" d="M 0 0 
L -2 0 
" style="stroke: #000000; stroke-width: 0.6"/>
      </defs>
      <g>
       <use xlink:href="#mf0b75e4077" x="57.6" y="295.45861" style="stroke: #000000; stroke-width: 0.6"/>
      </g>
     </g>
    </g>
    <g id="ytick_10">
     <g id="line2d_16">
      <g>
       <use xlink:href="#mf0b75e4077" x="57.6" y="288.986148" style="stroke: #000000; stroke-width: 0.6"/>
      </g>
     </g>
    </g>
    <g id="ytick_11">
     <g id="line2d_17">
      <g>
       <use xlink:href="#mf0b75e4077" x="57.6" y="284.393864" style="stroke: #000000; stroke-width: 0.6"/>
      </g>
     </g>
    </g>
    <g id="ytick_12">
     <g id="line2d_18">
      <g>
       <use xlink:href="#mf0b75e4077" x="57.6" y="280.831812" style="stroke: #000000; stroke-width: 0.6"/>
      </g>
     </g>
    </g>
    <g id="ytick_13">
     <g id="line2d_19">
      <g>
       <use xlink:href="#mf0b75e4077" x="57.6" y="277.921403" style="stroke: #000000; stroke-width: 0.6"/>
      </g>
     </g>
    </g>
    <g id="ytick_14">
     <g id="line2d_20">
      <g>
       <use xlink:href="#mf0b75e4077" x="57.6" y="275.460687" style="stroke: #000000; stroke-width: 0.6"/>
      </g>
     </g>
    </g>
    <g id="ytick_15">
     <g id="line2d_21">
      <g>
       <use xlink:href="#mf0b75e4077" x="57.6" y="273.329119" style="stroke: #000000; stroke-width: 0.6"/>
      </g>
     </g>
    </g>
    <g id="ytick_16">
     <g id="line2d_22">
      <g>
       <use xlink:href="#mf0b75e4077" x="57.6" y="271.448942" style="stroke: #000000; stroke-width: 0.6"/>
      </g>
     </g>
    </g>
    <g id="ytick_17">
     <g id="line2d_23">
      <g>
       <use xlink:href="#mf0b75e4077" x="57.6" y="258.702321" style="stroke: #000000; stroke-width: 0.6"/>
      </g>
     </g>
    </g>
    <g id="ytick_18">
     <g id="line2d_24">
      <g>
       <use xlink:href="#mf0b75e4077" x="57.6" y="252.22986" style="stroke: #000000; stroke-width: 0.6"/>
      </g>
     </g>
    </g>
    <g id="ytick_19">
     <g id="line2d_25">
      <g>
       <use xlink:href="#mf0b75e4077" x="57.6" y="247.637575" style="stroke: #000000; stroke-width: 0.6"/>
      </g>
     </g>
    </g>
    <g id="ytick_20">
     <g id="line2d_26">
      <g>
       <use xlink:href="#mf0b75e4077" x="57.6" y="244.075523" style="stroke: #000000; stroke-width: 0.6"/>
      </g>
     </g>
    </g>
    <g id="ytick_21">
     <g id="line2d_27">
      <g>
       <use xlink:href="#mf0b75e4077" x="57.6" y="241.165114" style="stroke: #000000; stroke-width: 0.6"/>
      </g>
     </g>
    </g>
    <g id="ytick_22">
     <g id="line2d_28">
      <g>
       <use xlink:href="#mf0b75e4077" x="57.6" y="238.704399" style="stroke: #000000; stroke-width: 0.6"/>
      </g>
     </g>
    </g>
    <g id="ytick_23">
     <g id="line2d_29">
      <g>
       <use xlink:href="#mf0b75e4077" x="57.6" y="236.57283" style="stroke: #000000; stroke-width: 0.6"/>
      </g>
     </g>
    </g>
    <g id="ytick_24">
     <g id="line2d_30">
      <g>
       <use xlink:href="#mf0b75e4077" x="57.6" y="234.692653" style="stroke: #000000; stroke-width: 0.6"/>
      </g>
     </g>
    </g>
    <g id="ytick_25">
     <g id="line2d_31">
      <g>
       <use xlink:href="#mf0b75e4077" x="57.6" y="221.946032" style="stroke: #000000; stroke-width: 0.6"/>
      </g>
     </g>
    </g>
    <g id="ytick_26">
     <g id="line2d_32">
      <g>
       <use xlink:href="#mf0b75e4077" x="57.6" y="215.473571" style="stroke: #000000; stroke-width: 0.6"/>
      </g>
     </g>
    </g>
    <g id="ytick_27">
     <g id="line2d_33">
      <g>
       <use xlink:href="#mf0b75e4077" x="57.6" y="210.881286" style="stroke: #000000; stroke-width: 0.6"/>
      </g>
     </g>
    </g>
    <g id="ytick_28">
     <g id="line2d_34">
      <g>
       <use xlink:href="#mf0b75e4077" x="57.6" y="207.319234" style="stroke: #000000; stroke-width: 0.6"/>
      </g>
     </g>
    </g>
    <g id="ytick_29">
     <g id="line2d_35">
      <g>
       <use xlink:href="#mf0b75e4077" x="57.6" y="204.408825" style="stroke: #000000; stroke-width: 0.6"/>
      </g>
     </g>
    </g>
    <g id="ytick_30">
     <g id="line2d_36">
      <g>
       <use xlink:href="#mf0b75e4077" x="57.6" y="201.94811" style="stroke: #000000; stroke-width: 0.6"/>
      </g>
     </g>
    </g>
    <g id="ytick_31">
     <g id="line2d_37">
      <g>
       <use xlink:href="#mf0b75e4077" x="57.6" y="199.816541" style="stroke: #000000; stroke-width: 0.6"/>
      </g>
     </g>
    </g>
    <g id="ytick_32">
     <g id="line2d_38">
      <g>
       <use xlink:href="#mf0b75e4077" x="57.6" y="197.936364" style="stroke: #000000; stroke-width: 0.6"/>
      </g>
     </g>
    </g>
    <g id="ytick_33">
     <g id="line2d_39">
      <g>
       <use xlink:href="#mf0b75e4077" x="57.6" y="185.189743" style="stroke: #000000; stroke-width: 0.6"/>
      </g>
     </g>
    </g>
    <g id="ytick_34">
     <g id="line2d_40">
      <g>
       <use xlink:href="#mf0b75e4077" x="57.6" y="178.717282" style="stroke: #000000; stroke-width: 0.6"/>
      </g>
     </g>
    </g>
    <g id="ytick_35">
     <g id="line2d_41">
      <g>
       <use xlink:href="#mf0b75e4077" x="57.6" y="174.124998" style="stroke: #000000; stroke-width: 0.6"/>
      </g>
     </g>
    </g>
    <g id="ytick_36">
     <g id="line2d_42">
      <g>
       <use xlink:href="#mf0b75e4077" x="57.6" y="170.562945" style="stroke: #000000; stroke-width: 0.6"/>
      </g>
     </g>
    </g>
    <g id="ytick_37">
     <g id="line2d_43">
      <g>
       <use xlink:href="#mf0b75e4077" x="57.6" y="167.652536" style="stroke: #000000; stroke-width: 0.6"/>
      </g>
     </g>
    </g>
    <g id="ytick_38">
     <g id="line2d_44">
      <g>
       <use xlink:href="#mf0b75e4077" x="57.6" y="165.191821" style="stroke: #000000; stroke-width: 0.6"/>
      </g>
     </g>
    </g>
    <g id="ytick_39">
     <g id="line2d_45">
      <g>
       <use xlink:href="#mf0b75e4077" x="57.6" y="163.060252" style="stroke: #000000; stroke-width: 0.6"/>
      </g>
     </g>
    </g>
    <g id="ytick_40">
     <g id="line2d_46">
      <g>
       <use xlink:href="#mf0b75e4077" x="57.6" y="161.180075" style="stroke: #000000; stroke-width: 0.6"/>
      </g>
     </g>
    </g>
    <g id="ytick_41">
     <g id="line2d_47">
      <g>
       <use xlink:href="#mf0b75e4077" x="57.6" y="148.433454" style="stroke: #000000; stroke-width: 0.6"/>
      </g>
     </g>
    </g>
    <g id="ytick_42">
     <g id="line2d_48">
      <g>
       <use xlink:href="#mf0b75e4077" x="57.6" y="141.960993" style="stroke: #000000; stroke-width: 0.6"/>
      </g>
     </g>
    </g>
    <g id="ytick_43">
     <g id="line2d_49">
      <g>
       <use xlink:href="#mf0b75e4077" x="57.6" y="137.368709" style="stroke: #000000; stroke-width: 0.6"/>
      </g>
     </g>
    </g>
    <g id="ytick_44">
     <g id="line2d_50">
      <g>
       <use xlink:href="#mf0b75e4077" x="57.6" y="133.806656" style="stroke: #000000; stroke-width: 0.6"/>
      </g>
     </g>
    </g>
    <g id="ytick_45">
     <g id="line2d_51">
      <g>
       <use xlink:href="#mf0b75e4077" x="57.6" y="130.896248" style="stroke: #000000; stroke-width: 0.6"/>
      </g>
     </g>
    </g>
    <g id="ytick_46">
     <g id="line2d_52">
      <g>
       <use xlink:href="#mf0b75e4077" x="57.6" y="128.435532" style="stroke: #000000; stroke-width: 0.6"/>
      </g>
     </g>
    </g>
    <g id="ytick_47">
     <g id="line2d_53">
      <g>
       <use xlink:href="#mf0b75e4077" x="57.6" y="126.303963" style="stroke: #000000; stroke-width: 0.6"/>
      </g>
     </g>
    </g>
    <g id="ytick_48">
     <g id="line2d_54">
      <g>
       <use xlink:href="#mf0b75e4077" x="57.6" y="124.423786" style="stroke: #000000; stroke-width: 0.6"/>
      </g>
     </g>
    </g>
    <g id="ytick_49">
     <g id="line2d_55">
      <g>
       <use xlink:href="#mf0b75e4077" x="57.6" y="111.677165" style="stroke: #000000; stroke-width: 0.6"/>
      </g>
     </g>
    </g>
    <g id="ytick_50">
     <g id="line2d_56">
      <g>
       <use xlink:href="#mf0b75e4077" x="57.6" y="105.204704" style="stroke: #000000; stroke-width: 0.6"/>
      </g>
     </g>
    </g>
    <g id="ytick_51">
     <g id="line2d_57">
      <g>
       <use xlink:href="#mf0b75e4077" x="57.6" y="100.61242" style="stroke: #000000; stroke-width: 0.6"/>
      </g>
     </g>
    </g>
    <g id="ytick_52">
     <g id="line2d_58">
      <g>
       <use xlink:href="#mf0b75e4077" x="57.6" y="97.050368" style="stroke: #000000; stroke-width: 0.6"/>
      </g>
     </g>
    </g>
    <g id="ytick_53">
     <g id="line2d_59">
      <g>
       <use xlink:href="#mf0b75e4077" x="57.6" y="94.139959" style="stroke: #000000; stroke-width: 0.6"/>
      </g>
     </g>
    </g>
    <g id="ytick_54">
     <g id="line2d_60">
      <g>
       <use xlink:href="#mf0b75e4077" x="57.6" y="91.679243" style="stroke: #000000; stroke-width: 0.6"/>
      </g>
     </g>
    </g>
    <g id="ytick_55">
     <g id="line2d_61">
      <g>
       <use xlink:href="#mf0b75e4077" x="57.6" y="89.547675" style="stroke: #000000; stroke-width: 0.6"/>
      </g>
     </g>
    </g>
    <g id="ytick_56">
     <g id="line2d_62">
      <g>
       <use xlink:href="#mf0b75e4077" x="57.6" y="87.667498" style="stroke: #000000; stroke-width: 0.6"/>
      </g>
     </g>
    </g>
    <g id="ytick_57">
     <g id="line2d_63">
      <g>
       <use xlink:href="#mf0b75e4077" x="57.6" y="74.920877" style="stroke: #000000; stroke-width: 0.6"/>
      </g>
     </g>
    </g>
    <g id="ytick_58">
     <g id="line2d_64">
      <g>
       <use xlink:href="#mf0b75e4077" x="57.6" y="68.448415" style="stroke: #000000; stroke-width: 0.6"/>
      </g>
     </g>
    </g>
    <g id="ytick_59">
     <g id="line2d_65">
      <g>
       <use xlink:href="#mf0b75e4077" x="57.6" y="63.856131" style="stroke: #000000; stroke-width: 0.6"/>
      </g>
     </g>
    </g>
    <g id="ytick_60">
     <g id="line2d_66">
      <g>
       <use xlink:href="#mf0b75e4077" x="57.6" y="60.294079" style="stroke: #000000; stroke-width: 0.6"/>
      </g>
     </g>
    </g>
    <g id="ytick_61">
     <g id="line2d_67">
      <g>
       <use xlink:href="#mf0b75e4077" x="57.6" y="57.38367" style="stroke: #000000; stroke-width: 0.6"/>
      </g>
     </g>
    </g>
    <g id="ytick_62">
     <g id="line2d_68">
      <g>
       <use xlink:href="#mf0b75e4077" x="57.6" y="54.922954" style="stroke: #000000; stroke-width: 0.6"/>
      </g>
     </g>
    </g>
    <g id="ytick_63">
     <g id="line2d_69">
      <g>
       <use xlink:href="#mf0b75e4077" x="57.6" y="52.791386" style="stroke: #000000; stroke-width: 0.6"/>
      </g>
     </g>
    </g>
    <g id="ytick_64">
     <g id="line2d_70">
      <g>
       <use xlink:href="#mf0b75e4077" x="57.6" y="50.911209" style="stroke: #000000; stroke-width: 0.6"/>
      </g>
     </g>
    </g>
    <g id="text_16">
     <!-- Loss -->
     <g transform="translate(26.920313 185.495187) rotate(-90) scale(0.1 -0.1)">
      <defs>
       <path id="DejaVuSans-4c" d="M 628 4666 
L 1259 4666 
L 1259 531 
L 3531 531 
L 3531 0 
L 628 0 
L 628 4666 
z
" transform="scale(0.015625)"/>
       <path id="DejaVuSans-73" d="M 2834 3397 
L 2834 2853 
Q 2591 2978 2328 3040 
Q 2066 3103 1784 3103 
Q 1356 3103 1142 2972 
Q 928 2841 928 2578 
Q 928 2378 1081 2264 
Q 1234 2150 1697 2047 
L 1894 2003 
Q 2506 1872 2764 1633 
Q 3022 1394 3022 966 
Q 3022 478 2636 193 
Q 2250 -91 1575 -91 
Q 1294 -91 989 -36 
Q 684 19 347 128 
L 347 722 
Q 666 556 975 473 
Q 1284 391 1588 391 
Q 1994 391 2212 530 
Q 2431 669 2431 922 
Q 2431 1156 2273 1281 
Q 2116 1406 1581 1522 
L 1381 1569 
Q 847 1681 609 1914 
Q 372 2147 372 2553 
Q 372 3047 722 3315 
Q 1072 3584 1716 3584 
Q 2034 3584 2315 3537 
Q 2597 3491 2834 3397 
z
" transform="scale(0.015625)"/>
      </defs>
      <use xlink:href="#DejaVuSans-4c"/>
      <use xlink:href="#DejaVuSans-6f" x="53.962891"/>
      <use xlink:href="#DejaVuSans-73" x="115.144531"/>
      <use xlink:href="#DejaVuSans-73" x="167.244141"/>
     </g>
    </g>
   </g>
   <g id="line2d_71">
    <path d="M 73.832727 53.568 
L 75.261493 53.725639 
L 75.781044 53.981412 
L 76.235651 54.476636 
L 76.625315 55.273044 
L 77.014978 56.643065 
L 77.404642 58.935345 
L 77.794305 62.743124 
L 78.183968 69.1158 
L 78.573632 79.895328 
L 79.158127 99.35471 
L 79.223071 99.137145 
L 79.677678 93.711274 
L 79.742622 93.832661 
L 79.937454 95.500885 
L 80.392061 99.746666 
L 80.521949 99.866731 
L 80.71678 99.533682 
L 81.0415 99.096041 
L 81.236332 99.221666 
L 81.885771 99.947585 
L 88.899712 100.510504 
L 92.276794 101.084447 
L 94.225111 101.637648 
L 95.783765 102.291922 
L 97.147587 103.107557 
L 98.251633 104.012389 
L 99.420623 105.293008 
L 100.524669 106.851478 
L 101.693659 108.915994 
L 102.927594 111.580328 
L 104.161528 114.806626 
L 105.655237 119.408047 
L 106.954115 124.059274 
L 108.837488 131.504693 
L 110.071422 136.154845 
L 113.643337 147.157437 
L 113.773224 147.337085 
L 114.292776 148.911007 
L 114.487607 149.341368 
L 114.942215 150.525327 
L 115.851429 152.446915 
L 115.916373 152.399223 
L 115.981317 152.448693 
L 116.241093 153.206876 
L 116.37098 153.558377 
L 116.565812 153.918435 
L 116.825588 154.539402 
L 116.890532 154.458145 
L 117.020419 154.695674 
L 117.215251 155.186133 
L 117.345139 155.475617 
L 117.604914 155.97824 
L 117.929634 156.631405 
L 118.384241 157.456971 
L 120.137726 160.42567 
L 120.52739 161.087943 
L 121.176829 162.112822 
L 122.021099 163.384327 
L 122.086043 163.338949 
L 122.280875 162.24589 
L 122.345819 162.423713 
L 122.540651 164.067628 
L 122.670538 163.460326 
L 122.86537 164.600483 
L 122.995258 164.280846 
L 123.19009 165.064924 
L 123.255034 164.921166 
L 123.319977 164.963785 
L 123.514809 165.53338 
L 123.579753 165.47854 
L 123.644697 165.560027 
L 123.839529 166.009848 
L 123.969416 166.094395 
L 124.229192 166.526182 
L 124.683799 167.179551 
L 125.268294 168.023512 
L 126.372341 169.49864 
L 127.346499 170.655731 
L 127.411443 170.453581 
L 127.671219 167.239352 
L 127.86605 171.411777 
L 127.930994 170.487898 
L 127.995938 169.567977 
L 128.060882 169.922987 
L 128.19077 171.778591 
L 128.320658 170.673836 
L 128.515489 172.067815 
L 128.645377 171.571972 
L 128.775265 172.520584 
L 128.840209 172.371886 
L 128.905153 172.147383 
L 129.099984 172.902864 
L 129.164928 172.765789 
L 129.229872 172.738296 
L 129.424704 173.25553 
L 129.554592 173.344654 
L 129.749423 173.662918 
L 129.879311 173.759434 
L 130.139087 174.09097 
L 131.69774 176.012602 
L 133.256394 177.842248 
L 133.386282 177.584053 
L 133.646057 175.296239 
L 133.775945 177.196211 
L 133.905833 178.507637 
L 134.100664 177.272532 
L 134.295496 179.028009 
L 134.36044 178.838035 
L 134.490328 178.353926 
L 134.750103 179.453376 
L 134.879991 179.195547 
L 135.009879 179.619016 
L 135.139767 179.976787 
L 135.204711 179.944353 
L 135.334599 179.930786 
L 135.724262 180.571372 
L 135.984038 180.854349 
L 136.568533 181.507905 
L 137.802467 182.836017 
L 138.776625 183.738069 
L 138.906513 183.672199 
L 139.036401 183.229212 
L 139.101345 182.702278 
L 139.36112 176.242817 
L 139.426064 176.518134 
L 139.555952 183.983992 
L 139.620896 183.621089 
L 139.750784 179.619985 
L 139.880671 184.424598 
L 139.945615 184.197936 
L 140.075503 181.875086 
L 140.205391 185.028349 
L 140.270335 184.533822 
L 140.400223 183.205397 
L 140.53011 185.352647 
L 140.595054 185.057103 
L 140.724942 184.272678 
L 140.85483 185.66128 
L 140.919774 185.475402 
L 140.984718 185.035213 
L 141.049662 185.059775 
L 141.179549 185.966063 
L 141.244493 185.858861 
L 141.309437 185.614532 
L 141.374381 185.652774 
L 141.504269 186.259734 
L 141.569213 186.220145 
L 141.634157 186.095302 
L 141.699101 186.144028 
L 141.893932 186.549739 
L 142.02382 186.548057 
L 142.218652 186.860482 
L 142.34854 186.909449 
L 142.608315 187.166881 
L 144.3618 188.812718 
L 144.491688 188.733573 
L 144.556632 188.560573 
L 144.621576 188.615369 
L 144.816408 189.204296 
L 144.946295 189.062907 
L 145.595734 189.892104 
L 145.790566 190.005423 
L 146.115286 190.322634 
L 149.297537 193.400297 
L 149.427424 193.470317 
L 149.492368 193.315856 
L 149.817088 189.717663 
L 149.882032 190.425934 
L 150.141807 194.226946 
L 150.336639 192.754077 
L 150.401583 192.780817 
L 150.661358 194.790036 
L 150.726302 194.684482 
L 150.921134 194.082621 
L 151.051022 194.484111 
L 151.310797 195.393685 
L 151.635517 195.319782 
L 152.155068 196.104041 
L 152.3499 196.228538 
L 153.064283 196.968167 
L 154.947656 198.549447 
L 155.142487 198.429126 
L 155.272375 198.069115 
L 155.467207 196.659792 
L 155.726982 187.400288 
L 155.85687 184.170654 
L 155.921814 184.986937 
L 156.116646 199.768498 
L 156.18159 197.009054 
L 156.311478 191.016072 
L 156.441365 196.801364 
L 156.506309 199.991317 
L 156.571253 198.96528 
L 156.701141 194.780879 
L 156.895973 200.455837 
L 156.960917 199.549465 
L 157.090804 197.388631 
L 157.285636 200.796262 
L 157.35058 200.078174 
L 157.480468 199.105987 
L 157.675299 201.124588 
L 157.805187 200.218705 
L 157.870131 200.270745 
L 158.064963 201.486199 
L 158.194851 201.034602 
L 158.259795 201.064408 
L 158.454626 201.855412 
L 158.51957 201.796267 
L 158.649458 201.676413 
L 158.909233 202.24801 
L 158.974177 202.218249 
L 159.104065 202.260661 
L 159.428785 202.681364 
L 159.623616 202.851799 
L 159.948336 203.171269 
L 161.052382 204.221244 
L 163.000699 206.033149 
L 163.065643 205.94972 
L 163.130587 205.61351 
L 163.260475 203.151493 
L 163.585194 190.290502 
L 163.650138 190.324998 
L 163.715082 191.652168 
L 163.909914 206.214024 
L 163.974858 206.132593 
L 164.169689 198.607105 
L 164.299577 203.564097 
L 164.429465 207.029004 
L 164.624296 202.588317 
L 164.884072 207.641846 
L 164.949016 206.851783 
L 165.078904 205.201174 
L 165.143848 205.532399 
L 165.338679 208.062706 
L 165.403623 207.990139 
L 165.598455 207.011945 
L 165.858231 208.548746 
L 165.988118 208.339362 
L 166.118006 208.174177 
L 166.50767 209.062582 
L 166.572613 209.018236 
L 166.702501 209.020169 
L 167.871491 210.368656 
L 170.404303 212.410006 
L 170.599135 212.276697 
L 170.793967 211.723002 
L 171.248574 208.72332 
L 171.313518 208.913746 
L 171.378462 209.098958 
L 171.768125 213.754754 
L 171.833069 213.486102 
L 172.092845 212.271738 
L 172.222733 212.643505 
L 172.612396 214.548704 
L 172.742284 214.48287 
L 172.937115 214.320093 
L 173.067003 214.430489 
L 173.781386 215.560725 
L 174.430825 215.819481 
L 174.625657 215.732416 
L 174.755545 214.19205 
L 175.01532 204.460142 
L 175.275096 196.291094 
L 175.34004 196.76455 
L 175.534871 211.989522 
L 175.599815 216.793205 
L 175.664759 215.811764 
L 175.859591 206.660172 
L 175.924535 207.638072 
L 176.119366 217.430091 
L 176.18431 216.858675 
L 176.379142 211.982726 
L 176.50903 215.109367 
L 176.638918 218.022886 
L 176.833749 215.299202 
L 176.898693 215.322536 
L 177.158469 218.461637 
L 177.223413 218.120482 
L 177.3533 217.20053 
L 177.418244 217.227034 
L 177.67802 218.928278 
L 177.742964 218.89102 
L 177.937796 218.452155 
L 178.067683 218.795997 
L 178.327459 219.471776 
L 178.587235 219.406354 
L 179.301617 220.229207 
L 181.18499 221.666675 
L 181.379822 221.478019 
L 181.574654 220.771997 
L 181.769486 218.862347 
L 181.899373 216.269031 
L 182.353981 193.979438 
L 182.418925 194.043933 
L 182.548812 201.744969 
L 182.743644 222.85608 
L 183.00342 206.521861 
L 183.133307 214.210781 
L 183.263195 223.670413 
L 183.522971 214.027239 
L 183.782746 224.000307 
L 183.84769 222.308016 
L 183.977578 218.831665 
L 184.042522 219.023789 
L 184.302298 224.494248 
L 184.367241 223.787661 
L 184.562073 221.959412 
L 184.886793 224.926512 
L 184.951737 224.570759 
L 185.081624 223.895091 
L 185.146568 223.912761 
L 185.471288 225.50955 
L 185.536232 225.484525 
L 185.796007 225.21549 
L 186.055783 225.882232 
L 186.250614 226.14527 
L 186.705222 226.332134 
L 187.549492 227.23267 
L 188.328819 227.669899 
L 188.523651 227.568444 
L 188.653539 227.289764 
L 188.84837 226.050719 
L 188.978258 223.013601 
L 189.238034 206.906758 
L 189.497809 192.664836 
L 189.562753 193.013964 
L 189.692641 202.501375 
L 189.887473 227.237415 
L 190.082304 205.964349 
L 190.147248 206.196995 
L 190.277136 217.650395 
L 190.407024 229.418599 
L 190.6668 215.639914 
L 190.861631 226.877292 
L 190.926575 229.798811 
L 190.991519 228.779537 
L 191.186351 222.768286 
L 191.316239 226.242765 
L 191.446126 230.268665 
L 191.51107 229.815844 
L 191.705902 226.637284 
L 191.83579 228.373604 
L 192.030621 230.691463 
L 192.290397 229.139769 
L 192.615116 231.211992 
L 192.68006 231.072762 
L 192.874892 230.586198 
L 193.00478 230.865149 
L 193.329499 231.793852 
L 193.849051 231.92371 
L 194.433546 232.676873 
L 195.018041 232.950746 
L 195.277816 232.880304 
L 195.472648 232.526784 
L 195.66748 231.585896 
L 195.797367 230.239255 
L 196.057143 220.051708 
L 196.381863 206.594933 
L 196.446806 206.39865 
L 196.51175 207.211744 
L 196.706582 219.936395 
L 196.901414 234.523138 
L 197.031302 228.696562 
L 197.226133 222.285962 
L 197.356021 224.531571 
L 197.680741 234.989398 
L 198.00546 229.795392 
L 198.070404 230.025187 
L 198.525011 235.800328 
L 198.589955 235.714261 
L 199.044562 234.114807 
L 199.304338 234.578764 
L 199.629057 235.095914 
L 199.823889 235.108593 
L 199.953777 234.916768 
L 200.083665 234.370027 
L 200.278496 232.273807 
L 200.473328 226.581243 
L 200.992879 203.363319 
L 201.057823 203.891797 
L 201.187711 209.646314 
L 201.447487 237.60267 
L 201.51243 236.171506 
L 201.772206 219.485404 
L 201.83715 219.370488 
L 201.967038 224.112728 
L 202.226813 238.380355 
L 202.291757 237.936666 
L 202.616477 230.744983 
L 202.746365 232.498202 
L 203.071084 239.059478 
L 203.136028 239.093764 
L 203.33086 237.540386 
L 203.525691 236.365215 
L 203.655579 236.390009 
L 203.915355 237.604197 
L 204.305018 239.345372 
L 204.629738 239.906635 
L 204.889513 239.964522 
L 205.019401 239.756715 
L 205.149289 239.155428 
L 205.34412 236.467035 
L 205.474008 231.638877 
L 206.058503 196.917485 
L 206.123447 197.545744 
L 206.253335 208.825713 
L 206.448167 238.366056 
L 206.642998 213.161808 
L 206.707942 214.243734 
L 206.83783 229.423525 
L 206.902774 239.359432 
L 206.967718 239.156486 
L 207.16255 222.78533 
L 207.227493 224.043234 
L 207.487269 241.221985 
L 207.747045 229.466886 
L 207.876932 233.973611 
L 208.071764 242.428263 
L 208.201652 239.085389 
L 208.396484 235.977331 
L 208.526371 238.334508 
L 208.786147 243.065751 
L 208.916035 242.003669 
L 209.110867 240.457666 
L 209.17581 240.484091 
L 209.370642 241.869122 
L 209.695362 243.815304 
L 209.825249 243.824898 
L 210.214913 243.152055 
L 210.539632 242.310092 
L 210.734464 241.035796 
L 210.99424 236.776169 
L 211.254015 227.069394 
L 211.773566 201.921458 
L 211.83851 202.349748 
L 211.968398 211.592282 
L 212.16323 245.291055 
L 212.228174 236.568113 
L 212.423005 217.600141 
L 212.487949 219.224088 
L 212.747725 243.921133 
L 212.812669 236.731376 
L 213.0075 227.46731 
L 213.137388 234.793976 
L 213.33222 245.787312 
L 213.591995 237.182633 
L 213.656939 237.229642 
L 213.786827 239.875437 
L 214.046603 246.492272 
L 214.111547 246.578904 
L 214.306378 244.430191 
L 214.566154 242.568185 
L 214.696042 242.697211 
L 215.475369 245.39116 
L 215.605256 245.242446 
L 215.800088 244.358426 
L 215.99492 242.097191 
L 216.189751 237.402837 
L 216.449527 224.632431 
L 216.83919 204.278682 
L 216.904134 203.122069 
L 217.034022 207.877184 
L 217.16391 225.009222 
L 217.293798 248.504182 
L 217.553573 219.224724 
L 217.683461 227.070793 
L 217.878293 247.572401 
L 218.138068 229.783851 
L 218.267956 237.30302 
L 218.462788 249.130609 
L 218.787507 238.68381 
L 218.852451 239.337168 
L 218.982339 241.882917 
L 219.307059 250.15599 
L 219.372002 249.952282 
L 220.67088 236.009696 
L 221.060544 224.691038 
L 221.320319 219.558763 
L 221.385263 219.641493 
L 221.450207 220.10307 
L 221.645039 225.974986 
L 222.16459 251.980625 
L 222.229534 251.452248 
L 222.554253 243.117109 
L 222.943917 234.582577 
L 223.268636 231.778069 
L 223.463468 231.324461 
L 223.723244 231.765808 
L 224.177851 233.470193 
L 224.242795 233.555304 
L 224.892234 236.852471 
L 225.216953 239.055433 
L 225.281897 238.911854 
L 225.346841 238.708925 
L 225.606617 232.109816 
L 226.191112 209.588451 
L 226.256056 209.722286 
L 226.320999 210.442408 
L 226.450887 217.999242 
L 226.710663 252.552594 
L 226.775607 243.5484 
L 226.970438 227.178854 
L 227.035382 228.320957 
L 227.16527 237.851226 
L 227.360102 252.893369 
L 227.619877 237.779266 
L 227.684821 237.534837 
L 227.879653 245.526274 
L 228.139429 255.399872 
L 228.204373 255.103051 
L 228.853811 242.614505 
L 229.048643 235.449563 
L 229.50325 217.037983 
L 229.633138 216.308037 
L 229.763026 219.133063 
L 229.957858 233.158439 
L 230.152689 255.791854 
L 230.217633 253.909605 
L 230.477409 238.391374 
L 230.542353 237.926931 
L 230.672241 241.268143 
L 231.061904 256.740821 
L 231.126848 257.076025 
L 231.191792 256.900933 
L 231.451567 254.002853 
L 231.776287 248.486416 
L 232.036062 238.516344 
L 232.620558 211.416181 
L 232.750445 210.207108 
L 232.880333 213.413812 
L 233.075165 232.607213 
L 233.205053 256.541452 
L 233.464828 231.999741 
L 233.529772 233.255462 
L 233.789548 257.312011 
L 233.854492 254.081091 
L 234.114267 238.488708 
L 234.179211 239.024531 
L 234.309099 243.349772 
L 234.698762 259.008535 
L 234.82865 256.565412 
L 235.15337 244.667521 
L 235.932696 209.33954 
L 235.99764 209.784906 
L 236.127528 214.446847 
L 236.257416 227.505586 
L 236.452248 255.37455 
L 236.647079 233.747824 
L 236.712023 235.483145 
L 236.906855 257.982886 
L 236.971799 256.07553 
L 237.231574 239.456787 
L 237.296518 239.697863 
L 237.49135 248.54828 
L 237.751125 260.415762 
L 237.881013 258.121179 
L 238.270677 249.297127 
L 238.595396 239.931065 
L 238.920116 224.307461 
L 239.244835 211.678656 
L 239.309779 211.337474 
L 239.374723 211.430158 
L 239.504611 216.680486 
L 239.634499 231.790041 
L 239.764386 259.649886 
L 239.82933 252.56914 
L 240.024162 232.063954 
L 240.15405 237.441806 
L 240.348881 259.675861 
L 240.608657 241.427365 
L 240.738545 246.050182 
L 240.99832 261.930844 
L 241.128208 257.141208 
L 241.387984 247.076382 
L 241.452928 246.784796 
L 241.517872 246.85684 
L 242.362142 255.177357 
L 242.49203 255.380804 
L 242.556974 255.240636 
L 242.621918 255.123092 
L 242.81675 252.146266 
L 243.011581 245.613439 
L 243.790908 205.718659 
L 243.855852 205.315803 
L 243.98574 209.264386 
L 244.115627 224.170839 
L 244.245515 259.308463 
L 244.310459 248.405225 
L 244.505291 225.770776 
L 244.635179 237.552913 
L 244.765066 260.445468 
L 245.024842 236.593898 
L 245.089786 237.717685 
L 245.349562 262.724924 
L 245.414505 261.11723 
L 245.674281 241.81293 
L 245.804169 240.85312 
L 245.999001 246.78805 
L 246.453608 264.50613 
L 246.518552 264.410905 
L 246.713383 261.487776 
L 247.297878 248.888369 
L 247.557654 234.50298 
L 248.012261 202.367686 
L 248.142149 198.428358 
L 248.207093 199.38529 
L 248.336981 209.792956 
L 248.531813 256.263497 
L 248.726644 220.74246 
L 248.791588 224.52513 
L 248.98642 254.584554 
L 249.181252 230.319888 
L 249.311139 246.220807 
L 249.376083 259.345512 
L 249.441027 256.887397 
L 249.635859 238.917673 
L 249.765747 250.043692 
L 249.895634 264.192648 
L 250.220354 240.557439 
L 250.350242 244.662415 
L 250.674961 265.957273 
L 250.739905 265.043705 
L 251.129568 253.546305 
L 251.194512 253.624366 
L 251.3244 255.18646 
L 251.973839 266.575681 
L 252.103727 266.732582 
L 252.233615 266.499673 
L 252.558334 265.118072 
L 252.81811 263.070445 
L 253.077885 258.617162 
L 253.272717 251.942145 
L 253.532493 234.126151 
L 253.9871 195.930052 
L 254.052044 195.702193 
L 254.116988 196.988552 
L 254.246876 216.131225 
L 254.376763 257.741821 
L 254.571595 215.534568 
L 254.701483 240.511767 
L 254.766427 259.149651 
L 254.961258 226.67281 
L 255.15609 257.898799 
L 255.350922 234.738483 
L 255.545754 260.079647 
L 255.675641 241.718405 
L 255.740585 242.32888 
L 255.935417 265.484461 
L 256.000361 258.103955 
L 256.195192 240.984615 
L 256.260136 241.819186 
L 256.390024 249.339636 
L 256.6498 267.359589 
L 257.039463 252.356881 
L 257.104407 252.461384 
L 257.234295 254.536932 
L 257.81879 268.8813 
L 257.883734 268.793248 
L 258.078566 267.331599 
L 258.663061 260.988486 
L 258.922836 255.440691 
L 259.247556 241.928309 
L 259.961939 206.027935 
L 260.026882 206.619296 
L 260.15677 217.330636 
L 260.351602 262.022012 
L 260.546434 224.96 
L 260.611378 227.16304 
L 260.806209 264.969193 
L 260.871153 252.482106 
L 261.001041 236.032055 
L 261.065985 236.325198 
L 261.195873 251.919315 
L 261.260817 264.32256 
L 261.32576 264.066173 
L 261.520592 245.484606 
L 261.585536 247.259378 
L 261.780368 268.467371 
L 261.845312 267.825148 
L 262.105087 249.60431 
L 262.170031 248.138369 
L 262.234975 248.157639 
L 262.299919 248.652959 
L 262.689582 259.752525 
L 263.079246 268.134481 
L 263.339021 270.046778 
L 263.598797 270.624702 
L 263.793629 270.696691 
L 263.98846 270.527151 
L 264.183292 269.898283 
L 264.378124 268.113448 
L 264.572955 263.597681 
L 264.832731 249.716295 
L 265.612058 196.002132 
L 265.741945 202.872246 
L 265.936777 255.983022 
L 266.131609 213.054572 
L 266.196553 218.929868 
L 266.326441 259.956285 
L 266.521272 222.700931 
L 266.65116 245.887952 
L 266.716104 260.632609 
L 266.910936 232.775261 
L 267.040823 253.115701 
L 267.105767 264.440301 
L 267.300599 239.363312 
L 267.430487 253.455306 
L 267.495431 266.443023 
L 267.560375 265.91069 
L 267.755206 242.733497 
L 267.82015 241.86765 
L 267.950038 247.721511 
L 268.209814 271.444993 
L 268.274757 269.155368 
L 268.599477 253.787527 
L 268.664421 253.624891 
L 268.729365 253.997577 
L 268.924196 258.748061 
L 269.378804 272.346971 
L 269.443748 272.620911 
L 269.508692 272.430315 
L 269.703523 270.379413 
L 269.963299 264.132151 
L 270.223074 251.857816 
L 270.872513 214.386792 
L 270.937457 214.455781 
L 271.067345 218.183856 
L 271.262177 239.663688 
L 271.392065 269.737557 
L 271.457008 264.890582 
L 271.65184 240.741158 
L 271.716784 240.739739 
L 271.846672 250.84066 
L 271.97656 269.96076 
L 272.041504 269.359583 
L 272.236335 252.51277 
L 272.301279 251.938373 
L 272.431167 258.065396 
L 272.625999 273.032572 
L 272.755886 267.222265 
L 273.080606 248.792609 
L 273.600157 233.941891 
L 273.859933 231.58071 
L 273.989821 232.611861 
L 274.184652 238.858744 
L 274.31454 247.656049 
L 274.509372 272.104097 
L 274.574316 269.691552 
L 274.834091 252.304556 
L 274.899035 252.458041 
L 275.028923 257.486409 
L 275.288698 273.639014 
L 275.353642 272.894306 
L 275.873194 249.964148 
L 276.65252 192.507794 
L 276.717464 194.179841 
L 276.782408 197.562515 
L 276.912296 226.891306 
L 276.97724 262.860821 
L 277.172072 209.935277 
L 277.237015 215.426665 
L 277.366903 260.503428 
L 277.561735 220.386114 
L 277.691623 255.780408 
L 277.756567 250.397215 
L 277.886454 227.543613 
L 277.951398 232.819061 
L 278.081286 267.308734 
L 278.276118 236.525394 
L 278.406006 257.569996 
L 278.470949 271.921333 
L 278.665781 240.635955 
L 278.730725 240.455443 
L 278.860613 251.378356 
L 278.990501 273.581884 
L 279.055445 272.538978 
L 279.31522 248.899324 
L 279.380164 248.629906 
L 279.510052 252.55667 
L 279.834771 275.904351 
L 279.899715 274.977685 
L 280.289379 261.863975 
L 280.419266 263.323061 
L 281.003761 276.276498 
L 281.133649 276.648404 
L 281.263537 276.472272 
L 281.523313 275.370481 
L 281.783088 271.86085 
L 282.952078 249.35162 
L 283.341742 247.471499 
L 283.536573 249.595327 
L 283.731405 262.182263 
L 283.926237 276.46759 
L 284.056125 271.33454 
L 284.3159 262.361293 
L 284.380844 262.316131 
L 284.705564 255.73615 
L 284.900395 246.815994 
L 285.679722 195.244513 
L 285.744666 197.362889 
L 285.874554 213.64245 
L 286.004442 256.512739 
L 286.199273 211.439912 
L 286.264217 215.014687 
L 286.394105 255.953102 
L 286.459049 247.708787 
L 286.588937 222.290171 
L 286.653881 224.825846 
L 286.848712 263.205256 
L 287.043544 231.300544 
L 287.173432 246.1575 
L 287.30332 267.634687 
L 287.498151 239.681438 
L 287.628039 246.926119 
L 287.822871 275.248263 
L 288.082646 249.788625 
L 288.14759 248.787396 
L 288.277478 250.728238 
L 288.991861 273.643536 
L 289.121749 274.228214 
L 289.251637 273.535513 
L 289.446468 269.448653 
L 289.706244 258.0594 
L 290.550514 215.606025 
L 290.680402 219.210416 
L 290.81029 230.670331 
L 291.005122 269.678257 
L 291.199953 236.977618 
L 291.264897 235.9603 
L 291.394785 246.091639 
L 291.524673 271.22219 
L 291.589617 269.810196 
L 291.784449 248.446935 
L 291.849392 247.492927 
L 291.97928 253.516935 
L 292.239056 276.902137 
L 292.433888 262.428792 
L 292.693663 249.138826 
L 293.213214 223.785573 
L 293.537934 211.605193 
L 293.602878 210.68523 
L 293.732765 212.834005 
L 293.862653 222.798552 
L 294.057485 263.833224 
L 294.252317 228.040268 
L 294.317261 228.89007 
L 294.447148 246.149604 
L 294.577036 268.908616 
L 294.771868 239.685638 
L 294.836812 240.341412 
L 294.9667 251.108999 
L 295.096587 274.492349 
L 295.161531 273.792892 
L 295.421307 248.399436 
L 295.486251 247.324053 
L 295.616139 250.50141 
L 296.13569 280.427872 
L 296.200634 279.266976 
L 296.395465 266.579288 
L 297.174792 198.828768 
L 297.239736 196.841856 
L 297.30468 197.623218 
L 297.369624 199.666245 
L 297.499512 217.12223 
L 297.629399 261.683956 
L 297.824231 217.418382 
L 297.954119 243.759023 
L 298.019063 264.887555 
L 298.213894 226.807605 
L 298.343782 250.874407 
L 298.408726 268.692642 
L 298.603558 235.171477 
L 298.733446 253.580371 
L 298.798389 273.532086 
L 298.863333 263.260766 
L 299.058165 242.996229 
L 299.188053 257.274013 
L 299.317941 278.747458 
L 299.577716 252.051499 
L 299.64266 252.87558 
L 299.772548 262.281945 
L 299.96738 280.656146 
L 300.292099 262.484102 
L 300.421987 261.464297 
L 300.616819 263.665248 
L 300.81165 268.524502 
L 301.201314 280.469315 
L 301.396145 282.138536 
L 301.461089 281.925198 
L 301.655921 278.949709 
L 301.915697 270.36259 
L 302.370304 249.680899 
L 302.954799 223.863655 
L 303.149631 221.890234 
L 303.279518 225.795273 
L 303.409406 242.298005 
L 303.539294 277.191984 
L 303.604238 265.459838 
L 303.79907 240.492438 
L 303.864014 240.161852 
L 303.993901 249.597594 
L 304.188733 277.731597 
L 304.448509 253.326889 
L 304.578396 255.31802 
L 304.96806 280.745654 
L 305.033004 277.971454 
L 305.422667 261.444762 
L 305.552555 260.173552 
L 305.81233 251.128921 
L 306.266938 221.589512 
L 306.656601 194.834358 
L 306.721545 192.765328 
L 306.786489 193.967654 
L 306.851433 197.029244 
L 306.981321 224.1452 
L 307.046265 263.65114 
L 307.241096 208.540281 
L 307.30604 212.329293 
L 307.435928 257.817214 
L 307.500872 242.877522 
L 307.63076 217.997285 
L 307.695704 220.442874 
L 307.890535 259.372955 
L 308.085367 228.022352 
L 308.215255 249.861392 
L 308.280199 274.060543 
L 308.345142 258.573418 
L 308.539974 236.302535 
L 308.669862 249.935974 
L 308.79975 279.612315 
L 309.059525 246.802458 
L 309.124469 248.341236 
L 309.384245 281.638052 
L 309.449189 276.350245 
L 309.64402 259.00871 
L 309.708964 258.169166 
L 309.838852 262.663654 
L 310.098628 282.686526 
L 310.163572 281.641252 
L 310.423347 271.997485 
L 310.488291 271.270443 
L 310.553235 271.513994 
L 310.618179 271.606569 
L 311.397506 279.618657 
L 311.592337 280.401508 
L 311.657281 280.363516 
L 311.722225 280.508921 
L 312.046945 279.381576 
L 312.176832 278.188995 
L 312.371664 275.355505 
L 312.761328 262.717195 
L 313.540654 227.376697 
L 313.80043 222.005123 
L 313.930318 227.232673 
L 314.060205 244.012624 
L 314.190093 277.96903 
L 314.255037 265.658715 
L 314.449869 240.8409 
L 314.514813 240.517582 
L 314.644701 248.815397 
L 314.839532 279.931835 
L 314.904476 275.074995 
L 315.164252 253.122269 
L 315.229196 252.113529 
L 315.359083 254.501495 
L 315.618859 269.856699 
L 315.878635 283.439589 
L 316.008522 278.826094 
L 316.398186 252.85165 
L 317.242456 179.752094 
L 317.372344 200.536579 
L 317.437288 241.455795 
L 317.502232 215.856559 
L 317.63212 196.353449 
L 317.697064 204.985333 
L 317.762008 237.538912 
L 317.826952 230.194761 
L 317.956839 204.149606 
L 318.021783 210.239036 
L 318.151671 245.406748 
L 318.281559 212.17748 
L 318.346503 217.269295 
L 318.476391 254.715202 
L 318.606278 219.941697 
L 318.671222 225.356513 
L 318.80111 259.088524 
L 318.930998 227.991983 
L 318.995942 233.646619 
L 319.12583 266.412012 
L 319.255717 236.098164 
L 319.320661 240.62157 
L 319.450549 275.537662 
L 319.580437 243.825458 
L 319.645381 246.027851 
L 319.775269 280.495689 
L 319.840212 264.971975 
L 319.9701 251.305325 
L 320.164932 278.613732 
L 320.29482 258.374353 
L 320.359764 260.948292 
L 320.489651 282.295644 
L 320.554595 277.829893 
L 320.684483 265.518554 
L 320.814371 277.205086 
L 320.879315 283.534201 
L 320.944259 279.116807 
L 321.074146 271.425863 
L 321.268978 283.952553 
L 321.333922 281.139609 
L 321.46381 276.205562 
L 321.658642 284.267506 
L 321.723585 282.925212 
L 321.853473 279.53447 
L 322.048305 284.422055 
L 322.113249 284.101398 
L 322.243137 281.878906 
L 322.308081 282.194255 
L 322.502912 284.657504 
L 322.697744 283.284766 
L 322.892576 284.836741 
L 322.95752 284.725757 
L 323.087407 284.120837 
L 323.152351 284.201218 
L 323.347183 284.982884 
L 323.606958 284.568786 
L 323.671902 284.660521 
L 323.996622 285.102233 
L 324.581117 285.096475 
L 324.905836 285.227197 
L 325.750107 285.316139 
L 326.594378 285.419646 
L 327.113929 285.335975 
L 327.373705 285.029225 
L 327.568536 284.337295 
L 327.763368 282.405237 
L 328.023144 275.803055 
L 328.542695 261.031712 
L 328.80247 256.776708 
L 328.997302 255.430309 
L 329.062246 255.948603 
L 329.257078 264.652803 
L 329.581797 285.182853 
L 330.036404 271.760735 
L 330.101348 271.969876 
L 330.29618 274.89153 
L 330.815731 284.865443 
L 331.010563 285.691118 
L 331.140451 285.626803 
L 331.400226 284.873119 
L 331.660002 283.516354 
L 331.919777 280.692893 
L 332.114609 272.156895 
L 332.374385 244.715052 
L 332.95888 173.250921 
L 333.023824 173.579312 
L 333.088768 176.037491 
L 333.153711 192.833821 
L 333.218655 238.569898 
L 333.348543 184.535408 
L 333.413487 185.458925 
L 333.543375 232.972063 
L 333.673263 192.936698 
L 333.738207 203.237085 
L 333.80315 244.236199 
L 333.868094 215.122991 
L 333.933038 198.619953 
L 333.997982 202.228203 
L 334.12787 249.331182 
L 334.257758 206.682284 
L 334.322702 219.355105 
L 334.387646 256.288646 
L 334.517533 215.654362 
L 334.582477 223.186252 
L 334.647421 259.418733 
L 334.712365 234.938216 
L 334.777309 221.290505 
L 334.842253 228.141821 
L 334.907197 254.444876 
L 334.972141 251.591658 
L 335.102028 228.491274 
L 335.231916 274.433052 
L 335.361804 235.016667 
L 335.426748 239.695583 
L 335.556636 269.889331 
L 335.686523 242.334842 
L 335.751467 250.861938 
L 335.816411 274.120042 
L 335.881355 266.668336 
L 336.011243 250.857612 
L 336.141131 280.89988 
L 336.271019 256.4472 
L 336.335962 260.032537 
L 336.46585 280.064228 
L 336.595738 262.314838 
L 336.725626 281.243839 
L 336.79057 278.502316 
L 336.920458 268.511031 
L 337.050345 283.853967 
L 337.115289 278.637968 
L 337.180233 273.17722 
L 337.245177 274.293991 
L 337.375065 284.5296 
L 337.504953 276.721436 
L 337.699784 284.762572 
L 337.829672 279.575065 
L 338.024504 285.141146 
L 338.154392 281.985829 
L 338.349223 285.468301 
L 338.479111 283.696253 
L 338.608999 285.879568 
L 338.673943 285.676168 
L 338.803831 284.77572 
L 338.933718 286.171662 
L 338.998662 285.991996 
L 339.12855 285.481077 
L 339.258438 286.34806 
L 339.323382 286.30748 
L 339.45327 285.942284 
L 339.648101 286.557126 
L 339.713045 286.437563 
L 339.777989 286.346466 
L 339.842933 286.429792 
L 339.972821 286.709215 
L 340.037765 286.661279 
L 340.167652 286.654137 
L 340.362484 286.852782 
L 340.492372 286.819654 
L 341.011923 287.118754 
L 345.687884 288.547094 
L 347.701145 289.009309 
L 351.532835 289.711028 
L 351.987442 289.663625 
L 352.247217 289.471087 
L 352.442049 289.009102 
L 352.636881 287.792503 
L 352.831713 284.56262 
L 353.026544 277.248873 
L 353.351264 252.004654 
L 353.675983 215.602618 
L 354.065647 175.332098 
L 354.13059 174.88315 
L 354.260478 210.498383 
L 354.325422 226.573667 
L 354.45531 188.850921 
L 354.520254 197.292241 
L 354.585198 231.726197 
L 354.650142 220.482126 
L 354.780029 195.366846 
L 354.844973 208.552253 
L 354.909917 249.516424 
L 354.974861 222.587555 
L 355.104749 203.426534 
L 355.169693 218.948869 
L 355.234637 261.148139 
L 355.364525 211.723121 
L 355.429468 216.471808 
L 355.494412 244.68842 
L 355.559356 243.650288 
L 355.689244 219.902019 
L 355.754188 232.798949 
L 355.819132 271.12668 
L 355.94902 224.031513 
L 356.013964 226.996754 
L 356.143851 279.025871 
L 356.273739 231.31821 
L 356.338683 234.429671 
L 356.468571 284.190285 
L 356.598459 239.755137 
L 356.663402 242.895765 
L 356.79329 284.169495 
L 356.923178 247.249434 
L 356.988122 250.117449 
L 357.11801 286.095095 
L 357.247898 255.434389 
L 357.312841 256.76 
L 357.442729 287.080978 
L 357.507673 274.004696 
L 357.637561 262.927132 
L 357.767449 287.02512 
L 357.832393 281.644888 
L 357.96228 268.776869 
L 358.157112 287.095825 
L 358.287 274.389591 
L 358.351944 276.91847 
L 358.481832 289.10062 
L 358.676663 279.795593 
L 358.806551 288.698152 
L 358.871495 288.446781 
L 359.001383 283.024999 
L 359.196215 289.635589 
L 359.261158 288.207727 
L 359.391046 285.915679 
L 359.585878 289.724704 
L 359.715766 287.617266 
L 359.78071 287.843818 
L 359.910597 289.957919 
L 359.975541 289.937104 
L 360.105429 288.772298 
L 360.170373 288.979417 
L 360.300261 290.197054 
L 360.365205 290.114895 
L 360.495092 289.500193 
L 360.689924 290.367116 
L 360.819812 290.111123 
L 360.884756 289.990859 
L 360.9497 290.092359 
L 361.144531 290.503122 
L 361.339363 290.376937 
L 361.534195 290.652469 
L 361.79397 290.647622 
L 361.988802 290.776012 
L 362.248578 290.830729 
L 362.638241 290.940439 
L 363.28768 291.129116 
L 367.833753 292.022036 
L 371.210836 292.476582 
L 371.535555 292.34171 
L 371.730387 291.899328 
L 371.925218 290.449554 
L 372.12005 286.096169 
L 372.314882 276.237599 
L 372.704545 238.947436 
L 373.28904 168.329942 
L 373.353984 169.919065 
L 373.418928 176.533867 
L 373.548816 206.383502 
L 373.61376 181.80998 
L 373.678704 182.003902 
L 373.808592 233.916293 
L 373.938479 185.390079 
L 374.003423 201.33894 
L 374.068367 245.069361 
L 374.198255 194.004596 
L 374.263199 204.72756 
L 374.328143 259.387826 
L 374.458031 197.578746 
L 374.522974 210.569525 
L 374.587918 265.723087 
L 374.717806 207.537755 
L 374.78275 217.999197 
L 374.847694 267.067854 
L 374.977582 212.125032 
L 375.107469 259.502608 
L 375.237357 220.639097 
L 375.367245 264.484281 
L 375.497133 225.59001 
L 375.627021 265.454636 
L 375.756908 233.734317 
L 375.886796 273.25838 
L 376.016684 238.124099 
L 376.146572 277.039865 
L 376.27646 245.661056 
L 376.406347 284.597866 
L 376.536235 250.439474 
L 376.666123 287.968601 
L 376.796011 257.152321 
L 376.925899 289.978275 
L 376.990843 270.791325 
L 377.055786 262.125414 
L 377.185674 289.040452 
L 377.250618 277.943978 
L 377.315562 268.602736 
L 377.380506 273.328746 
L 377.44545 289.293817 
L 377.510394 283.005451 
L 377.575338 273.532569 
L 377.640282 276.953797 
L 377.705225 288.943221 
L 377.770169 287.035471 
L 377.835113 278.456221 
L 377.900057 279.501966 
L 378.029945 289.752925 
L 378.159833 282.331975 
L 378.28972 291.328365 
L 378.419608 284.657474 
L 378.549496 291.850033 
L 378.679384 286.864666 
L 378.809272 292.000721 
L 378.874216 290.481455 
L 378.939159 288.5468 
L 379.004103 289.735523 
L 379.069047 291.930899 
L 379.133991 291.541141 
L 379.198935 290.021297 
L 379.263879 290.250617 
L 379.393767 292.140506 
L 379.523655 290.817957 
L 379.653542 292.352119 
L 379.78343 291.377521 
L 379.913318 292.420026 
L 379.978262 292.282324 
L 380.043206 291.874451 
L 380.10815 291.975214 
L 380.238037 292.522268 
L 380.367925 292.181465 
L 380.497813 292.627301 
L 380.562757 292.547905 
L 380.627701 292.421197 
L 380.692645 292.491228 
L 380.822533 292.707227 
L 380.95242 292.598662 
L 381.147252 292.768443 
L 381.27714 292.756929 
L 381.471971 292.847389 
L 381.666803 292.934969 
L 388.550856 294.21015 
L 398.487273 295.488 
L 398.487273 295.488 
" clip-path="url(#p0d5d07d0f6)" style="fill: none; stroke: #1f77b4; stroke-width: 1.5; stroke-linecap: square"/>
   </g>
   <g id="patch_3">
    <path d="M 57.6 307.584 
L 57.6 41.472 
" style="fill: none; stroke: #000000; stroke-width: 0.8; stroke-linejoin: miter; stroke-linecap: square"/>
   </g>
   <g id="patch_4">
    <path d="M 414.72 307.584 
L 414.72 41.472 
" style="fill: none; stroke: #000000; stroke-width: 0.8; stroke-linejoin: miter; stroke-linecap: square"/>
   </g>
   <g id="patch_5">
    <path d="M 57.6 307.584 
L 414.72 307.584 
" style="fill: none; stroke: #000000; stroke-width: 0.8; stroke-linejoin: miter; stroke-linecap: square"/>
   </g>
   <g id="patch_6">
    <path d="M 57.6 41.472 
L 414.72 41.472 
" style="fill: none; stroke: #000000; stroke-width: 0.8; stroke-linejoin: miter; stroke-linecap: square"/>
   </g>
   <g id="text_17">
    <!-- Training Loss -->
    <g transform="translate(197.421562 35.472) scale(0.12 -0.12)">
     <defs>
      <path id="DejaVuSans-54" d="M -19 4666 
L 3928 4666 
L 3928 4134 
L 2272 4134 
L 2272 0 
L 1638 0 
L 1638 4134 
L -19 4134 
L -19 4666 
z
" transform="scale(0.015625)"/>
      <path id="DejaVuSans-72" d="M 2631 2963 
Q 2534 3019 2420 3045 
Q 2306 3072 2169 3072 
Q 1681 3072 1420 2755 
Q 1159 2438 1159 1844 
L 1159 0 
L 581 0 
L 581 3500 
L 1159 3500 
L 1159 2956 
Q 1341 3275 1631 3429 
Q 1922 3584 2338 3584 
Q 2397 3584 2469 3576 
Q 2541 3569 2628 3553 
L 2631 2963 
z
" transform="scale(0.015625)"/>
      <path id="DejaVuSans-61" d="M 2194 1759 
Q 1497 1759 1228 1600 
Q 959 1441 959 1056 
Q 959 750 1161 570 
Q 1363 391 1709 391 
Q 2188 391 2477 730 
Q 2766 1069 2766 1631 
L 2766 1759 
L 2194 1759 
z
M 3341 1997 
L 3341 0 
L 2766 0 
L 2766 531 
Q 2569 213 2275 61 
Q 1981 -91 1556 -91 
Q 1019 -91 701 211 
Q 384 513 384 1019 
Q 384 1609 779 1909 
Q 1175 2209 1959 2209 
L 2766 2209 
L 2766 2266 
Q 2766 2663 2505 2880 
Q 2244 3097 1772 3097 
Q 1472 3097 1187 3025 
Q 903 2953 641 2809 
L 641 3341 
Q 956 3463 1253 3523 
Q 1550 3584 1831 3584 
Q 2591 3584 2966 3190 
Q 3341 2797 3341 1997 
z
" transform="scale(0.015625)"/>
      <path id="DejaVuSans-69" d="M 603 3500 
L 1178 3500 
L 1178 0 
L 603 0 
L 603 3500 
z
M 603 4863 
L 1178 4863 
L 1178 4134 
L 603 4134 
L 603 4863 
z
" transform="scale(0.015625)"/>
      <path id="DejaVuSans-6e" d="M 3513 2113 
L 3513 0 
L 2938 0 
L 2938 2094 
Q 2938 2591 2744 2837 
Q 2550 3084 2163 3084 
Q 1697 3084 1428 2787 
Q 1159 2491 1159 1978 
L 1159 0 
L 581 0 
L 581 3500 
L 1159 3500 
L 1159 2956 
Q 1366 3272 1645 3428 
Q 1925 3584 2291 3584 
Q 2894 3584 3203 3211 
Q 3513 2838 3513 2113 
z
" transform="scale(0.015625)"/>
      <path id="DejaVuSans-67" d="M 2906 1791 
Q 2906 2416 2648 2759 
Q 2391 3103 1925 3103 
Q 1463 3103 1205 2759 
Q 947 2416 947 1791 
Q 947 1169 1205 825 
Q 1463 481 1925 481 
Q 2391 481 2648 825 
Q 2906 1169 2906 1791 
z
M 3481 434 
Q 3481 -459 3084 -895 
Q 2688 -1331 1869 -1331 
Q 1566 -1331 1297 -1286 
Q 1028 -1241 775 -1147 
L 775 -588 
Q 1028 -725 1275 -790 
Q 1522 -856 1778 -856 
Q 2344 -856 2625 -561 
Q 2906 -266 2906 331 
L 2906 616 
Q 2728 306 2450 153 
Q 2172 0 1784 0 
Q 1141 0 747 490 
Q 353 981 353 1791 
Q 353 2603 747 3093 
Q 1141 3584 1784 3584 
Q 2172 3584 2450 3431 
Q 2728 3278 2906 2969 
L 2906 3500 
L 3481 3500 
L 3481 434 
z
" transform="scale(0.015625)"/>
      <path id="DejaVuSans-20" transform="scale(0.015625)"/>
     </defs>
     <use xlink:href="#DejaVuSans-54"/>
     <use xlink:href="#DejaVuSans-72" x="46.333984"/>
     <use xlink:href="#DejaVuSans-61" x="87.447266"/>
     <use xlink:href="#DejaVuSans-69" x="148.726562"/>
     <use xlink:href="#DejaVuSans-6e" x="176.509766"/>
     <use xlink:href="#DejaVuSans-69" x="239.888672"/>
     <use xlink:href="#DejaVuSans-6e" x="267.671875"/>
     <use xlink:href="#DejaVuSans-67" x="331.050781"/>
     <use xlink:href="#DejaVuSans-20" x="394.527344"/>
     <use xlink:href="#DejaVuSans-4c" x="426.314453"/>
     <use xlink:href="#DejaVuSans-6f" x="480.277344"/>
     <use xlink:href="#DejaVuSans-73" x="541.458984"/>
     <use xlink:href="#DejaVuSans-73" x="593.558594"/>
    </g>
   </g>
  </g>
 </g>
 <defs>
  <clipPath id="p0d5d07d0f6">
   <rect x="57.6" y="41.472" width="357.12" height="266.112"/>
  </clipPath>
 </defs>
</svg>
