<?xml version="1.0" encoding="utf-8" standalone="no"?>
<!DOCTYPE svg PUBLIC "-//W3C//DTD SVG 1.1//EN"
  "http://www.w3.org/Graphics/SVG/1.1/DTD/svg11.dtd">
<svg xmlns:xlink="http://www.w3.org/1999/xlink" width="460.8pt" height="345.6pt" viewBox="0 0 460.8 345.6" xmlns="http://www.w3.org/2000/svg" version="1.1">
 <metadata>
  <rdf:RDF xmlns:dc="http://purl.org/dc/elements/1.1/" xmlns:cc="http://creativecommons.org/ns#" xmlns:rdf="http://www.w3.org/1999/02/22-rdf-syntax-ns#">
   <cc:Work>
    <dc:type rdf:resource="http://purl.org/dc/dcmitype/StillImage"/>
    <dc:date>2023-10-12T11:59:50.753028</dc:date>
    <dc:format>image/svg+xml</dc:format>
    <dc:creator>
     <cc:Agent>
      <dc:title>Matplotlib v3.7.2, https://matplotlib.org/</dc:title>
     </cc:Agent>
    </dc:creator>
   </cc:Work>
  </rdf:RDF>
 </metadata>
 <defs>
  <style type="text/css">*{stroke-linejoin: round; stroke-linecap: butt}</style>
 </defs>
 <g id="figure_1">
  <g id="patch_1">
   <path d="M 0 345.6 
L 460.8 345.6 
L 460.8 0 
L 0 0 
z
" style="fill: #ffffff"/>
  </g>
  <g id="axes_1">
   <g id="patch_2">
    <path d="M 57.6 307.584 
L 414.72 307.584 
L 414.72 41.472 
L 57.6 41.472 
z
" style="fill: #ffffff"/>
   </g>
   <g id="matplotlib.axis_1">
    <g id="xtick_1">
     <g id="line2d_1">
      <defs>
       <path id="m132b6d2ee7" d="M 0 0 
L 0 3.5 
" style="stroke: #000000; stroke-width: 0.8"/>
      </defs>
      <g>
       <use xlink:href="#m132b6d2ee7" x="73.832727" y="307.584" style="stroke: #000000; stroke-width: 0.8"/>
      </g>
     </g>
     <g id="text_1">
      <!-- 0 -->
      <g transform="translate(70.651477 322.182437) scale(0.1 -0.1)">
       <defs>
        <path id="DejaVuSans-30" d="M 2034 4250 
Q 1547 4250 1301 3770 
Q 1056 3291 1056 2328 
Q 1056 1369 1301 889 
Q 1547 409 2034 409 
Q 2525 409 2770 889 
Q 3016 1369 3016 2328 
Q 3016 3291 2770 3770 
Q 2525 4250 2034 4250 
z
M 2034 4750 
Q 2819 4750 3233 4129 
Q 3647 3509 3647 2328 
Q 3647 1150 3233 529 
Q 2819 -91 2034 -91 
Q 1250 -91 836 529 
Q 422 1150 422 2328 
Q 422 3509 836 4129 
Q 1250 4750 2034 4750 
z
" transform="scale(0.015625)"/>
       </defs>
       <use xlink:href="#DejaVuSans-30"/>
      </g>
     </g>
    </g>
    <g id="xtick_2">
     <g id="line2d_2">
      <g>
       <use xlink:href="#m132b6d2ee7" x="138.776625" y="307.584" style="stroke: #000000; stroke-width: 0.8"/>
      </g>
     </g>
     <g id="text_2">
      <!-- 1000 -->
      <g transform="translate(126.051625 322.182437) scale(0.1 -0.1)">
       <defs>
        <path id="DejaVuSans-31" d="M 794 531 
L 1825 531 
L 1825 4091 
L 703 3866 
L 703 4441 
L 1819 4666 
L 2450 4666 
L 2450 531 
L 3481 531 
L 3481 0 
L 794 0 
L 794 531 
z
" transform="scale(0.015625)"/>
       </defs>
       <use xlink:href="#DejaVuSans-31"/>
       <use xlink:href="#DejaVuSans-30" x="63.623047"/>
       <use xlink:href="#DejaVuSans-30" x="127.246094"/>
       <use xlink:href="#DejaVuSans-30" x="190.869141"/>
      </g>
     </g>
    </g>
    <g id="xtick_3">
     <g id="line2d_3">
      <g>
       <use xlink:href="#m132b6d2ee7" x="203.720523" y="307.584" style="stroke: #000000; stroke-width: 0.8"/>
      </g>
     </g>
     <g id="text_3">
      <!-- 2000 -->
      <g transform="translate(190.995523 322.182437) scale(0.1 -0.1)">
       <defs>
        <path id="DejaVuSans-32" d="M 1228 531 
L 3431 531 
L 3431 0 
L 469 0 
L 469 531 
Q 828 903 1448 1529 
Q 2069 2156 2228 2338 
Q 2531 2678 2651 2914 
Q 2772 3150 2772 3378 
Q 2772 3750 2511 3984 
Q 2250 4219 1831 4219 
Q 1534 4219 1204 4116 
Q 875 4013 500 3803 
L 500 4441 
Q 881 4594 1212 4672 
Q 1544 4750 1819 4750 
Q 2544 4750 2975 4387 
Q 3406 4025 3406 3419 
Q 3406 3131 3298 2873 
Q 3191 2616 2906 2266 
Q 2828 2175 2409 1742 
Q 1991 1309 1228 531 
z
" transform="scale(0.015625)"/>
       </defs>
       <use xlink:href="#DejaVuSans-32"/>
       <use xlink:href="#DejaVuSans-30" x="63.623047"/>
       <use xlink:href="#DejaVuSans-30" x="127.246094"/>
       <use xlink:href="#DejaVuSans-30" x="190.869141"/>
      </g>
     </g>
    </g>
    <g id="xtick_4">
     <g id="line2d_4">
      <g>
       <use xlink:href="#m132b6d2ee7" x="268.664421" y="307.584" style="stroke: #000000; stroke-width: 0.8"/>
      </g>
     </g>
     <g id="text_4">
      <!-- 3000 -->
      <g transform="translate(255.939421 322.182437) scale(0.1 -0.1)">
       <defs>
        <path id="DejaVuSans-33" d="M 2597 2516 
Q 3050 2419 3304 2112 
Q 3559 1806 3559 1356 
Q 3559 666 3084 287 
Q 2609 -91 1734 -91 
Q 1441 -91 1130 -33 
Q 819 25 488 141 
L 488 750 
Q 750 597 1062 519 
Q 1375 441 1716 441 
Q 2309 441 2620 675 
Q 2931 909 2931 1356 
Q 2931 1769 2642 2001 
Q 2353 2234 1838 2234 
L 1294 2234 
L 1294 2753 
L 1863 2753 
Q 2328 2753 2575 2939 
Q 2822 3125 2822 3475 
Q 2822 3834 2567 4026 
Q 2313 4219 1838 4219 
Q 1578 4219 1281 4162 
Q 984 4106 628 3988 
L 628 4550 
Q 988 4650 1302 4700 
Q 1616 4750 1894 4750 
Q 2613 4750 3031 4423 
Q 3450 4097 3450 3541 
Q 3450 3153 3228 2886 
Q 3006 2619 2597 2516 
z
" transform="scale(0.015625)"/>
       </defs>
       <use xlink:href="#DejaVuSans-33"/>
       <use xlink:href="#DejaVuSans-30" x="63.623047"/>
       <use xlink:href="#DejaVuSans-30" x="127.246094"/>
       <use xlink:href="#DejaVuSans-30" x="190.869141"/>
      </g>
     </g>
    </g>
    <g id="xtick_5">
     <g id="line2d_5">
      <g>
       <use xlink:href="#m132b6d2ee7" x="333.608319" y="307.584" style="stroke: #000000; stroke-width: 0.8"/>
      </g>
     </g>
     <g id="text_5">
      <!-- 4000 -->
      <g transform="translate(320.883319 322.182437) scale(0.1 -0.1)">
       <defs>
        <path id="DejaVuSans-34" d="M 2419 4116 
L 825 1625 
L 2419 1625 
L 2419 4116 
z
M 2253 4666 
L 3047 4666 
L 3047 1625 
L 3713 1625 
L 3713 1100 
L 3047 1100 
L 3047 0 
L 2419 0 
L 2419 1100 
L 313 1100 
L 313 1709 
L 2253 4666 
z
" transform="scale(0.015625)"/>
       </defs>
       <use xlink:href="#DejaVuSans-34"/>
       <use xlink:href="#DejaVuSans-30" x="63.623047"/>
       <use xlink:href="#DejaVuSans-30" x="127.246094"/>
       <use xlink:href="#DejaVuSans-30" x="190.869141"/>
      </g>
     </g>
    </g>
    <g id="xtick_6">
     <g id="line2d_6">
      <g>
       <use xlink:href="#m132b6d2ee7" x="398.552217" y="307.584" style="stroke: #000000; stroke-width: 0.8"/>
      </g>
     </g>
     <g id="text_6">
      <!-- 5000 -->
      <g transform="translate(385.827217 322.182437) scale(0.1 -0.1)">
       <defs>
        <path id="DejaVuSans-35" d="M 691 4666 
L 3169 4666 
L 3169 4134 
L 1269 4134 
L 1269 2991 
Q 1406 3038 1543 3061 
Q 1681 3084 1819 3084 
Q 2600 3084 3056 2656 
Q 3513 2228 3513 1497 
Q 3513 744 3044 326 
Q 2575 -91 1722 -91 
Q 1428 -91 1123 -41 
Q 819 9 494 109 
L 494 744 
Q 775 591 1075 516 
Q 1375 441 1709 441 
Q 2250 441 2565 725 
Q 2881 1009 2881 1497 
Q 2881 1984 2565 2268 
Q 2250 2553 1709 2553 
Q 1456 2553 1204 2497 
Q 953 2441 691 2322 
L 691 4666 
z
" transform="scale(0.015625)"/>
       </defs>
       <use xlink:href="#DejaVuSans-35"/>
       <use xlink:href="#DejaVuSans-30" x="63.623047"/>
       <use xlink:href="#DejaVuSans-30" x="127.246094"/>
       <use xlink:href="#DejaVuSans-30" x="190.869141"/>
      </g>
     </g>
    </g>
    <g id="text_7">
     <!-- Epoch -->
     <g transform="translate(220.849063 335.860562) scale(0.1 -0.1)">
      <defs>
       <path id="DejaVuSans-45" d="M 628 4666 
L 3578 4666 
L 3578 4134 
L 1259 4134 
L 1259 2753 
L 3481 2753 
L 3481 2222 
L 1259 2222 
L 1259 531 
L 3634 531 
L 3634 0 
L 628 0 
L 628 4666 
z
" transform="scale(0.015625)"/>
       <path id="DejaVuSans-70" d="M 1159 525 
L 1159 -1331 
L 581 -1331 
L 581 3500 
L 1159 3500 
L 1159 2969 
Q 1341 3281 1617 3432 
Q 1894 3584 2278 3584 
Q 2916 3584 3314 3078 
Q 3713 2572 3713 1747 
Q 3713 922 3314 415 
Q 2916 -91 2278 -91 
Q 1894 -91 1617 61 
Q 1341 213 1159 525 
z
M 3116 1747 
Q 3116 2381 2855 2742 
Q 2594 3103 2138 3103 
Q 1681 3103 1420 2742 
Q 1159 2381 1159 1747 
Q 1159 1113 1420 752 
Q 1681 391 2138 391 
Q 2594 391 2855 752 
Q 3116 1113 3116 1747 
z
" transform="scale(0.015625)"/>
       <path id="DejaVuSans-6f" d="M 1959 3097 
Q 1497 3097 1228 2736 
Q 959 2375 959 1747 
Q 959 1119 1226 758 
Q 1494 397 1959 397 
Q 2419 397 2687 759 
Q 2956 1122 2956 1747 
Q 2956 2369 2687 2733 
Q 2419 3097 1959 3097 
z
M 1959 3584 
Q 2709 3584 3137 3096 
Q 3566 2609 3566 1747 
Q 3566 888 3137 398 
Q 2709 -91 1959 -91 
Q 1206 -91 779 398 
Q 353 888 353 1747 
Q 353 2609 779 3096 
Q 1206 3584 1959 3584 
z
" transform="scale(0.015625)"/>
       <path id="DejaVuSans-63" d="M 3122 3366 
L 3122 2828 
Q 2878 2963 2633 3030 
Q 2388 3097 2138 3097 
Q 1578 3097 1268 2742 
Q 959 2388 959 1747 
Q 959 1106 1268 751 
Q 1578 397 2138 397 
Q 2388 397 2633 464 
Q 2878 531 3122 666 
L 3122 134 
Q 2881 22 2623 -34 
Q 2366 -91 2075 -91 
Q 1284 -91 818 406 
Q 353 903 353 1747 
Q 353 2603 823 3093 
Q 1294 3584 2113 3584 
Q 2378 3584 2631 3529 
Q 2884 3475 3122 3366 
z
" transform="scale(0.015625)"/>
       <path id="DejaVuSans-68" d="M 3513 2113 
L 3513 0 
L 2938 0 
L 2938 2094 
Q 2938 2591 2744 2837 
Q 2550 3084 2163 3084 
Q 1697 3084 1428 2787 
Q 1159 2491 1159 1978 
L 1159 0 
L 581 0 
L 581 4863 
L 1159 4863 
L 1159 2956 
Q 1366 3272 1645 3428 
Q 1925 3584 2291 3584 
Q 2894 3584 3203 3211 
Q 3513 2838 3513 2113 
z
" transform="scale(0.015625)"/>
      </defs>
      <use xlink:href="#DejaVuSans-45"/>
      <use xlink:href="#DejaVuSans-70" x="63.183594"/>
      <use xlink:href="#DejaVuSans-6f" x="126.660156"/>
      <use xlink:href="#DejaVuSans-63" x="187.841797"/>
      <use xlink:href="#DejaVuSans-68" x="242.822266"/>
     </g>
    </g>
   </g>
   <g id="matplotlib.axis_2">
    <g id="ytick_1">
     <g id="line2d_7">
      <defs>
       <path id="m022ee2b0fd" d="M 0 0 
L -3.5 0 
" style="stroke: #000000; stroke-width: 0.8"/>
      </defs>
      <g>
       <use xlink:href="#m022ee2b0fd" x="57.6" y="265.769523" style="stroke: #000000; stroke-width: 0.8"/>
      </g>
     </g>
     <g id="text_8">
      <!-- $\mathdefault{10^{2}}$ -->
      <g transform="translate(33 269.568742) scale(0.1 -0.1)">
       <use xlink:href="#DejaVuSans-31" transform="translate(0 0.765625)"/>
       <use xlink:href="#DejaVuSans-30" transform="translate(63.623047 0.765625)"/>
       <use xlink:href="#DejaVuSans-32" transform="translate(128.203125 39.046875) scale(0.7)"/>
      </g>
     </g>
    </g>
    <g id="ytick_2">
     <g id="line2d_8">
      <g>
       <use xlink:href="#m022ee2b0fd" x="57.6" y="218.766" style="stroke: #000000; stroke-width: 0.8"/>
      </g>
     </g>
     <g id="text_9">
      <!-- $\mathdefault{10^{3}}$ -->
      <g transform="translate(33 222.565219) scale(0.1 -0.1)">
       <use xlink:href="#DejaVuSans-31" transform="translate(0 0.765625)"/>
       <use xlink:href="#DejaVuSans-30" transform="translate(63.623047 0.765625)"/>
       <use xlink:href="#DejaVuSans-33" transform="translate(128.203125 39.046875) scale(0.7)"/>
      </g>
     </g>
    </g>
    <g id="ytick_3">
     <g id="line2d_9">
      <g>
       <use xlink:href="#m022ee2b0fd" x="57.6" y="171.762477" style="stroke: #000000; stroke-width: 0.8"/>
      </g>
     </g>
     <g id="text_10">
      <!-- $\mathdefault{10^{4}}$ -->
      <g transform="translate(33 175.561696) scale(0.1 -0.1)">
       <use xlink:href="#DejaVuSans-31" transform="translate(0 0.684375)"/>
       <use xlink:href="#DejaVuSans-30" transform="translate(63.623047 0.684375)"/>
       <use xlink:href="#DejaVuSans-34" transform="translate(128.203125 38.965625) scale(0.7)"/>
      </g>
     </g>
    </g>
    <g id="ytick_4">
     <g id="line2d_10">
      <g>
       <use xlink:href="#m022ee2b0fd" x="57.6" y="124.758954" style="stroke: #000000; stroke-width: 0.8"/>
      </g>
     </g>
     <g id="text_11">
      <!-- $\mathdefault{10^{5}}$ -->
      <g transform="translate(33 128.558173) scale(0.1 -0.1)">
       <use xlink:href="#DejaVuSans-31" transform="translate(0 0.684375)"/>
       <use xlink:href="#DejaVuSans-30" transform="translate(63.623047 0.684375)"/>
       <use xlink:href="#DejaVuSans-35" transform="translate(128.203125 38.965625) scale(0.7)"/>
      </g>
     </g>
    </g>
    <g id="ytick_5">
     <g id="line2d_11">
      <g>
       <use xlink:href="#m022ee2b0fd" x="57.6" y="77.755431" style="stroke: #000000; stroke-width: 0.8"/>
      </g>
     </g>
     <g id="text_12">
      <!-- $\mathdefault{10^{6}}$ -->
      <g transform="translate(33 81.55465) scale(0.1 -0.1)">
       <defs>
        <path id="DejaVuSans-36" d="M 2113 2584 
Q 1688 2584 1439 2293 
Q 1191 2003 1191 1497 
Q 1191 994 1439 701 
Q 1688 409 2113 409 
Q 2538 409 2786 701 
Q 3034 994 3034 1497 
Q 3034 2003 2786 2293 
Q 2538 2584 2113 2584 
z
M 3366 4563 
L 3366 3988 
Q 3128 4100 2886 4159 
Q 2644 4219 2406 4219 
Q 1781 4219 1451 3797 
Q 1122 3375 1075 2522 
Q 1259 2794 1537 2939 
Q 1816 3084 2150 3084 
Q 2853 3084 3261 2657 
Q 3669 2231 3669 1497 
Q 3669 778 3244 343 
Q 2819 -91 2113 -91 
Q 1303 -91 875 529 
Q 447 1150 447 2328 
Q 447 3434 972 4092 
Q 1497 4750 2381 4750 
Q 2619 4750 2861 4703 
Q 3103 4656 3366 4563 
z
" transform="scale(0.015625)"/>
       </defs>
       <use xlink:href="#DejaVuSans-31" transform="translate(0 0.765625)"/>
       <use xlink:href="#DejaVuSans-30" transform="translate(63.623047 0.765625)"/>
       <use xlink:href="#DejaVuSans-36" transform="translate(128.203125 39.046875) scale(0.7)"/>
      </g>
     </g>
    </g>
    <g id="ytick_6">
     <g id="line2d_12">
      <defs>
       <path id="md06a00dc80" d="M 0 0 
L -2 0 
" style="stroke: #000000; stroke-width: 0.6"/>
      </defs>
      <g>
       <use xlink:href="#md06a00dc80" x="57.6" y="298.623576" style="stroke: #000000; stroke-width: 0.6"/>
      </g>
     </g>
    </g>
    <g id="ytick_7">
     <g id="line2d_13">
      <g>
       <use xlink:href="#md06a00dc80" x="57.6" y="290.346666" style="stroke: #000000; stroke-width: 0.6"/>
      </g>
     </g>
    </g>
    <g id="ytick_8">
     <g id="line2d_14">
      <g>
       <use xlink:href="#md06a00dc80" x="57.6" y="284.474105" style="stroke: #000000; stroke-width: 0.6"/>
      </g>
     </g>
    </g>
    <g id="ytick_9">
     <g id="line2d_15">
      <g>
       <use xlink:href="#md06a00dc80" x="57.6" y="279.918993" style="stroke: #000000; stroke-width: 0.6"/>
      </g>
     </g>
    </g>
    <g id="ytick_10">
     <g id="line2d_16">
      <g>
       <use xlink:href="#md06a00dc80" x="57.6" y="276.197196" style="stroke: #000000; stroke-width: 0.6"/>
      </g>
     </g>
    </g>
    <g id="ytick_11">
     <g id="line2d_17">
      <g>
       <use xlink:href="#md06a00dc80" x="57.6" y="273.050461" style="stroke: #000000; stroke-width: 0.6"/>
      </g>
     </g>
    </g>
    <g id="ytick_12">
     <g id="line2d_18">
      <g>
       <use xlink:href="#md06a00dc80" x="57.6" y="270.324635" style="stroke: #000000; stroke-width: 0.6"/>
      </g>
     </g>
    </g>
    <g id="ytick_13">
     <g id="line2d_19">
      <g>
       <use xlink:href="#md06a00dc80" x="57.6" y="267.920286" style="stroke: #000000; stroke-width: 0.6"/>
      </g>
     </g>
    </g>
    <g id="ytick_14">
     <g id="line2d_20">
      <g>
       <use xlink:href="#md06a00dc80" x="57.6" y="251.620053" style="stroke: #000000; stroke-width: 0.6"/>
      </g>
     </g>
    </g>
    <g id="ytick_15">
     <g id="line2d_21">
      <g>
       <use xlink:href="#md06a00dc80" x="57.6" y="243.343143" style="stroke: #000000; stroke-width: 0.6"/>
      </g>
     </g>
    </g>
    <g id="ytick_16">
     <g id="line2d_22">
      <g>
       <use xlink:href="#md06a00dc80" x="57.6" y="237.470583" style="stroke: #000000; stroke-width: 0.6"/>
      </g>
     </g>
    </g>
    <g id="ytick_17">
     <g id="line2d_23">
      <g>
       <use xlink:href="#md06a00dc80" x="57.6" y="232.915471" style="stroke: #000000; stroke-width: 0.6"/>
      </g>
     </g>
    </g>
    <g id="ytick_18">
     <g id="line2d_24">
      <g>
       <use xlink:href="#md06a00dc80" x="57.6" y="229.193673" style="stroke: #000000; stroke-width: 0.6"/>
      </g>
     </g>
    </g>
    <g id="ytick_19">
     <g id="line2d_25">
      <g>
       <use xlink:href="#md06a00dc80" x="57.6" y="226.046938" style="stroke: #000000; stroke-width: 0.6"/>
      </g>
     </g>
    </g>
    <g id="ytick_20">
     <g id="line2d_26">
      <g>
       <use xlink:href="#md06a00dc80" x="57.6" y="223.321112" style="stroke: #000000; stroke-width: 0.6"/>
      </g>
     </g>
    </g>
    <g id="ytick_21">
     <g id="line2d_27">
      <g>
       <use xlink:href="#md06a00dc80" x="57.6" y="220.916763" style="stroke: #000000; stroke-width: 0.6"/>
      </g>
     </g>
    </g>
    <g id="ytick_22">
     <g id="line2d_28">
      <g>
       <use xlink:href="#md06a00dc80" x="57.6" y="204.61653" style="stroke: #000000; stroke-width: 0.6"/>
      </g>
     </g>
    </g>
    <g id="ytick_23">
     <g id="line2d_29">
      <g>
       <use xlink:href="#md06a00dc80" x="57.6" y="196.33962" style="stroke: #000000; stroke-width: 0.6"/>
      </g>
     </g>
    </g>
    <g id="ytick_24">
     <g id="line2d_30">
      <g>
       <use xlink:href="#md06a00dc80" x="57.6" y="190.46706" style="stroke: #000000; stroke-width: 0.6"/>
      </g>
     </g>
    </g>
    <g id="ytick_25">
     <g id="line2d_31">
      <g>
       <use xlink:href="#md06a00dc80" x="57.6" y="185.911948" style="stroke: #000000; stroke-width: 0.6"/>
      </g>
     </g>
    </g>
    <g id="ytick_26">
     <g id="line2d_32">
      <g>
       <use xlink:href="#md06a00dc80" x="57.6" y="182.19015" style="stroke: #000000; stroke-width: 0.6"/>
      </g>
     </g>
    </g>
    <g id="ytick_27">
     <g id="line2d_33">
      <g>
       <use xlink:href="#md06a00dc80" x="57.6" y="179.043415" style="stroke: #000000; stroke-width: 0.6"/>
      </g>
     </g>
    </g>
    <g id="ytick_28">
     <g id="line2d_34">
      <g>
       <use xlink:href="#md06a00dc80" x="57.6" y="176.317589" style="stroke: #000000; stroke-width: 0.6"/>
      </g>
     </g>
    </g>
    <g id="ytick_29">
     <g id="line2d_35">
      <g>
       <use xlink:href="#md06a00dc80" x="57.6" y="173.913241" style="stroke: #000000; stroke-width: 0.6"/>
      </g>
     </g>
    </g>
    <g id="ytick_30">
     <g id="line2d_36">
      <g>
       <use xlink:href="#md06a00dc80" x="57.6" y="157.613007" style="stroke: #000000; stroke-width: 0.6"/>
      </g>
     </g>
    </g>
    <g id="ytick_31">
     <g id="line2d_37">
      <g>
       <use xlink:href="#md06a00dc80" x="57.6" y="149.336097" style="stroke: #000000; stroke-width: 0.6"/>
      </g>
     </g>
    </g>
    <g id="ytick_32">
     <g id="line2d_38">
      <g>
       <use xlink:href="#md06a00dc80" x="57.6" y="143.463537" style="stroke: #000000; stroke-width: 0.6"/>
      </g>
     </g>
    </g>
    <g id="ytick_33">
     <g id="line2d_39">
      <g>
       <use xlink:href="#md06a00dc80" x="57.6" y="138.908425" style="stroke: #000000; stroke-width: 0.6"/>
      </g>
     </g>
    </g>
    <g id="ytick_34">
     <g id="line2d_40">
      <g>
       <use xlink:href="#md06a00dc80" x="57.6" y="135.186627" style="stroke: #000000; stroke-width: 0.6"/>
      </g>
     </g>
    </g>
    <g id="ytick_35">
     <g id="line2d_41">
      <g>
       <use xlink:href="#md06a00dc80" x="57.6" y="132.039892" style="stroke: #000000; stroke-width: 0.6"/>
      </g>
     </g>
    </g>
    <g id="ytick_36">
     <g id="line2d_42">
      <g>
       <use xlink:href="#md06a00dc80" x="57.6" y="129.314066" style="stroke: #000000; stroke-width: 0.6"/>
      </g>
     </g>
    </g>
    <g id="ytick_37">
     <g id="line2d_43">
      <g>
       <use xlink:href="#md06a00dc80" x="57.6" y="126.909718" style="stroke: #000000; stroke-width: 0.6"/>
      </g>
     </g>
    </g>
    <g id="ytick_38">
     <g id="line2d_44">
      <g>
       <use xlink:href="#md06a00dc80" x="57.6" y="110.609484" style="stroke: #000000; stroke-width: 0.6"/>
      </g>
     </g>
    </g>
    <g id="ytick_39">
     <g id="line2d_45">
      <g>
       <use xlink:href="#md06a00dc80" x="57.6" y="102.332574" style="stroke: #000000; stroke-width: 0.6"/>
      </g>
     </g>
    </g>
    <g id="ytick_40">
     <g id="line2d_46">
      <g>
       <use xlink:href="#md06a00dc80" x="57.6" y="96.460014" style="stroke: #000000; stroke-width: 0.6"/>
      </g>
     </g>
    </g>
    <g id="ytick_41">
     <g id="line2d_47">
      <g>
       <use xlink:href="#md06a00dc80" x="57.6" y="91.904902" style="stroke: #000000; stroke-width: 0.6"/>
      </g>
     </g>
    </g>
    <g id="ytick_42">
     <g id="line2d_48">
      <g>
       <use xlink:href="#md06a00dc80" x="57.6" y="88.183104" style="stroke: #000000; stroke-width: 0.6"/>
      </g>
     </g>
    </g>
    <g id="ytick_43">
     <g id="line2d_49">
      <g>
       <use xlink:href="#md06a00dc80" x="57.6" y="85.036369" style="stroke: #000000; stroke-width: 0.6"/>
      </g>
     </g>
    </g>
    <g id="ytick_44">
     <g id="line2d_50">
      <g>
       <use xlink:href="#md06a00dc80" x="57.6" y="82.310543" style="stroke: #000000; stroke-width: 0.6"/>
      </g>
     </g>
    </g>
    <g id="ytick_45">
     <g id="line2d_51">
      <g>
       <use xlink:href="#md06a00dc80" x="57.6" y="79.906195" style="stroke: #000000; stroke-width: 0.6"/>
      </g>
     </g>
    </g>
    <g id="ytick_46">
     <g id="line2d_52">
      <g>
       <use xlink:href="#md06a00dc80" x="57.6" y="63.605961" style="stroke: #000000; stroke-width: 0.6"/>
      </g>
     </g>
    </g>
    <g id="ytick_47">
     <g id="line2d_53">
      <g>
       <use xlink:href="#md06a00dc80" x="57.6" y="55.329052" style="stroke: #000000; stroke-width: 0.6"/>
      </g>
     </g>
    </g>
    <g id="ytick_48">
     <g id="line2d_54">
      <g>
       <use xlink:href="#md06a00dc80" x="57.6" y="49.456491" style="stroke: #000000; stroke-width: 0.6"/>
      </g>
     </g>
    </g>
    <g id="ytick_49">
     <g id="line2d_55">
      <g>
       <use xlink:href="#md06a00dc80" x="57.6" y="44.901379" style="stroke: #000000; stroke-width: 0.6"/>
      </g>
     </g>
    </g>
    <g id="text_13">
     <!-- Loss -->
     <g transform="translate(26.920313 185.495187) rotate(-90) scale(0.1 -0.1)">
      <defs>
       <path id="DejaVuSans-4c" d="M 628 4666 
L 1259 4666 
L 1259 531 
L 3531 531 
L 3531 0 
L 628 0 
L 628 4666 
z
" transform="scale(0.015625)"/>
       <path id="DejaVuSans-73" d="M 2834 3397 
L 2834 2853 
Q 2591 2978 2328 3040 
Q 2066 3103 1784 3103 
Q 1356 3103 1142 2972 
Q 928 2841 928 2578 
Q 928 2378 1081 2264 
Q 1234 2150 1697 2047 
L 1894 2003 
Q 2506 1872 2764 1633 
Q 3022 1394 3022 966 
Q 3022 478 2636 193 
Q 2250 -91 1575 -91 
Q 1294 -91 989 -36 
Q 684 19 347 128 
L 347 722 
Q 666 556 975 473 
Q 1284 391 1588 391 
Q 1994 391 2212 530 
Q 2431 669 2431 922 
Q 2431 1156 2273 1281 
Q 2116 1406 1581 1522 
L 1381 1569 
Q 847 1681 609 1914 
Q 372 2147 372 2553 
Q 372 3047 722 3315 
Q 1072 3584 1716 3584 
Q 2034 3584 2315 3537 
Q 2597 3491 2834 3397 
z
" transform="scale(0.015625)"/>
      </defs>
      <use xlink:href="#DejaVuSans-4c"/>
      <use xlink:href="#DejaVuSans-6f" x="53.962891"/>
      <use xlink:href="#DejaVuSans-73" x="115.144531"/>
      <use xlink:href="#DejaVuSans-73" x="167.244141"/>
     </g>
    </g>
   </g>
   <g id="line2d_56">
    <path d="M 73.832727 53.568 
L 74.612054 53.67252 
L 74.87183 53.939 
L 75.066661 54.485962 
L 75.261493 55.76145 
L 75.456325 58.671238 
L 75.651156 65.44122 
L 75.845988 82.317348 
L 75.975876 98.683505 
L 76.170708 80.697639 
L 76.235651 83.575336 
L 76.495427 102.045452 
L 76.820147 92.278731 
L 76.950034 94.140705 
L 77.274754 101.316224 
L 77.469586 98.715355 
L 77.534529 98.861727 
L 77.794305 102.599238 
L 77.859249 102.583014 
L 78.119025 101.076528 
L 78.183968 101.184526 
L 78.508688 102.583468 
L 78.768464 102.302173 
L 79.093183 102.878513 
L 79.352959 102.712959 
L 79.742622 102.981568 
L 80.002398 103.049196 
L 80.327117 103.135913 
L 80.781724 103.262282 
L 81.755883 103.555172 
L 82.665097 103.993002 
L 83.314536 104.522454 
L 83.963975 105.298253 
L 84.54847 106.34383 
L 85.068022 107.715323 
L 85.522629 109.49221 
L 85.977236 112.282196 
L 86.3669 116.282125 
L 86.821507 123.746001 
L 87.600834 140.503215 
L 87.665778 139.560785 
L 87.795665 144.135062 
L 87.860609 142.881075 
L 87.990497 147.895816 
L 88.055441 146.190319 
L 88.120385 146.913288 
L 88.250273 150.475082 
L 88.315216 148.789211 
L 88.510048 153.82736 
L 88.639936 151.776632 
L 88.834768 157.500074 
L 88.899712 156.766445 
L 89.094543 152.447814 
L 89.159487 153.807576 
L 89.354319 160.921907 
L 89.419263 159.849962 
L 89.549151 155.072669 
L 89.614094 155.425256 
L 89.679038 156.841481 
L 89.808926 163.533613 
L 89.87387 162.735228 
L 90.003758 157.255242 
L 90.068702 157.592988 
L 90.133646 159.065055 
L 90.263533 165.355989 
L 90.393421 162.042089 
L 90.458365 160.281487 
L 90.523309 161.303941 
L 90.718141 167.115691 
L 90.783085 165.958903 
L 90.912972 163.141445 
L 91.04286 165.226857 
L 91.172748 168.343787 
L 91.237692 168.316297 
L 91.497467 165.089326 
L 91.562411 165.424144 
L 91.692299 167.056318 
L 91.952075 170.008694 
L 92.017019 170.04626 
L 92.146906 169.417275 
L 92.276794 167.301983 
L 92.601514 158.059281 
L 92.796345 170.295784 
L 92.926233 162.448272 
L 92.991177 164.555097 
L 93.121065 171.182381 
L 93.250953 166.292302 
L 93.315897 166.976445 
L 93.445784 171.435761 
L 93.510728 170.612503 
L 93.575672 168.691834 
L 93.640616 168.716853 
L 93.770504 171.599395 
L 93.835448 171.344535 
L 93.965336 169.651902 
L 94.095223 171.282171 
L 94.160167 171.924492 
L 94.225111 171.653898 
L 94.354999 170.632443 
L 94.614775 172.192594 
L 94.679718 171.937788 
L 94.87455 170.959029 
L 95.004438 171.778453 
L 95.134326 172.465489 
L 95.19927 172.412421 
L 95.523989 171.71816 
L 95.978596 172.779406 
L 96.238372 172.466645 
L 96.433204 171.872758 
L 96.563092 170.890413 
L 96.692979 168.089434 
L 96.952755 158.329951 
L 97.017699 158.444158 
L 97.147587 172.084363 
L 97.212531 171.694515 
L 97.342418 163.028427 
L 97.53725 172.86216 
L 97.667138 166.986936 
L 97.861969 173.058503 
L 97.991857 169.553083 
L 98.186689 173.120459 
L 98.316577 170.826059 
L 98.511408 173.342962 
L 98.641296 171.941096 
L 98.70624 172.246812 
L 98.836128 173.483327 
L 99.03096 172.64783 
L 99.225791 173.613144 
L 99.420623 173.107292 
L 99.680399 173.764317 
L 99.87523 173.530945 
L 100.329838 173.97805 
L 100.459725 173.981452 
L 100.914333 175.907539 
L 101.433884 176.589276 
L 101.628716 176.631509 
L 101.693659 176.35986 
L 101.823547 173.711897 
L 102.083323 167.946977 
L 102.343098 181.258448 
L 102.408042 180.136197 
L 102.53793 175.045145 
L 102.602874 175.185723 
L 102.667818 176.201849 
L 102.86265 186.934191 
L 102.927594 186.770516 
L 103.057481 184.54199 
L 103.122425 184.964449 
L 103.512089 201.860258 
L 103.577032 200.998316 
L 103.70692 200.13915 
L 103.836808 203.85494 
L 104.226471 234.219036 
L 104.291415 232.605834 
L 104.551191 215.084509 
L 104.940854 183.192017 
L 105.005798 185.299362 
L 105.070742 186.98152 
L 105.265574 235.125956 
L 105.330518 229.824943 
L 105.525349 198.371532 
L 105.655237 208.470812 
L 105.785125 241.141877 
L 105.850069 236.150676 
L 106.044901 210.990211 
L 106.109845 214.967847 
L 106.304676 243.142573 
L 106.499508 220.162666 
L 106.564452 220.402847 
L 106.824227 245.620762 
L 106.889171 245.017565 
L 107.278835 223.752864 
L 107.408722 225.937435 
L 107.668498 244.020202 
L 107.798386 250.385105 
L 107.86333 249.601088 
L 108.772544 219.218909 
L 108.837488 218.490718 
L 109.097264 213.386955 
L 109.292096 210.395184 
L 109.357039 210.95273 
L 109.421983 210.507905 
L 109.616815 218.717731 
L 109.811647 239.395263 
L 110.006478 258.112008 
L 110.266254 237.04501 
L 110.915693 185.654448 
L 111.045581 188.382971 
L 111.175469 211.94953 
L 111.305356 251.33578 
L 111.500188 197.287478 
L 111.565132 197.183549 
L 111.630076 198.473151 
L 111.759964 227.666064 
L 111.824908 258.112997 
L 111.889851 242.451664 
L 112.084683 208.481044 
L 112.214571 222.036111 
L 112.344459 262.827943 
L 112.604234 218.265743 
L 112.669178 218.404198 
L 112.799066 237.319029 
L 112.928954 262.86049 
L 113.123785 229.525994 
L 113.188729 228.5259 
L 113.253673 229.373097 
L 113.383561 243.176404 
L 113.513449 265.879016 
L 113.578393 263.493791 
L 113.838168 239.412132 
L 113.903112 239.353043 
L 113.968056 240.1667 
L 114.227832 260.145284 
L 114.422663 269.137109 
L 114.617495 260.643184 
L 115.072102 227.163431 
L 115.396822 196.540716 
L 115.656598 174.499182 
L 115.721541 171.807598 
L 115.851429 191.673629 
L 115.981317 243.79709 
L 116.176149 187.182589 
L 116.306036 217.472102 
L 116.37098 258.934015 
L 116.565812 202.630364 
L 116.630756 209.380242 
L 116.760644 261.885268 
L 116.955475 215.598228 
L 117.085363 257.935542 
L 117.150307 254.20025 
L 117.280195 223.275848 
L 117.345139 227.02939 
L 117.475027 261.996774 
L 117.539971 259.564866 
L 117.669858 235.313917 
L 117.734802 237.006388 
L 117.86469 264.413188 
L 117.929634 264.213368 
L 118.059522 244.313515 
L 118.124466 245.123183 
L 118.319297 268.75876 
L 118.384241 262.876388 
L 118.514129 252.085235 
L 118.644017 258.847155 
L 118.773905 269.876438 
L 119.03368 259.412414 
L 119.098624 261.441966 
L 119.293456 271.025746 
L 119.3584 270.303456 
L 119.553231 265.112099 
L 119.618175 265.422453 
L 119.942895 272.362724 
L 120.007839 272.257463 
L 120.397502 268.427438 
L 120.462446 268.495525 
L 120.592334 269.180344 
L 121.241773 273.701191 
L 121.436604 274.080773 
L 121.566492 274.008115 
L 121.69638 273.456615 
L 121.826268 271.774245 
L 121.956156 267.674258 
L 122.150987 253.469814 
L 122.670538 178.621066 
L 122.86537 155.747319 
L 122.995258 176.665643 
L 123.060202 223.694584 
L 123.125146 204.924008 
L 123.255034 172.635334 
L 123.319977 174.876891 
L 123.449865 240.191907 
L 123.579753 186.140343 
L 123.644697 194.884978 
L 123.709641 242.336226 
L 123.774585 216.745007 
L 123.839529 192.193642 
L 123.904473 195.249574 
L 123.969416 213.639763 
L 124.03436 263.701032 
L 124.164248 200.067982 
L 124.229192 211.273599 
L 124.294136 249.132761 
L 124.35908 236.58695 
L 124.488968 209.979308 
L 124.618855 264.891646 
L 124.748743 220.276278 
L 124.813687 225.657167 
L 124.878631 253.516321 
L 124.943575 252.061962 
L 125.073463 229.571315 
L 125.20335 266.563327 
L 125.333238 235.380693 
L 125.398182 240.687601 
L 125.52807 264.316946 
L 125.657958 243.09396 
L 125.787846 266.728851 
L 125.852789 262.643136 
L 125.982677 249.743797 
L 126.112565 268.556264 
L 126.177509 264.882084 
L 126.307397 255.91162 
L 126.437285 269.500272 
L 126.502228 267.402919 
L 126.632116 260.134279 
L 126.826948 270.20827 
L 126.956836 264.373407 
L 127.086724 269.267757 
L 127.151667 271.447572 
L 127.216611 270.33136 
L 127.346499 267.514431 
L 127.541331 272.230794 
L 127.606275 271.5993 
L 127.736163 269.869619 
L 127.995938 272.906181 
L 128.125826 271.805871 
L 128.19077 271.846264 
L 128.450545 273.76831 
L 128.645377 273.226757 
L 128.970097 274.637364 
L 129.164928 274.481408 
L 129.35976 275.135287 
L 129.554592 275.585861 
L 129.879311 275.796895 
L 130.463806 276.723031 
L 131.048301 277.310372 
L 131.827628 278.257932 
L 132.217291 278.477945 
L 132.347179 278.385205 
L 132.542011 277.717479 
L 132.736843 275.640276 
L 132.931674 269.272233 
L 133.126506 254.494515 
L 133.581113 183.830788 
L 133.840889 154.826912 
L 133.970777 183.623702 
L 134.035721 244.595356 
L 134.165608 171.604994 
L 134.230552 173.49265 
L 134.295496 182.136728 
L 134.36044 225.293471 
L 134.425384 211.915816 
L 134.490328 184.704188 
L 134.555272 189.109715 
L 134.68516 245.32685 
L 134.815047 189.885421 
L 134.879991 204.169252 
L 134.944935 246.390085 
L 135.009879 227.841696 
L 135.139767 204.26106 
L 135.269655 252.492338 
L 135.399542 211.799954 
L 135.464486 220.993717 
L 135.52943 255.27069 
L 135.594374 243.063284 
L 135.659318 221.142709 
L 135.724262 221.989509 
L 135.85415 264.421432 
L 135.984038 228.260456 
L 136.048981 235.426446 
L 136.178869 258.345847 
L 136.308757 236.372689 
L 136.438645 266.358495 
L 136.503589 255.49596 
L 136.568533 244.980118 
L 136.633477 246.412156 
L 136.763364 267.145517 
L 136.893252 250.581062 
L 136.958196 254.021871 
L 137.088084 267.604589 
L 137.217972 256.053729 
L 137.412803 268.878385 
L 137.477747 263.947775 
L 137.542691 260.688168 
L 137.607635 261.992116 
L 137.737523 270.013202 
L 137.932354 264.841715 
L 138.062242 270.392033 
L 138.127186 270.177266 
L 138.257074 267.27133 
L 138.451906 271.381457 
L 138.51685 270.780177 
L 138.646737 269.506991 
L 138.841569 272.069775 
L 138.906513 271.797962 
L 139.036401 270.944081 
L 139.296176 272.753678 
L 139.36112 272.550999 
L 139.491008 272.266754 
L 139.750784 273.420339 
L 139.815728 273.372141 
L 139.945615 273.258651 
L 140.140447 273.83973 
L 140.335279 274.103733 
L 140.465166 274.136763 
L 141.569213 275.580516 
L 142.738203 276.811893 
L 143.712361 277.67745 
L 143.907193 277.624168 
L 144.037081 277.277204 
L 144.166969 276.215609 
L 144.296856 273.45079 
L 144.491688 261.765206 
L 144.751464 228.074074 
L 145.271015 157.477822 
L 145.400903 176.039867 
L 145.530791 218.679018 
L 145.660678 176.32585 
L 145.725622 175.013796 
L 145.790566 195.02975 
L 145.85551 251.127344 
L 146.050342 191.205057 
L 146.18023 255.518649 
L 146.310117 199.256204 
L 146.375061 201.639469 
L 146.504949 256.714278 
L 146.634837 211.381617 
L 146.699781 219.482714 
L 146.764725 254.74269 
L 146.829668 242.780867 
L 146.959556 219.090197 
L 147.089444 262.967935 
L 147.154388 249.555237 
L 147.219332 229.596567 
L 147.284276 229.900832 
L 147.414164 267.027207 
L 147.479107 250.096899 
L 147.544051 235.83123 
L 147.608995 238.4831 
L 147.738883 269.347393 
L 147.803827 257.099095 
L 147.868771 244.630685 
L 147.933715 245.606923 
L 148.063603 269.57083 
L 148.128546 262.642613 
L 148.19349 252.391534 
L 148.258434 252.450881 
L 148.388322 270.238875 
L 148.453266 268.255366 
L 148.583154 257.878604 
L 148.777985 271.600353 
L 148.907873 262.970017 
L 148.972817 263.9823 
L 149.102705 272.740603 
L 149.167649 271.1451 
L 149.297537 266.668942 
L 149.492368 273.35409 
L 149.622256 269.77924 
L 149.6872 270.078128 
L 149.882032 273.830625 
L 150.011919 271.868133 
L 150.076863 272.089144 
L 150.271695 274.441493 
L 150.401583 273.345755 
L 150.466527 273.491611 
L 150.661358 275.00057 
L 150.85619 274.457107 
L 151.115966 275.467078 
L 151.245854 275.262668 
L 151.310797 275.325074 
L 151.570573 275.989478 
L 151.765405 276.008498 
L 152.155068 276.567164 
L 152.3499 276.738968 
L 152.739563 277.194202 
L 153.129227 277.606391 
L 154.233273 278.707532 
L 155.532151 279.824215 
L 155.662039 279.777005 
L 155.791926 279.495483 
L 155.921814 278.635141 
L 156.051702 276.387335 
L 156.18159 270.962027 
L 156.376421 252.241767 
L 157.090804 144.978899 
L 157.220692 206.578483 
L 157.35058 162.547355 
L 157.415524 173.271225 
L 157.480468 231.658834 
L 157.610356 163.081491 
L 157.740243 206.047792 
L 157.805187 174.255211 
L 157.870131 191.502112 
L 157.935075 221.038201 
L 158.000019 186.330837 
L 158.064963 194.749939 
L 158.129907 231.530271 
L 158.259795 197.453372 
L 158.389682 225.908809 
L 158.454626 204.0234 
L 158.51957 209.281353 
L 158.584514 237.109904 
L 158.714402 206.868809 
L 158.779346 231.630551 
L 158.84429 225.332596 
L 158.909233 209.892813 
L 159.039121 239.165953 
L 159.104065 219.767422 
L 159.169009 220.562177 
L 159.233953 238.684495 
L 159.298897 233.640547 
L 159.363841 223.65213 
L 159.493729 243.693886 
L 159.623616 229.484863 
L 159.68856 242.28917 
L 159.753504 242.173778 
L 159.818448 233.054797 
L 159.883392 237.570389 
L 159.948336 247.834901 
L 160.01328 242.151385 
L 160.078224 237.747568 
L 160.208111 249.929632 
L 160.337999 242.007074 
L 160.467887 251.361779 
L 160.597775 245.913381 
L 160.727663 253.16187 
L 160.85755 248.988627 
L 160.987438 254.898666 
L 161.117326 251.847203 
L 161.247214 256.441786 
L 161.312158 255.220005 
L 161.377102 254.240057 
L 161.506989 257.753612 
L 161.571933 257.487954 
L 161.636877 256.525134 
L 161.701821 257.115823 
L 161.831709 259.331058 
L 161.961597 258.596719 
L 162.091484 260.589158 
L 162.156428 260.571663 
L 162.221372 260.23219 
L 162.35126 261.466655 
L 162.416204 261.967324 
L 162.481148 261.866406 
L 162.546092 261.822406 
L 162.740923 263.225331 
L 162.805867 263.209193 
L 162.870811 263.298075 
L 163.130587 264.460817 
L 163.260475 264.891645 
L 163.52025 265.736522 
L 164.169689 267.762047 
L 166.377782 272.487639 
L 168.066323 274.90644 
L 170.274416 277.496807 
L 170.404303 277.639726 
L 170.469247 277.513656 
L 170.599135 270.702118 
L 171.053742 221.652019 
L 171.50835 168.64703 
L 171.638237 174.30172 
L 171.833069 249.13958 
L 172.027901 183.977924 
L 172.092845 184.921703 
L 172.222733 238.976409 
L 172.287676 232.463861 
L 172.417564 195.216874 
L 172.547452 214.191122 
L 172.612396 250.653101 
L 172.67734 247.758283 
L 172.807228 212.20917 
L 172.872172 215.193307 
L 173.002059 268.519007 
L 173.196891 219.681336 
L 173.326779 251.148421 
L 173.391723 270.447097 
L 173.521611 233.405804 
L 173.586554 235.222034 
L 173.716442 269.024468 
L 173.781386 263.522576 
L 173.911274 241.915794 
L 173.976218 244.604508 
L 174.106106 271.818579 
L 174.171049 266.058973 
L 174.300937 250.602083 
L 174.430825 265.042035 
L 174.495769 273.284311 
L 174.560713 268.569251 
L 174.690601 258.666774 
L 174.820488 268.316861 
L 174.885432 273.830939 
L 174.950376 271.978588 
L 175.080264 264.342457 
L 175.145208 265.73673 
L 175.34004 274.590609 
L 175.534871 269.263116 
L 175.729703 275.404285 
L 175.794647 274.768871 
L 175.924535 272.222133 
L 175.989479 272.412636 
L 176.18431 275.981854 
L 176.249254 275.813495 
L 176.444086 274.360236 
L 176.703861 276.671505 
L 176.768805 276.610882 
L 176.963637 276.042528 
L 177.093525 276.597547 
L 177.288357 277.38759 
L 177.613076 277.378925 
L 178.002739 278.219511 
L 178.262515 278.402663 
L 179.17173 279.568633 
L 180.016 280.232131 
L 180.145888 280.125976 
L 180.275776 279.769637 
L 180.405664 278.845923 
L 180.535551 276.613921 
L 180.730383 267.799263 
L 180.925215 248.200457 
L 181.639598 146.873898 
L 181.769486 217.391472 
L 181.899373 162.803335 
L 181.964317 162.848746 
L 182.094205 210.043222 
L 182.159149 173.399362 
L 182.224093 175.550409 
L 182.353981 227.962043 
L 182.483868 179.383629 
L 182.613756 215.653345 
L 182.6787 185.188167 
L 182.743644 192.33585 
L 182.808588 225.619417 
L 182.873532 222.873715 
L 182.938476 198.085517 
L 183.00342 199.083975 
L 183.068363 236.46731 
L 183.133307 219.727667 
L 183.198251 200.429293 
L 183.328139 253.089192 
L 183.458027 210.911556 
L 183.587915 255.170996 
L 183.717802 216.162352 
L 183.84769 253.674098 
L 183.977578 225.995885 
L 184.107466 254.640593 
L 184.237354 231.229326 
L 184.367241 256.951562 
L 184.497129 238.647622 
L 184.627017 259.849709 
L 184.756905 243.510594 
L 184.886793 262.607687 
L 185.01668 248.627208 
L 185.146568 264.538157 
L 185.211512 258.299149 
L 185.276456 253.107614 
L 185.406344 264.887974 
L 185.471288 263.313638 
L 185.536232 258.088587 
L 185.601176 258.54733 
L 185.731063 266.586482 
L 185.860951 261.099846 
L 185.990839 267.492984 
L 186.055783 266.681758 
L 186.120727 264.031604 
L 186.185671 264.404526 
L 186.315558 268.752975 
L 186.445446 266.062892 
L 186.640278 269.543079 
L 186.705222 268.488065 
L 186.770166 268.035387 
L 186.964997 270.273245 
L 187.094885 269.535573 
L 187.289717 271.067994 
L 187.419605 270.732295 
L 187.614436 271.820982 
L 187.67938 271.653947 
L 187.744324 271.681535 
L 187.939156 272.511569 
L 188.069044 272.485604 
L 188.328819 273.146955 
L 188.458707 273.331457 
L 188.718483 273.794543 
L 190.536912 276.458885 
L 197.161189 284.247127 
L 197.291077 284.1298 
L 197.420965 283.407856 
L 197.550853 280.821944 
L 197.680741 273.500295 
L 197.940516 236.164428 
L 198.395123 143.59766 
L 198.460067 146.979445 
L 198.525011 148.464649 
L 198.589955 186.651747 
L 198.654899 175.395861 
L 198.719843 150.685515 
L 198.784787 166.896897 
L 198.849731 225.007952 
L 198.979618 167.693626 
L 199.044562 170.749304 
L 199.109506 223.456562 
L 199.17445 186.689564 
L 199.239394 169.343417 
L 199.369282 205.140633 
L 199.434226 177.371454 
L 199.49917 195.039086 
L 199.564114 231.843614 
L 199.629057 190.055907 
L 199.694001 194.284704 
L 199.758945 224.581136 
L 199.823889 216.108525 
L 199.888833 198.183829 
L 199.953777 208.105996 
L 200.018721 238.133097 
L 200.148609 204.308873 
L 200.213553 234.14179 
L 200.278496 219.838247 
L 200.34344 206.984759 
L 200.473328 235.626224 
L 200.538272 214.028772 
L 200.603216 221.112078 
L 200.66816 246.221021 
L 200.798048 222.935883 
L 200.927935 243.762958 
L 200.992879 227.810818 
L 201.057823 232.403089 
L 201.122767 248.797044 
L 201.187711 237.94753 
L 201.252655 231.784371 
L 201.382543 248.644603 
L 201.447487 237.225753 
L 201.51243 240.089689 
L 201.577374 251.302185 
L 201.642318 247.243846 
L 201.707262 241.005573 
L 201.83715 253.42193 
L 201.967038 245.362813 
L 202.096926 254.505762 
L 202.161869 249.141555 
L 202.226813 249.625412 
L 202.356701 255.563387 
L 202.421645 251.700845 
L 202.486589 252.915064 
L 202.551533 257.057271 
L 202.616477 256.84838 
L 202.681421 254.24325 
L 202.746365 255.51247 
L 202.811308 258.681344 
L 202.876252 258.357092 
L 202.941196 256.603597 
L 203.00614 257.287872 
L 203.136028 259.930088 
L 203.200972 258.627702 
L 203.265916 259.032047 
L 203.395804 261.29257 
L 203.460747 260.414532 
L 203.525691 260.50219 
L 203.655579 262.478104 
L 203.720523 262.095524 
L 203.785467 261.884474 
L 203.980299 263.529466 
L 204.045243 263.237378 
L 204.629738 265.48057 
L 205.149289 267.107085 
L 205.279177 267.372398 
L 205.603896 268.192943 
L 206.058503 269.259511 
L 210.474688 277.151387 
L 212.682781 280.04735 
L 214.371322 281.907202 
L 214.50121 281.806269 
L 214.631098 281.295225 
L 214.760986 279.742785 
L 214.890873 275.782413 
L 215.085705 261.156135 
L 215.540312 192.830198 
L 215.800088 161.968535 
L 215.865032 165.694488 
L 215.929976 168.949554 
L 216.059864 238.581918 
L 216.124808 215.190581 
L 216.254695 174.277107 
L 216.384583 188.719511 
L 216.514471 228.865511 
L 216.644359 192.836893 
L 216.709303 201.526664 
L 216.774246 242.186942 
L 216.83919 234.664589 
L 216.969078 199.580196 
L 217.034022 204.890915 
L 217.16391 256.468365 
L 217.293798 212.246648 
L 217.358742 219.165059 
L 217.488629 253.684528 
L 217.618517 220.445074 
L 217.683461 226.720453 
L 217.813349 263.941147 
L 217.943237 231.469175 
L 218.008181 238.67219 
L 218.138068 263.323531 
L 218.267956 239.774619 
L 218.3329 246.800671 
L 218.462788 267.858685 
L 218.592676 248.493391 
L 218.722563 270.737664 
L 218.787507 268.815266 
L 218.917395 255.22569 
L 219.047283 272.165006 
L 219.112227 271.72684 
L 219.242115 261.062808 
L 219.436946 273.896518 
L 219.566834 265.72822 
L 219.696722 272.856301 
L 219.761666 275.251217 
L 219.891554 269.855208 
L 219.956497 269.88388 
L 220.086385 275.537752 
L 220.151329 275.436218 
L 220.281217 272.343119 
L 220.476049 276.504267 
L 220.540993 275.918575 
L 220.67088 274.554719 
L 220.865712 277.089681 
L 220.930656 276.735102 
L 221.060544 276.050495 
L 221.255375 277.668506 
L 221.320319 277.597621 
L 221.450207 277.214191 
L 221.709983 278.292845 
L 221.774927 278.204403 
L 221.839871 278.129917 
L 221.904814 278.201374 
L 222.16459 278.92225 
L 222.294478 278.920613 
L 222.489309 279.33746 
L 222.749085 279.65257 
L 223.008861 280.068773 
L 223.788187 281.105196 
L 225.736504 283.677023 
L 227.100326 285.313727 
L 227.230214 285.119507 
L 227.360102 284.144707 
L 227.48999 280.859561 
L 227.684821 264.792233 
L 228.009541 208.464814 
L 228.33426 147.74538 
L 228.399204 148.142941 
L 228.464148 144.5709 
L 228.594036 192.698975 
L 228.65898 157.211143 
L 228.723924 160.117952 
L 228.788868 177.226043 
L 228.853811 235.48009 
L 228.983699 159.413242 
L 229.113587 236.289751 
L 229.243475 181.144481 
L 229.373363 210.408308 
L 229.438307 187.474177 
L 229.50325 193.749757 
L 229.568194 243.46069 
L 229.698082 186.416377 
L 229.82797 226.567462 
L 229.892914 195.942888 
L 229.957858 205.851649 
L 230.022802 243.976703 
L 230.152689 207.768434 
L 230.282577 238.878468 
L 230.347521 214.173775 
L 230.412465 215.428094 
L 230.477409 244.644914 
L 230.542353 229.141877 
L 230.607297 215.628313 
L 230.737185 248.643732 
L 230.802128 226.213718 
L 230.867072 226.354667 
L 230.932016 246.35658 
L 230.99696 241.681741 
L 231.061904 229.709279 
L 231.126848 236.263626 
L 231.191792 252.706168 
L 231.32168 233.40013 
L 231.451567 252.676757 
L 231.516511 240.493763 
L 231.581455 240.561942 
L 231.711343 252.129004 
L 231.776287 243.907684 
L 231.841231 245.817306 
L 231.906175 255.466824 
L 231.971119 253.010431 
L 232.036062 246.908109 
L 232.101006 250.080614 
L 232.16595 257.152111 
L 232.230894 254.90594 
L 232.295838 250.777018 
L 232.360782 253.278237 
L 232.425726 258.447354 
L 232.49067 256.816488 
L 232.555614 253.650952 
L 232.620558 255.890096 
L 232.685501 259.718092 
L 232.750445 258.803722 
L 232.815389 256.470619 
L 232.880333 257.627762 
L 232.945277 260.65437 
L 233.010221 260.601349 
L 233.075165 258.779437 
L 233.140109 259.260135 
L 233.269997 262.090787 
L 233.399884 260.771908 
L 233.529772 263.246561 
L 233.65966 262.273994 
L 233.789548 264.117223 
L 233.854492 263.956926 
L 233.919436 263.599775 
L 234.114267 265.063469 
L 234.179211 264.817356 
L 234.244155 264.967516 
L 234.374043 265.953777 
L 234.438987 265.916854 
L 234.503931 265.90587 
L 234.763706 266.879565 
L 234.893594 267.378169 
L 235.218313 268.363002 
L 235.737865 269.736357 
L 236.712023 272.20453 
L 238.920116 276.807573 
L 241.128208 280.770562 
L 243.141469 284.386915 
L 244.310459 286.285972 
L 244.440347 286.276248 
L 244.570235 285.719846 
L 244.700123 283.379063 
L 244.83001 276.360768 
L 245.024842 252.139381 
L 245.609337 152.358511 
L 245.739225 161.586122 
L 245.869113 228.10978 
L 246.063944 165.997929 
L 246.128888 185.854228 
L 246.193832 240.463801 
L 246.258776 208.199667 
L 246.388664 183.908883 
L 246.518552 235.847462 
L 246.64844 195.269173 
L 246.713383 209.484947 
L 246.778327 260.9399 
L 246.908215 199.086138 
L 246.973159 208.551652 
L 247.103047 242.40946 
L 247.232935 211.412524 
L 247.362822 259.941229 
L 247.49271 218.678286 
L 247.557654 227.258574 
L 247.622598 258.981385 
L 247.687542 248.175432 
L 247.752486 228.053739 
L 247.81743 230.115161 
L 247.947317 264.33776 
L 248.077205 234.887993 
L 248.207093 268.223315 
L 248.272037 254.225211 
L 248.336981 242.786187 
L 248.401925 245.794723 
L 248.531813 266.304862 
L 248.6617 249.63761 
L 248.791588 269.937089 
L 248.856532 261.997681 
L 248.921476 254.90721 
L 248.98642 258.210461 
L 249.116308 269.446322 
L 249.246195 259.870526 
L 249.376083 271.369499 
L 249.441027 268.90127 
L 249.505971 264.281165 
L 249.570915 264.728794 
L 249.700803 272.301921 
L 249.830691 267.079484 
L 249.895634 268.340301 
L 250.025522 272.851059 
L 250.15541 269.57281 
L 250.350242 273.55223 
L 250.415186 272.343267 
L 250.480129 271.565023 
L 250.674961 274.29754 
L 250.739905 273.654607 
L 250.804849 273.110055 
L 250.869793 273.491833 
L 250.999681 274.990371 
L 251.064625 274.77699 
L 251.129568 274.39532 
L 251.194512 274.48526 
L 251.389344 275.678955 
L 251.519232 275.431419 
L 251.779007 276.396389 
L 251.843951 276.339244 
L 251.908895 276.402391 
L 252.233615 277.184302 
L 252.363503 277.452593 
L 252.623278 277.979953 
L 252.81811 278.37595 
L 253.337661 279.344698 
L 256.32508 284.097085 
L 258.143509 286.512065 
L 258.208453 286.575293 
L 258.273397 284.690772 
L 258.857892 193.302268 
L 259.052724 179.947559 
L 259.117668 181.8042 
L 259.182612 181.688314 
L 259.3125 201.969988 
L 259.442387 274.062496 
L 259.637219 199.379597 
L 259.767107 208.624419 
L 259.896995 269.706754 
L 259.961939 241.588293 
L 260.091826 213.813149 
L 260.221714 229.857148 
L 260.351602 271.948039 
L 260.546434 228.860031 
L 260.676321 256.580847 
L 260.741265 279.21773 
L 260.936097 239.767009 
L 261.001041 241.91901 
L 261.195873 278.761335 
L 261.390704 251.439621 
L 261.455648 255.079652 
L 261.65048 279.561337 
L 261.845312 261.470886 
L 261.975199 271.042504 
L 262.105087 281.831444 
L 262.299919 269.669806 
L 262.364863 270.307651 
L 262.624638 282.431092 
L 262.81947 276.041835 
L 262.884414 276.607545 
L 263.14419 283.772685 
L 263.209133 283.105765 
L 263.403965 280.438224 
L 263.533853 281.753659 
L 263.793629 284.808934 
L 264.118348 283.591047 
L 264.183292 283.798421 
L 264.702843 286.311929 
L 264.897675 286.35046 
L 265.287338 286.12876 
L 265.417226 285.873833 
L 265.612058 284.811784 
L 265.806889 281.996713 
L 266.001721 274.930885 
L 266.261497 253.819084 
L 266.716104 193.725825 
L 267.040823 146.308678 
L 267.170711 160.563795 
L 267.235655 198.903638 
L 267.300599 196.803453 
L 267.365543 166.671123 
L 267.430487 168.108501 
L 267.495431 177.006956 
L 267.560375 227.529034 
L 267.625319 200.070199 
L 267.690262 175.359807 
L 267.755206 184.337228 
L 267.82015 218.285637 
L 267.885094 216.17861 
L 267.950038 190.071232 
L 268.014982 190.771439 
L 268.079926 231.677488 
L 268.14487 215.806823 
L 268.209814 191.545109 
L 268.274757 200.46005 
L 268.339701 235.376635 
L 268.404645 231.199377 
L 268.469589 206.824497 
L 268.534533 207.731146 
L 268.599477 241.806235 
L 268.664421 230.463173 
L 268.729365 210.059231 
L 268.794309 221.402786 
L 268.859253 256.259334 
L 268.98914 219.93677 
L 269.054084 229.00687 
L 269.119028 258.68386 
L 269.248916 224.769711 
L 269.378804 259.817498 
L 269.508692 233.361742 
L 269.638579 261.073979 
L 269.768467 237.375486 
L 269.898355 262.787311 
L 270.028243 244.695643 
L 270.158131 264.233018 
L 270.223074 255.498954 
L 270.288018 249.272981 
L 270.417906 265.15762 
L 270.48285 260.886793 
L 270.547794 254.835106 
L 270.612738 256.922479 
L 270.742626 265.304377 
L 270.80757 259.536899 
L 270.872513 259.688631 
L 271.002401 267.466714 
L 271.132289 262.148586 
L 271.262177 268.662343 
L 271.327121 266.909066 
L 271.392065 264.815554 
L 271.457008 266.052024 
L 271.586896 269.286619 
L 271.716784 267.20949 
L 271.846672 270.439817 
L 271.911616 269.721431 
L 271.97656 268.813445 
L 272.041504 269.444727 
L 272.171391 271.170378 
L 272.301279 270.292016 
L 272.431167 271.905409 
L 272.496111 271.891396 
L 272.561055 271.499888 
L 272.625999 271.596302 
L 272.755886 272.717963 
L 272.82083 272.673731 
L 272.885774 272.49688 
L 273.015662 273.123572 
L 273.14555 273.464247 
L 273.210494 273.408083 
L 274.704203 276.766897 
L 275.678362 278.620354 
L 277.626679 281.971039 
L 279.510052 284.784649 
L 282.237696 288.686275 
L 282.367583 288.554954 
L 282.497471 287.877871 
L 282.627359 285.78577 
L 282.757247 280.460674 
L 282.952078 261.446717 
L 283.406686 182.726942 
L 283.601517 151.329789 
L 283.731405 155.823146 
L 283.861293 230.39644 
L 284.056125 164.076376 
L 284.121069 187.010766 
L 284.186012 253.983866 
L 284.3159 181.712157 
L 284.380844 183.42957 
L 284.445788 221.43676 
L 284.510732 214.571743 
L 284.575676 187.566811 
L 284.64062 195.722737 
L 284.705564 231.286256 
L 284.770508 230.837842 
L 284.900395 196.613188 
L 285.030283 247.54304 
L 285.160171 208.953251 
L 285.290059 256.198631 
L 285.419947 212.296521 
L 285.549834 264.513684 
L 285.679722 222.340608 
L 285.744666 229.508122 
L 285.80961 260.022476 
L 285.874554 247.436522 
L 285.939498 229.727884 
L 286.004442 235.523756 
L 286.069386 259.127807 
L 286.134329 255.564165 
L 286.199273 238.785885 
L 286.264217 239.127868 
L 286.394105 263.37262 
L 286.523993 244.332605 
L 286.653881 268.105914 
L 286.783768 249.608074 
L 286.913656 268.563199 
L 286.9786 262.594123 
L 287.043544 255.869657 
L 287.108488 258.760776 
L 287.173432 268.242797 
L 287.238376 267.524608 
L 287.30332 260.746865 
L 287.368263 261.326138 
L 287.498151 270.640409 
L 287.628039 263.864861 
L 287.757927 271.699542 
L 287.822871 269.803721 
L 287.887815 267.015092 
L 287.952759 268.058094 
L 288.082646 272.322931 
L 288.212534 269.415632 
L 288.342422 273.234067 
L 288.407366 272.665385 
L 288.47231 271.331926 
L 288.537254 271.632777 
L 288.667141 274.036696 
L 288.797029 272.724636 
L 288.991861 274.700523 
L 289.056805 274.252559 
L 289.121749 273.9659 
L 289.31658 275.366361 
L 289.381524 275.13666 
L 289.446468 275.006355 
L 289.6413 276.022289 
L 289.706244 275.950816 
L 289.771188 275.88296 
L 290.420627 277.368129 
L 290.550514 277.586524 
L 290.81029 278.073579 
L 294.706924 284.213053 
L 297.369624 288.469573 
L 298.278838 289.792219 
L 298.408726 289.651346 
L 298.538614 288.804175 
L 298.668502 285.919436 
L 298.863333 271.905194 
L 299.188053 217.927587 
L 299.577716 152.179572 
L 299.64266 154.389754 
L 299.707604 154.016061 
L 299.837492 234.853164 
L 299.902436 185.430068 
L 300.032324 162.707215 
L 300.097267 184.684073 
L 300.162211 252.728433 
L 300.292099 181.359987 
L 300.357043 181.729556 
L 300.421987 220.272127 
L 300.486931 212.903459 
L 300.551875 185.599801 
L 300.616819 194.460681 
L 300.681763 230.394138 
L 300.746706 229.783943 
L 300.876594 196.097348 
L 301.006482 247.984692 
L 301.13637 208.264282 
L 301.266258 257.976591 
L 301.396145 212.792055 
L 301.526033 262.248278 
L 301.655921 222.474651 
L 301.720865 232.60426 
L 301.785809 263.884244 
L 301.850753 242.880954 
L 301.915697 228.774009 
L 301.98064 237.914173 
L 302.045584 263.115903 
L 302.110528 250.950138 
L 302.175472 237.926586 
L 302.240416 242.055535 
L 302.30536 262.763649 
L 302.370304 258.840444 
L 302.435248 244.230698 
L 302.500192 246.985844 
L 302.630079 265.6368 
L 302.759967 250.751534 
L 302.889855 269.171336 
L 303.019743 255.694029 
L 303.149631 270.741137 
L 303.214575 265.553162 
L 303.279518 259.60026 
L 303.344462 262.440546 
L 303.47435 270.749994 
L 303.604238 264.421833 
L 303.734126 272.717072 
L 303.864014 267.237955 
L 304.058845 273.020314 
L 304.188733 270.026366 
L 304.318621 274.118452 
L 304.383565 273.257988 
L 304.448509 271.853832 
L 304.513453 272.34297 
L 304.64334 274.816636 
L 304.773228 273.327743 
L 304.96806 275.433358 
L 305.033004 274.890063 
L 305.097948 274.595132 
L 305.292779 276.056625 
L 305.422667 275.615437 
L 305.617499 276.676594 
L 305.682443 276.551933 
L 305.747387 276.474182 
L 306.007162 277.257671 
L 306.072106 277.227352 
L 307.825591 280.276596 
L 309.059525 282.177636 
L 311.332562 285.849064 
L 312.111889 287.152969 
L 312.176832 286.799045 
L 312.501552 282.873761 
L 312.63144 283.567288 
L 313.215935 289.079974 
L 313.410767 289.269375 
L 313.605598 289.093781 
L 313.80043 288.466462 
L 313.995262 286.632679 
L 314.190093 281.623768 
L 314.449869 264.585992 
L 314.904476 206.348432 
L 315.29414 163.206033 
L 315.424027 169.737471 
L 315.553915 233.861979 
L 315.618859 219.963357 
L 315.748747 176.169892 
L 315.878635 191.816526 
L 315.943579 231.277331 
L 316.008522 225.886711 
L 316.13841 194.57329 
L 316.203354 204.130797 
L 316.268298 247.225264 
L 316.333242 233.004044 
L 316.46313 202.398738 
L 316.528074 210.173274 
L 316.593018 246.659458 
L 316.657961 244.48947 
L 316.787849 214.258247 
L 316.852793 226.858746 
L 316.917737 267.711222 
L 316.982681 243.231744 
L 317.047625 222.198318 
L 317.112569 223.108972 
L 317.242456 269.874176 
L 317.3074 251.279822 
L 317.372344 232.778528 
L 317.437288 234.083633 
L 317.567176 273.200564 
L 317.697064 239.831738 
L 317.762008 243.787434 
L 317.891895 273.615285 
L 318.021783 248.001473 
L 318.086727 252.185559 
L 318.216615 274.804531 
L 318.346503 255.425751 
L 318.411447 258.737418 
L 318.541334 276.4184 
L 318.671222 261.957577 
L 318.736166 263.568985 
L 318.866054 277.431696 
L 318.930998 273.647098 
L 319.060886 267.83405 
L 319.190773 277.689213 
L 319.255717 277.148965 
L 319.385605 271.445507 
L 319.580437 279.024501 
L 319.645381 277.344644 
L 319.775269 275.027222 
L 319.9701 279.666779 
L 320.099988 277.369317 
L 320.164932 277.449521 
L 320.359764 280.467599 
L 320.554595 279.212336 
L 320.749427 281.178506 
L 320.814371 281.128035 
L 320.944259 280.632797 
L 321.074146 281.30282 
L 321.204034 281.979883 
L 321.268978 281.944087 
L 321.398866 281.810935 
L 322.243137 283.746678 
L 322.437968 283.877714 
L 323.022463 285.022011 
L 324.191454 287.179877 
L 325.815051 290.113526 
L 326.529434 291.274033 
L 326.659322 291.247759 
L 326.789209 290.720242 
L 326.919097 288.741346 
L 327.048985 283.044996 
L 327.243817 262.042946 
L 327.9582 140.24744 
L 328.088087 208.369863 
L 328.153031 173.14881 
L 328.282919 157.242318 
L 328.412807 201.650887 
L 328.477751 165.013889 
L 328.542695 169.81656 
L 328.672583 226.496357 
L 328.80247 174.643583 
L 328.867414 217.025514 
L 328.932358 194.729808 
L 328.997302 174.953186 
L 329.12719 225.113957 
L 329.192134 185.811153 
L 329.257078 193.420835 
L 329.322021 234.515121 
L 329.386965 214.036034 
L 329.451909 197.961155 
L 329.516853 208.189848 
L 329.581797 247.058864 
L 329.711685 201.749724 
L 329.776629 234.850657 
L 329.841573 223.206604 
L 329.906517 203.883797 
L 330.036404 247.340452 
L 330.101348 216.390438 
L 330.166292 216.96472 
L 330.231236 241.727026 
L 330.29618 240.510694 
L 330.361124 221.631344 
L 330.426068 229.026499 
L 330.491012 252.894497 
L 330.620899 226.288262 
L 330.750787 251.426841 
L 330.815731 233.109238 
L 330.880675 236.986348 
L 330.945619 255.47761 
L 331.010563 248.779513 
L 331.075507 238.4252 
L 331.205395 259.656581 
L 331.335282 243.498455 
L 331.46517 260.694381 
L 331.530114 250.158782 
L 331.595058 250.337393 
L 331.724946 261.591925 
L 331.78989 253.71631 
L 331.854834 254.894669 
L 331.984721 263.084263 
L 332.049665 257.343249 
L 332.114609 258.819753 
L 332.179553 265.205025 
L 332.244497 264.720381 
L 332.309441 260.862859 
L 332.374385 261.752531 
L 332.504272 266.78408 
L 332.569216 263.770824 
L 332.63416 264.291563 
L 332.764048 268.558366 
L 332.893936 266.319171 
L 333.023824 269.795981 
L 333.153711 268.021296 
L 333.283599 270.776375 
L 333.348543 270.1252 
L 333.413487 269.513712 
L 333.543375 271.57573 
L 333.608319 271.401409 
L 333.673263 270.899639 
L 333.868094 272.389136 
L 333.933038 272.058569 
L 333.997982 272.265841 
L 334.12787 273.221629 
L 334.192814 273.061746 
L 334.257758 273.110345 
L 334.452589 273.971293 
L 334.517533 273.959877 
L 334.972141 275.440394 
L 335.166972 275.818657 
L 335.491692 276.628192 
L 335.946299 277.638847 
L 339.713045 284.455896 
L 341.726306 288.196644 
L 345.62294 295.445332 
L 345.752828 295.121562 
L 345.882715 293.633974 
L 346.012603 289.014975 
L 346.207435 269.385665 
L 346.79193 162.306275 
L 346.856874 149.835285 
L 346.921818 153.369448 
L 346.986762 154.317832 
L 347.11665 221.972763 
L 347.246537 165.958084 
L 347.311481 164.634472 
L 347.441369 232.705833 
L 347.571257 179.184259 
L 347.636201 190.837765 
L 347.701145 246.415882 
L 347.831032 181.583525 
L 347.96092 245.77261 
L 348.090808 194.916262 
L 348.155752 211.6788 
L 348.220696 258.170921 
L 348.350584 198.208355 
L 348.480471 253.93519 
L 348.610359 211.482717 
L 348.740247 257.053121 
L 348.870135 215.834362 
L 349.000023 258.020643 
L 349.12991 226.451838 
L 349.259798 261.580471 
L 349.389686 232.338528 
L 349.519574 260.975543 
L 349.584518 240.576917 
L 349.649462 240.580696 
L 349.779349 264.569825 
L 349.909237 245.728735 
L 350.039125 267.362436 
L 350.169013 251.768345 
L 350.298901 269.591899 
L 350.428788 256.180077 
L 350.558676 271.300967 
L 350.688564 260.923107 
L 350.818452 272.182419 
L 350.883396 269.393018 
L 350.948339 264.925907 
L 351.013283 266.995921 
L 351.078227 272.48146 
L 351.143171 272.473722 
L 351.273059 268.683773 
L 351.402947 274.196531 
L 351.532835 270.700002 
L 351.662722 275.002804 
L 351.727666 274.155424 
L 351.79261 272.679454 
L 351.857554 273.420547 
L 351.987442 275.61651 
L 352.11733 270.919262 
L 352.182274 271.184006 
L 352.312161 276.402732 
L 352.442049 272.902329 
L 352.571937 276.76463 
L 352.636881 276.601533 
L 352.766769 275.085771 
L 352.896656 277.640592 
L 353.026544 276.265416 
L 353.221376 278.148636 
L 353.351264 277.481186 
L 353.481152 278.768725 
L 353.546095 278.696336 
L 353.611039 278.396614 
L 353.675983 278.515279 
L 353.805871 279.380609 
L 353.870815 279.308016 
L 353.935759 279.192125 
L 354.585198 280.608236 
L 356.078907 283.384134 
L 357.832393 286.534081 
L 361.274419 292.941694 
L 362.638241 295.433338 
L 362.768129 295.454694 
L 362.898017 295.027622 
L 363.027904 293.314448 
L 363.157792 288.302837 
L 363.352624 268.470325 
L 364.002063 157.024371 
L 364.131951 157.233168 
L 364.261839 231.980163 
L 364.326782 193.447593 
L 364.45667 169.75914 
L 364.586558 248.425991 
L 364.651502 202.51756 
L 364.716446 187.078811 
L 364.78139 188.045558 
L 364.846334 223.143345 
L 364.911278 221.71607 
L 364.976221 194.128373 
L 365.041165 197.953953 
L 365.171053 247.229525 
L 365.300941 199.42426 
L 365.365885 213.794729 
L 365.430829 254.666428 
L 365.495773 231.807452 
L 365.560717 213.909112 
L 365.62566 215.516464 
L 365.755548 250.904947 
L 365.885436 222.732184 
L 366.015324 263.321206 
L 366.145212 227.11073 
L 366.275099 260.572084 
L 366.340043 255.325894 
L 366.469931 239.097255 
L 366.599819 264.98654 
L 366.729707 244.643252 
L 366.859594 269.704248 
L 366.924538 259.949985 
L 366.989482 250.678134 
L 367.054426 253.893148 
L 367.184314 270.071194 
L 367.314202 256.78293 
L 367.44409 272.812001 
L 367.509033 269.130098 
L 367.573977 262.588281 
L 367.638921 262.987347 
L 367.768809 274.533333 
L 367.898697 266.66273 
L 367.963641 268.096175 
L 368.093529 275.546329 
L 368.223416 270.276189 
L 368.28836 271.649673 
L 368.418248 276.508183 
L 368.548136 273.141747 
L 368.742968 277.341236 
L 368.807911 276.076056 
L 368.872855 275.221158 
L 369.067687 278.105086 
L 369.132631 277.359364 
L 369.197575 276.860881 
L 369.392406 278.827874 
L 369.45735 278.432622 
L 369.522294 278.117447 
L 369.717126 279.513847 
L 369.78207 279.384351 
L 369.847014 279.172231 
L 369.911958 279.321152 
L 370.106789 280.193876 
L 370.236677 280.131946 
L 370.561397 280.906921 
L 370.691284 281.224194 
L 370.886116 281.640963 
L 371.016004 281.817039 
L 371.470611 282.719205 
L 372.12005 283.943765 
L 373.094209 285.725819 
L 375.237357 289.726181 
L 377.705225 294.208901 
L 377.835113 293.88709 
L 377.965001 292.242268 
L 378.094889 286.733652 
L 378.28972 263.31356 
L 378.939159 144.896539 
L 379.133991 200.207615 
L 379.263879 160.025281 
L 379.328823 182.715091 
L 379.393767 246.661477 
L 379.523655 175.639021 
L 379.588598 176.513084 
L 379.653542 215.3459 
L 379.718486 208.848538 
L 379.78343 181.397476 
L 379.848374 192.93669 
L 379.913318 238.964946 
L 379.978262 206.789524 
L 380.043206 194.5418 
L 380.10815 204.225322 
L 380.173094 250.458563 
L 380.302981 196.072269 
L 380.432869 253.92798 
L 380.562757 208.752081 
L 380.692645 250.896187 
L 380.822533 214.346047 
L 380.95242 250.433982 
L 381.017364 223.512321 
L 381.082308 223.994427 
L 381.212196 253.338122 
L 381.342084 230.608617 
L 381.471971 252.725551 
L 381.536915 235.857153 
L 381.601859 238.933453 
L 381.666803 257.529285 
L 381.731747 255.687923 
L 381.796691 242.506984 
L 381.861635 244.010534 
L 381.991523 259.876341 
L 382.056467 248.151115 
L 382.12141 249.633827 
L 382.251298 263.335868 
L 382.381186 253.600236 
L 382.511074 266.356415 
L 382.640962 257.764171 
L 382.770849 268.490877 
L 382.900737 261.257499 
L 383.030625 269.928476 
L 383.095569 267.732642 
L 383.160513 264.800204 
L 383.225457 266.458008 
L 383.355345 270.775559 
L 383.485232 268.043223 
L 383.61512 272.525459 
L 383.745008 270.069096 
L 383.93984 273.288142 
L 384.069727 272.189653 
L 384.199615 274.454316 
L 384.264559 274.058407 
L 384.329503 273.520142 
L 384.524335 275.299833 
L 384.589279 274.95646 
L 384.654222 274.828657 
L 384.849054 276.045224 
L 384.913998 275.848803 
L 384.978942 275.923862 
L 385.173774 276.791715 
L 385.238718 276.724832 
L 385.368605 277.203422 
L 385.563437 277.53664 
L 386.797371 280.235541 
L 387.77153 282.148694 
L 391.798051 290.618129 
L 394.136032 295.463509 
L 394.265919 295.426422 
L 394.395807 294.724959 
L 394.525695 292.021135 
L 394.655583 284.432975 
L 394.915358 246.74966 
L 395.43491 146.779379 
L 395.499853 153.692574 
L 395.564797 160.381314 
L 395.629741 199.099099 
L 395.694685 194.395874 
L 395.759629 165.916868 
L 395.824573 171.049693 
L 395.954461 244.812426 
L 396.084349 172.225982 
L 396.149292 188.540774 
L 396.214236 245.313449 
L 396.344124 190.051032 
L 396.409068 198.674066 
L 396.474012 245.98478 
L 396.6039 192.495833 
L 396.733787 241.147748 
L 396.798731 203.771268 
L 396.863675 205.004193 
L 396.993563 244.237557 
L 397.123451 211.799187 
L 397.188395 241.764466 
L 397.253339 233.721249 
L 397.318283 214.829215 
L 397.383226 225.919865 
L 397.44817 258.009832 
L 397.578058 223.838637 
L 397.707946 257.862109 
L 397.837834 229.577914 
L 397.967722 257.681731 
L 398.097609 238.199651 
L 398.227497 258.446719 
L 398.292441 244.082425 
L 398.357385 244.350552 
L 398.487273 259.946413 
L 398.487273 259.946413 
" clip-path="url(#pf4f33f7573)" style="fill: none; stroke: #1f77b4; stroke-width: 1.5; stroke-linecap: square"/>
   </g>
   <g id="patch_3">
    <path d="M 57.6 307.584 
L 57.6 41.472 
" style="fill: none; stroke: #000000; stroke-width: 0.8; stroke-linejoin: miter; stroke-linecap: square"/>
   </g>
   <g id="patch_4">
    <path d="M 414.72 307.584 
L 414.72 41.472 
" style="fill: none; stroke: #000000; stroke-width: 0.8; stroke-linejoin: miter; stroke-linecap: square"/>
   </g>
   <g id="patch_5">
    <path d="M 57.6 307.584 
L 414.72 307.584 
" style="fill: none; stroke: #000000; stroke-width: 0.8; stroke-linejoin: miter; stroke-linecap: square"/>
   </g>
   <g id="patch_6">
    <path d="M 57.6 41.472 
L 414.72 41.472 
" style="fill: none; stroke: #000000; stroke-width: 0.8; stroke-linejoin: miter; stroke-linecap: square"/>
   </g>
   <g id="text_14">
    <!-- Training Loss -->
    <g transform="translate(197.421562 35.472) scale(0.12 -0.12)">
     <defs>
      <path id="DejaVuSans-54" d="M -19 4666 
L 3928 4666 
L 3928 4134 
L 2272 4134 
L 2272 0 
L 1638 0 
L 1638 4134 
L -19 4134 
L -19 4666 
z
" transform="scale(0.015625)"/>
      <path id="DejaVuSans-72" d="M 2631 2963 
Q 2534 3019 2420 3045 
Q 2306 3072 2169 3072 
Q 1681 3072 1420 2755 
Q 1159 2438 1159 1844 
L 1159 0 
L 581 0 
L 581 3500 
L 1159 3500 
L 1159 2956 
Q 1341 3275 1631 3429 
Q 1922 3584 2338 3584 
Q 2397 3584 2469 3576 
Q 2541 3569 2628 3553 
L 2631 2963 
z
" transform="scale(0.015625)"/>
      <path id="DejaVuSans-61" d="M 2194 1759 
Q 1497 1759 1228 1600 
Q 959 1441 959 1056 
Q 959 750 1161 570 
Q 1363 391 1709 391 
Q 2188 391 2477 730 
Q 2766 1069 2766 1631 
L 2766 1759 
L 2194 1759 
z
M 3341 1997 
L 3341 0 
L 2766 0 
L 2766 531 
Q 2569 213 2275 61 
Q 1981 -91 1556 -91 
Q 1019 -91 701 211 
Q 384 513 384 1019 
Q 384 1609 779 1909 
Q 1175 2209 1959 2209 
L 2766 2209 
L 2766 2266 
Q 2766 2663 2505 2880 
Q 2244 3097 1772 3097 
Q 1472 3097 1187 3025 
Q 903 2953 641 2809 
L 641 3341 
Q 956 3463 1253 3523 
Q 1550 3584 1831 3584 
Q 2591 3584 2966 3190 
Q 3341 2797 3341 1997 
z
" transform="scale(0.015625)"/>
      <path id="DejaVuSans-69" d="M 603 3500 
L 1178 3500 
L 1178 0 
L 603 0 
L 603 3500 
z
M 603 4863 
L 1178 4863 
L 1178 4134 
L 603 4134 
L 603 4863 
z
" transform="scale(0.015625)"/>
      <path id="DejaVuSans-6e" d="M 3513 2113 
L 3513 0 
L 2938 0 
L 2938 2094 
Q 2938 2591 2744 2837 
Q 2550 3084 2163 3084 
Q 1697 3084 1428 2787 
Q 1159 2491 1159 1978 
L 1159 0 
L 581 0 
L 581 3500 
L 1159 3500 
L 1159 2956 
Q 1366 3272 1645 3428 
Q 1925 3584 2291 3584 
Q 2894 3584 3203 3211 
Q 3513 2838 3513 2113 
z
" transform="scale(0.015625)"/>
      <path id="DejaVuSans-67" d="M 2906 1791 
Q 2906 2416 2648 2759 
Q 2391 3103 1925 3103 
Q 1463 3103 1205 2759 
Q 947 2416 947 1791 
Q 947 1169 1205 825 
Q 1463 481 1925 481 
Q 2391 481 2648 825 
Q 2906 1169 2906 1791 
z
M 3481 434 
Q 3481 -459 3084 -895 
Q 2688 -1331 1869 -1331 
Q 1566 -1331 1297 -1286 
Q 1028 -1241 775 -1147 
L 775 -588 
Q 1028 -725 1275 -790 
Q 1522 -856 1778 -856 
Q 2344 -856 2625 -561 
Q 2906 -266 2906 331 
L 2906 616 
Q 2728 306 2450 153 
Q 2172 0 1784 0 
Q 1141 0 747 490 
Q 353 981 353 1791 
Q 353 2603 747 3093 
Q 1141 3584 1784 3584 
Q 2172 3584 2450 3431 
Q 2728 3278 2906 2969 
L 2906 3500 
L 3481 3500 
L 3481 434 
z
" transform="scale(0.015625)"/>
      <path id="DejaVuSans-20" transform="scale(0.015625)"/>
     </defs>
     <use xlink:href="#DejaVuSans-54"/>
     <use xlink:href="#DejaVuSans-72" x="46.333984"/>
     <use xlink:href="#DejaVuSans-61" x="87.447266"/>
     <use xlink:href="#DejaVuSans-69" x="148.726562"/>
     <use xlink:href="#DejaVuSans-6e" x="176.509766"/>
     <use xlink:href="#DejaVuSans-69" x="239.888672"/>
     <use xlink:href="#DejaVuSans-6e" x="267.671875"/>
     <use xlink:href="#DejaVuSans-67" x="331.050781"/>
     <use xlink:href="#DejaVuSans-20" x="394.527344"/>
     <use xlink:href="#DejaVuSans-4c" x="426.314453"/>
     <use xlink:href="#DejaVuSans-6f" x="480.277344"/>
     <use xlink:href="#DejaVuSans-73" x="541.458984"/>
     <use xlink:href="#DejaVuSans-73" x="593.558594"/>
    </g>
   </g>
  </g>
 </g>
 <defs>
  <clipPath id="pf4f33f7573">
   <rect x="57.6" y="41.472" width="357.12" height="266.112"/>
  </clipPath>
 </defs>
</svg>
