<?xml version="1.0" encoding="utf-8" standalone="no"?>
<!DOCTYPE svg PUBLIC "-//W3C//DTD SVG 1.1//EN"
  "http://www.w3.org/Graphics/SVG/1.1/DTD/svg11.dtd">
<svg xmlns:xlink="http://www.w3.org/1999/xlink" width="460.8pt" height="345.6pt" viewBox="0 0 460.8 345.6" xmlns="http://www.w3.org/2000/svg" version="1.1">
 <metadata>
  <rdf:RDF xmlns:dc="http://purl.org/dc/elements/1.1/" xmlns:cc="http://creativecommons.org/ns#" xmlns:rdf="http://www.w3.org/1999/02/22-rdf-syntax-ns#">
   <cc:Work>
    <dc:type rdf:resource="http://purl.org/dc/dcmitype/StillImage"/>
    <dc:date>2023-07-31T09:38:40.924113</dc:date>
    <dc:format>image/svg+xml</dc:format>
    <dc:creator>
     <cc:Agent>
      <dc:title>Matplotlib v3.7.2, https://matplotlib.org/</dc:title>
     </cc:Agent>
    </dc:creator>
   </cc:Work>
  </rdf:RDF>
 </metadata>
 <defs>
  <style type="text/css">*{stroke-linejoin: round; stroke-linecap: butt}</style>
 </defs>
 <g id="figure_1">
  <g id="patch_1">
   <path d="M 0 345.6 
L 460.8 345.6 
L 460.8 0 
L 0 0 
z
" style="fill: #ffffff"/>
  </g>
  <g id="axes_1">
   <g id="patch_2">
    <path d="M 57.6 307.584 
L 414.72 307.584 
L 414.72 41.472 
L 57.6 41.472 
z
" style="fill: #ffffff"/>
   </g>
   <g id="matplotlib.axis_1">
    <g id="xtick_1">
     <g id="line2d_1">
      <defs>
       <path id="meca3941440" d="M 0 0 
L 0 3.5 
" style="stroke: #000000; stroke-width: 0.8"/>
      </defs>
      <g>
       <use xlink:href="#meca3941440" x="73.832727" y="307.584" style="stroke: #000000; stroke-width: 0.8"/>
      </g>
     </g>
     <g id="text_1">
      <!-- 0 -->
      <g transform="translate(70.651477 322.182437) scale(0.1 -0.1)">
       <defs>
        <path id="DejaVuSans-30" d="M 2034 4250 
Q 1547 4250 1301 3770 
Q 1056 3291 1056 2328 
Q 1056 1369 1301 889 
Q 1547 409 2034 409 
Q 2525 409 2770 889 
Q 3016 1369 3016 2328 
Q 3016 3291 2770 3770 
Q 2525 4250 2034 4250 
z
M 2034 4750 
Q 2819 4750 3233 4129 
Q 3647 3509 3647 2328 
Q 3647 1150 3233 529 
Q 2819 -91 2034 -91 
Q 1250 -91 836 529 
Q 422 1150 422 2328 
Q 422 3509 836 4129 
Q 1250 4750 2034 4750 
z
" transform="scale(0.015625)"/>
       </defs>
       <use xlink:href="#DejaVuSans-30"/>
      </g>
     </g>
    </g>
    <g id="xtick_2">
     <g id="line2d_2">
      <g>
       <use xlink:href="#meca3941440" x="138.776625" y="307.584" style="stroke: #000000; stroke-width: 0.8"/>
      </g>
     </g>
     <g id="text_2">
      <!-- 1000 -->
      <g transform="translate(126.051625 322.182437) scale(0.1 -0.1)">
       <defs>
        <path id="DejaVuSans-31" d="M 794 531 
L 1825 531 
L 1825 4091 
L 703 3866 
L 703 4441 
L 1819 4666 
L 2450 4666 
L 2450 531 
L 3481 531 
L 3481 0 
L 794 0 
L 794 531 
z
" transform="scale(0.015625)"/>
       </defs>
       <use xlink:href="#DejaVuSans-31"/>
       <use xlink:href="#DejaVuSans-30" x="63.623047"/>
       <use xlink:href="#DejaVuSans-30" x="127.246094"/>
       <use xlink:href="#DejaVuSans-30" x="190.869141"/>
      </g>
     </g>
    </g>
    <g id="xtick_3">
     <g id="line2d_3">
      <g>
       <use xlink:href="#meca3941440" x="203.720523" y="307.584" style="stroke: #000000; stroke-width: 0.8"/>
      </g>
     </g>
     <g id="text_3">
      <!-- 2000 -->
      <g transform="translate(190.995523 322.182437) scale(0.1 -0.1)">
       <defs>
        <path id="DejaVuSans-32" d="M 1228 531 
L 3431 531 
L 3431 0 
L 469 0 
L 469 531 
Q 828 903 1448 1529 
Q 2069 2156 2228 2338 
Q 2531 2678 2651 2914 
Q 2772 3150 2772 3378 
Q 2772 3750 2511 3984 
Q 2250 4219 1831 4219 
Q 1534 4219 1204 4116 
Q 875 4013 500 3803 
L 500 4441 
Q 881 4594 1212 4672 
Q 1544 4750 1819 4750 
Q 2544 4750 2975 4387 
Q 3406 4025 3406 3419 
Q 3406 3131 3298 2873 
Q 3191 2616 2906 2266 
Q 2828 2175 2409 1742 
Q 1991 1309 1228 531 
z
" transform="scale(0.015625)"/>
       </defs>
       <use xlink:href="#DejaVuSans-32"/>
       <use xlink:href="#DejaVuSans-30" x="63.623047"/>
       <use xlink:href="#DejaVuSans-30" x="127.246094"/>
       <use xlink:href="#DejaVuSans-30" x="190.869141"/>
      </g>
     </g>
    </g>
    <g id="xtick_4">
     <g id="line2d_4">
      <g>
       <use xlink:href="#meca3941440" x="268.664421" y="307.584" style="stroke: #000000; stroke-width: 0.8"/>
      </g>
     </g>
     <g id="text_4">
      <!-- 3000 -->
      <g transform="translate(255.939421 322.182437) scale(0.1 -0.1)">
       <defs>
        <path id="DejaVuSans-33" d="M 2597 2516 
Q 3050 2419 3304 2112 
Q 3559 1806 3559 1356 
Q 3559 666 3084 287 
Q 2609 -91 1734 -91 
Q 1441 -91 1130 -33 
Q 819 25 488 141 
L 488 750 
Q 750 597 1062 519 
Q 1375 441 1716 441 
Q 2309 441 2620 675 
Q 2931 909 2931 1356 
Q 2931 1769 2642 2001 
Q 2353 2234 1838 2234 
L 1294 2234 
L 1294 2753 
L 1863 2753 
Q 2328 2753 2575 2939 
Q 2822 3125 2822 3475 
Q 2822 3834 2567 4026 
Q 2313 4219 1838 4219 
Q 1578 4219 1281 4162 
Q 984 4106 628 3988 
L 628 4550 
Q 988 4650 1302 4700 
Q 1616 4750 1894 4750 
Q 2613 4750 3031 4423 
Q 3450 4097 3450 3541 
Q 3450 3153 3228 2886 
Q 3006 2619 2597 2516 
z
" transform="scale(0.015625)"/>
       </defs>
       <use xlink:href="#DejaVuSans-33"/>
       <use xlink:href="#DejaVuSans-30" x="63.623047"/>
       <use xlink:href="#DejaVuSans-30" x="127.246094"/>
       <use xlink:href="#DejaVuSans-30" x="190.869141"/>
      </g>
     </g>
    </g>
    <g id="xtick_5">
     <g id="line2d_5">
      <g>
       <use xlink:href="#meca3941440" x="333.608319" y="307.584" style="stroke: #000000; stroke-width: 0.8"/>
      </g>
     </g>
     <g id="text_5">
      <!-- 4000 -->
      <g transform="translate(320.883319 322.182437) scale(0.1 -0.1)">
       <defs>
        <path id="DejaVuSans-34" d="M 2419 4116 
L 825 1625 
L 2419 1625 
L 2419 4116 
z
M 2253 4666 
L 3047 4666 
L 3047 1625 
L 3713 1625 
L 3713 1100 
L 3047 1100 
L 3047 0 
L 2419 0 
L 2419 1100 
L 313 1100 
L 313 1709 
L 2253 4666 
z
" transform="scale(0.015625)"/>
       </defs>
       <use xlink:href="#DejaVuSans-34"/>
       <use xlink:href="#DejaVuSans-30" x="63.623047"/>
       <use xlink:href="#DejaVuSans-30" x="127.246094"/>
       <use xlink:href="#DejaVuSans-30" x="190.869141"/>
      </g>
     </g>
    </g>
    <g id="xtick_6">
     <g id="line2d_6">
      <g>
       <use xlink:href="#meca3941440" x="398.552217" y="307.584" style="stroke: #000000; stroke-width: 0.8"/>
      </g>
     </g>
     <g id="text_6">
      <!-- 5000 -->
      <g transform="translate(385.827217 322.182437) scale(0.1 -0.1)">
       <defs>
        <path id="DejaVuSans-35" d="M 691 4666 
L 3169 4666 
L 3169 4134 
L 1269 4134 
L 1269 2991 
Q 1406 3038 1543 3061 
Q 1681 3084 1819 3084 
Q 2600 3084 3056 2656 
Q 3513 2228 3513 1497 
Q 3513 744 3044 326 
Q 2575 -91 1722 -91 
Q 1428 -91 1123 -41 
Q 819 9 494 109 
L 494 744 
Q 775 591 1075 516 
Q 1375 441 1709 441 
Q 2250 441 2565 725 
Q 2881 1009 2881 1497 
Q 2881 1984 2565 2268 
Q 2250 2553 1709 2553 
Q 1456 2553 1204 2497 
Q 953 2441 691 2322 
L 691 4666 
z
" transform="scale(0.015625)"/>
       </defs>
       <use xlink:href="#DejaVuSans-35"/>
       <use xlink:href="#DejaVuSans-30" x="63.623047"/>
       <use xlink:href="#DejaVuSans-30" x="127.246094"/>
       <use xlink:href="#DejaVuSans-30" x="190.869141"/>
      </g>
     </g>
    </g>
    <g id="text_7">
     <!-- Epoch -->
     <g transform="translate(220.849063 335.860562) scale(0.1 -0.1)">
      <defs>
       <path id="DejaVuSans-45" d="M 628 4666 
L 3578 4666 
L 3578 4134 
L 1259 4134 
L 1259 2753 
L 3481 2753 
L 3481 2222 
L 1259 2222 
L 1259 531 
L 3634 531 
L 3634 0 
L 628 0 
L 628 4666 
z
" transform="scale(0.015625)"/>
       <path id="DejaVuSans-70" d="M 1159 525 
L 1159 -1331 
L 581 -1331 
L 581 3500 
L 1159 3500 
L 1159 2969 
Q 1341 3281 1617 3432 
Q 1894 3584 2278 3584 
Q 2916 3584 3314 3078 
Q 3713 2572 3713 1747 
Q 3713 922 3314 415 
Q 2916 -91 2278 -91 
Q 1894 -91 1617 61 
Q 1341 213 1159 525 
z
M 3116 1747 
Q 3116 2381 2855 2742 
Q 2594 3103 2138 3103 
Q 1681 3103 1420 2742 
Q 1159 2381 1159 1747 
Q 1159 1113 1420 752 
Q 1681 391 2138 391 
Q 2594 391 2855 752 
Q 3116 1113 3116 1747 
z
" transform="scale(0.015625)"/>
       <path id="DejaVuSans-6f" d="M 1959 3097 
Q 1497 3097 1228 2736 
Q 959 2375 959 1747 
Q 959 1119 1226 758 
Q 1494 397 1959 397 
Q 2419 397 2687 759 
Q 2956 1122 2956 1747 
Q 2956 2369 2687 2733 
Q 2419 3097 1959 3097 
z
M 1959 3584 
Q 2709 3584 3137 3096 
Q 3566 2609 3566 1747 
Q 3566 888 3137 398 
Q 2709 -91 1959 -91 
Q 1206 -91 779 398 
Q 353 888 353 1747 
Q 353 2609 779 3096 
Q 1206 3584 1959 3584 
z
" transform="scale(0.015625)"/>
       <path id="DejaVuSans-63" d="M 3122 3366 
L 3122 2828 
Q 2878 2963 2633 3030 
Q 2388 3097 2138 3097 
Q 1578 3097 1268 2742 
Q 959 2388 959 1747 
Q 959 1106 1268 751 
Q 1578 397 2138 397 
Q 2388 397 2633 464 
Q 2878 531 3122 666 
L 3122 134 
Q 2881 22 2623 -34 
Q 2366 -91 2075 -91 
Q 1284 -91 818 406 
Q 353 903 353 1747 
Q 353 2603 823 3093 
Q 1294 3584 2113 3584 
Q 2378 3584 2631 3529 
Q 2884 3475 3122 3366 
z
" transform="scale(0.015625)"/>
       <path id="DejaVuSans-68" d="M 3513 2113 
L 3513 0 
L 2938 0 
L 2938 2094 
Q 2938 2591 2744 2837 
Q 2550 3084 2163 3084 
Q 1697 3084 1428 2787 
Q 1159 2491 1159 1978 
L 1159 0 
L 581 0 
L 581 4863 
L 1159 4863 
L 1159 2956 
Q 1366 3272 1645 3428 
Q 1925 3584 2291 3584 
Q 2894 3584 3203 3211 
Q 3513 2838 3513 2113 
z
" transform="scale(0.015625)"/>
      </defs>
      <use xlink:href="#DejaVuSans-45"/>
      <use xlink:href="#DejaVuSans-70" x="63.183594"/>
      <use xlink:href="#DejaVuSans-6f" x="126.660156"/>
      <use xlink:href="#DejaVuSans-63" x="187.841797"/>
      <use xlink:href="#DejaVuSans-68" x="242.822266"/>
     </g>
    </g>
   </g>
   <g id="matplotlib.axis_2">
    <g id="ytick_1">
     <g id="line2d_7">
      <defs>
       <path id="mfaf2226776" d="M 0 0 
L -3.5 0 
" style="stroke: #000000; stroke-width: 0.8"/>
      </defs>
      <g>
       <use xlink:href="#mfaf2226776" x="57.6" y="295.490798" style="stroke: #000000; stroke-width: 0.8"/>
      </g>
     </g>
     <g id="text_8">
      <!-- 0 -->
      <g transform="translate(44.2375 299.290016) scale(0.1 -0.1)">
       <use xlink:href="#DejaVuSans-30"/>
      </g>
     </g>
    </g>
    <g id="ytick_2">
     <g id="line2d_8">
      <g>
       <use xlink:href="#mfaf2226776" x="57.6" y="258.865509" style="stroke: #000000; stroke-width: 0.8"/>
      </g>
     </g>
     <g id="text_9">
      <!-- 1 -->
      <g transform="translate(44.2375 262.664727) scale(0.1 -0.1)">
       <use xlink:href="#DejaVuSans-31"/>
      </g>
     </g>
    </g>
    <g id="ytick_3">
     <g id="line2d_9">
      <g>
       <use xlink:href="#mfaf2226776" x="57.6" y="222.24022" style="stroke: #000000; stroke-width: 0.8"/>
      </g>
     </g>
     <g id="text_10">
      <!-- 2 -->
      <g transform="translate(44.2375 226.039438) scale(0.1 -0.1)">
       <use xlink:href="#DejaVuSans-32"/>
      </g>
     </g>
    </g>
    <g id="ytick_4">
     <g id="line2d_10">
      <g>
       <use xlink:href="#mfaf2226776" x="57.6" y="185.614931" style="stroke: #000000; stroke-width: 0.8"/>
      </g>
     </g>
     <g id="text_11">
      <!-- 3 -->
      <g transform="translate(44.2375 189.414149) scale(0.1 -0.1)">
       <use xlink:href="#DejaVuSans-33"/>
      </g>
     </g>
    </g>
    <g id="ytick_5">
     <g id="line2d_11">
      <g>
       <use xlink:href="#mfaf2226776" x="57.6" y="148.989642" style="stroke: #000000; stroke-width: 0.8"/>
      </g>
     </g>
     <g id="text_12">
      <!-- 4 -->
      <g transform="translate(44.2375 152.78886) scale(0.1 -0.1)">
       <use xlink:href="#DejaVuSans-34"/>
      </g>
     </g>
    </g>
    <g id="ytick_6">
     <g id="line2d_12">
      <g>
       <use xlink:href="#mfaf2226776" x="57.6" y="112.364353" style="stroke: #000000; stroke-width: 0.8"/>
      </g>
     </g>
     <g id="text_13">
      <!-- 5 -->
      <g transform="translate(44.2375 116.163571) scale(0.1 -0.1)">
       <use xlink:href="#DejaVuSans-35"/>
      </g>
     </g>
    </g>
    <g id="ytick_7">
     <g id="line2d_13">
      <g>
       <use xlink:href="#mfaf2226776" x="57.6" y="75.739064" style="stroke: #000000; stroke-width: 0.8"/>
      </g>
     </g>
     <g id="text_14">
      <!-- 6 -->
      <g transform="translate(44.2375 79.538283) scale(0.1 -0.1)">
       <defs>
        <path id="DejaVuSans-36" d="M 2113 2584 
Q 1688 2584 1439 2293 
Q 1191 2003 1191 1497 
Q 1191 994 1439 701 
Q 1688 409 2113 409 
Q 2538 409 2786 701 
Q 3034 994 3034 1497 
Q 3034 2003 2786 2293 
Q 2538 2584 2113 2584 
z
M 3366 4563 
L 3366 3988 
Q 3128 4100 2886 4159 
Q 2644 4219 2406 4219 
Q 1781 4219 1451 3797 
Q 1122 3375 1075 2522 
Q 1259 2794 1537 2939 
Q 1816 3084 2150 3084 
Q 2853 3084 3261 2657 
Q 3669 2231 3669 1497 
Q 3669 778 3244 343 
Q 2819 -91 2113 -91 
Q 1303 -91 875 529 
Q 447 1150 447 2328 
Q 447 3434 972 4092 
Q 1497 4750 2381 4750 
Q 2619 4750 2861 4703 
Q 3103 4656 3366 4563 
z
" transform="scale(0.015625)"/>
       </defs>
       <use xlink:href="#DejaVuSans-36"/>
      </g>
     </g>
    </g>
    <g id="text_15">
     <!-- Loss -->
     <g transform="translate(38.157812 185.495187) rotate(-90) scale(0.1 -0.1)">
      <defs>
       <path id="DejaVuSans-4c" d="M 628 4666 
L 1259 4666 
L 1259 531 
L 3531 531 
L 3531 0 
L 628 0 
L 628 4666 
z
" transform="scale(0.015625)"/>
       <path id="DejaVuSans-73" d="M 2834 3397 
L 2834 2853 
Q 2591 2978 2328 3040 
Q 2066 3103 1784 3103 
Q 1356 3103 1142 2972 
Q 928 2841 928 2578 
Q 928 2378 1081 2264 
Q 1234 2150 1697 2047 
L 1894 2003 
Q 2506 1872 2764 1633 
Q 3022 1394 3022 966 
Q 3022 478 2636 193 
Q 2250 -91 1575 -91 
Q 1294 -91 989 -36 
Q 684 19 347 128 
L 347 722 
Q 666 556 975 473 
Q 1284 391 1588 391 
Q 1994 391 2212 530 
Q 2431 669 2431 922 
Q 2431 1156 2273 1281 
Q 2116 1406 1581 1522 
L 1381 1569 
Q 847 1681 609 1914 
Q 372 2147 372 2553 
Q 372 3047 722 3315 
Q 1072 3584 1716 3584 
Q 2034 3584 2315 3537 
Q 2597 3491 2834 3397 
z
" transform="scale(0.015625)"/>
      </defs>
      <use xlink:href="#DejaVuSans-4c"/>
      <use xlink:href="#DejaVuSans-6f" x="53.962891"/>
      <use xlink:href="#DejaVuSans-73" x="115.144531"/>
      <use xlink:href="#DejaVuSans-73" x="167.244141"/>
     </g>
    </g>
    <g id="text_16">
     <!-- 1e6 -->
     <g transform="translate(57.6 38.472) scale(0.1 -0.1)">
      <defs>
       <path id="DejaVuSans-65" d="M 3597 1894 
L 3597 1613 
L 953 1613 
Q 991 1019 1311 708 
Q 1631 397 2203 397 
Q 2534 397 2845 478 
Q 3156 559 3463 722 
L 3463 178 
Q 3153 47 2828 -22 
Q 2503 -91 2169 -91 
Q 1331 -91 842 396 
Q 353 884 353 1716 
Q 353 2575 817 3079 
Q 1281 3584 2069 3584 
Q 2775 3584 3186 3129 
Q 3597 2675 3597 1894 
z
M 3022 2063 
Q 3016 2534 2758 2815 
Q 2500 3097 2075 3097 
Q 1594 3097 1305 2825 
Q 1016 2553 972 2059 
L 3022 2063 
z
" transform="scale(0.015625)"/>
      </defs>
      <use xlink:href="#DejaVuSans-31"/>
      <use xlink:href="#DejaVuSans-65" x="63.623047"/>
      <use xlink:href="#DejaVuSans-36" x="125.146484"/>
     </g>
    </g>
   </g>
   <g id="line2d_14">
    <path d="M 73.832727 53.568 
L 74.287335 53.74946 
L 74.482166 54.099177 
L 74.676998 55.014186 
L 74.87183 57.29455 
L 75.066661 62.738716 
L 75.261493 75.000863 
L 75.456325 100.747525 
L 75.7161 172.071412 
L 76.04082 278.155058 
L 76.235651 237.108224 
L 76.495427 279.453385 
L 76.560371 278.710888 
L 76.88509 264.9905 
L 77.014978 268.993209 
L 77.274754 279.849899 
L 77.339698 279.740738 
L 77.599473 275.180376 
L 77.924193 280.011602 
L 78.183968 278.334588 
L 78.248912 278.447023 
L 78.573632 280.136639 
L 78.833407 279.52097 
L 79.158127 280.219491 
L 79.223071 280.158259 
L 79.417902 279.988851 
L 79.937454 280.203798 
L 80.197229 280.294681 
L 80.521949 280.309928 
L 82.989817 280.680307 
L 84.028919 281.050196 
L 84.87319 281.544062 
L 85.587573 282.228393 
L 86.172068 283.038269 
L 86.691619 284.136299 
L 87.276114 285.959068 
L 88.250273 289.852144 
L 88.574992 291.09987 
L 89.094543 292.365943 
L 89.159487 292.271643 
L 89.224431 292.128288 
L 89.419263 292.95553 
L 89.484207 292.64811 
L 89.549151 292.820409 
L 89.679038 293.317837 
L 89.808926 293.072903 
L 89.938814 293.617882 
L 90.003758 293.538596 
L 90.133646 293.354524 
L 90.328477 293.897114 
L 90.523309 293.562831 
L 90.783085 294.183339 
L 90.848029 294.099301 
L 91.107804 293.512621 
L 91.302636 294.391055 
L 91.36758 294.326722 
L 91.497467 293.853278 
L 91.562411 293.92349 
L 91.757243 294.512583 
L 91.952075 294.082021 
L 92.017019 294.183931 
L 92.21185 294.626663 
L 92.341738 294.438829 
L 92.53657 294.22224 
L 92.861289 294.739318 
L 92.991177 294.554823 
L 93.250953 293.781237 
L 93.445784 294.812538 
L 93.510728 294.751936 
L 93.640616 294.305522 
L 93.70556 294.344265 
L 93.900392 294.836105 
L 94.095223 294.548762 
L 94.290055 294.897171 
L 94.354999 294.861673 
L 94.549831 294.702692 
L 94.939494 294.910988 
L 95.264214 294.603008 
L 95.459045 294.417054 
L 95.848709 294.95127 
L 96.173428 294.684701 
L 96.498148 295.014946 
L 96.757923 294.882632 
L 97.147587 294.655351 
L 97.53725 295.034031 
L 97.797026 294.800523 
L 97.991857 294.597943 
L 98.121745 294.721989 
L 98.316577 295.065201 
L 98.511408 294.922239 
L 98.70624 294.852974 
L 99.03096 295.093901 
L 99.355679 294.95059 
L 99.615455 294.885195 
L 99.810286 294.966804 
L 100.19995 295.179625 
L 100.459725 295.15299 
L 100.589613 294.990652 
L 100.849389 293.848675 
L 100.914333 293.969229 
L 101.04422 295.262493 
L 101.174108 294.600368 
L 101.239052 294.62862 
L 101.36894 295.30192 
L 101.498828 294.913253 
L 101.628716 295.33458 
L 101.693659 295.289072 
L 101.758603 295.115128 
L 101.823547 295.143232 
L 101.953435 295.389499 
L 102.083323 295.220114 
L 102.148267 295.293156 
L 102.278155 295.408449 
L 102.472986 295.345243 
L 102.667818 295.415228 
L 102.86265 295.385678 
L 103.122425 295.415973 
L 103.447145 295.445866 
L 104.810967 295.367354 
L 105.005798 295.117279 
L 105.265574 294.612735 
L 105.525349 295.416832 
L 105.720181 295.028826 
L 105.979957 295.443727 
L 106.174788 295.238972 
L 106.499508 295.415346 
L 106.69434 295.382088 
L 106.954115 295.44312 
L 107.278835 295.447302 
L 107.733442 295.433918 
L 108.902432 295.391573 
L 109.097264 295.158578 
L 109.292096 294.582165 
L 109.486927 295.231816 
L 109.616815 295.419379 
L 109.746703 295.088961 
L 109.811647 295.125738 
L 110.006478 295.466898 
L 110.071422 295.42148 
L 110.266254 295.260849 
L 110.590973 295.428416 
L 110.785805 295.383302 
L 111.045581 295.456352 
L 111.3703 295.450252 
L 111.824908 295.443756 
L 112.993898 295.416943 
L 113.708281 295.244046 
L 114.097944 295.467775 
L 114.682439 295.369863 
L 115.072102 295.460775 
L 115.916373 295.348709 
L 116.435924 295.46958 
L 116.825588 295.345558 
L 117.085363 295.024751 
L 117.280195 294.720122 
L 117.539971 295.465341 
L 117.734802 295.137308 
L 117.799746 295.22815 
L 117.994578 295.463071 
L 118.18941 295.317445 
L 118.449185 295.455746 
L 118.644017 295.403202 
L 118.903792 295.457996 
L 119.228512 295.468587 
L 120.592334 295.473429 
L 121.826268 295.402387 
L 122.021099 295.186604 
L 122.215931 294.560402 
L 122.280875 294.047311 
L 122.345819 294.378891 
L 122.540651 295.44577 
L 122.605595 295.206625 
L 122.735482 294.851 
L 122.930314 295.454214 
L 123.060202 295.112035 
L 123.125146 295.170635 
L 123.319977 295.461009 
L 123.514809 295.281619 
L 123.709641 295.467685 
L 123.904473 295.391643 
L 124.164248 295.437193 
L 124.424024 295.472152 
L 128.905153 295.43113 
L 129.099984 295.259118 
L 129.229872 294.835221 
L 129.35976 293.762439 
L 129.489648 293.946102 
L 129.619536 295.404884 
L 129.749423 294.597607 
L 129.879311 295.426119 
L 129.944255 295.225417 
L 130.009199 294.858656 
L 130.139087 295.438082 
L 130.204031 295.365579 
L 130.333918 295.163798 
L 130.463806 295.426115 
L 130.593694 295.254146 
L 130.723582 295.460172 
L 130.85347 295.311384 
L 130.918414 295.380159 
L 131.048301 295.435616 
L 131.178189 295.388571 
L 131.308077 295.456767 
L 131.502909 295.442521 
L 131.892572 295.46308 
L 132.347179 295.454448 
L 133.19145 295.46975 
L 136.828308 295.477064 
L 138.386962 295.400814 
L 138.581793 295.209711 
L 138.906513 294.491809 
L 139.166289 295.433465 
L 139.36112 295.025669 
L 139.555952 295.473744 
L 139.815728 295.355027 
L 139.945615 295.468293 
L 140.140447 295.359071 
L 140.400223 295.444932 
L 140.595054 295.447867 
L 140.85483 295.442593 
L 142.543371 295.478266 
L 145.595734 295.367641 
L 145.725622 295.056294 
L 145.85551 293.933875 
L 145.920454 292.173598 
L 145.985398 292.91875 
L 146.050342 293.372708 
L 146.115286 295.245267 
L 146.18023 294.387276 
L 146.245173 293.020738 
L 146.310117 295.267323 
L 146.440005 292.629513 
L 146.504949 295.153068 
L 146.569893 291.971021 
L 146.634837 293.437228 
L 146.699781 294.088537 
L 146.764725 292.773928 
L 146.829668 295.192618 
L 146.894612 293.521245 
L 146.959556 294.966821 
L 147.0245 294.184392 
L 147.154388 294.78346 
L 147.219332 294.342665 
L 147.284276 295.200306 
L 147.34922 294.44768 
L 147.414164 295.2281 
L 147.479107 294.635579 
L 147.544051 295.082484 
L 147.608995 294.953843 
L 147.673939 294.957143 
L 147.738883 295.211362 
L 147.803827 294.916609 
L 147.868771 295.294918 
L 147.933715 294.976737 
L 147.998659 295.250181 
L 148.063603 295.145737 
L 148.648098 295.380922 
L 148.713042 295.28305 
L 148.777985 295.356516 
L 150.141807 295.445194 
L 151.115966 295.460872 
L 153.843609 295.475549 
L 159.233953 295.413014 
L 159.68856 295.106327 
L 159.948336 295.462552 
L 160.143168 295.31411 
L 160.402943 295.469068 
L 160.662719 295.444783 
L 160.922494 295.447024 
L 161.961597 295.472719 
L 164.104745 295.483489 
L 164.949016 295.415463 
L 165.143848 295.12801 
L 165.273735 294.425922 
L 165.403623 293.00242 
L 165.468567 293.707198 
L 165.598455 295.391748 
L 165.663399 295.120838 
L 165.728343 294.337192 
L 165.793287 294.630934 
L 165.923174 295.454738 
L 166.053062 294.754446 
L 166.18295 295.46234 
L 166.247894 295.330575 
L 166.312838 295.133541 
L 166.377782 295.216418 
L 166.442726 295.454649 
L 166.50767 295.373904 
L 166.572613 295.197414 
L 166.637557 295.333298 
L 166.702501 295.468817 
L 166.767445 295.397454 
L 166.832389 295.320275 
L 166.897333 295.376106 
L 167.027221 295.424474 
L 167.157109 295.408976 
L 167.286996 295.44316 
L 167.416884 295.431155 
L 167.611716 295.422825 
L 168.001379 295.473169 
L 168.780706 295.473531 
L 175.145208 295.48364 
L 176.18431 295.403688 
L 176.314198 295.200594 
L 176.638918 293.552607 
L 176.833749 295.334916 
L 176.963637 294.520991 
L 177.093525 295.457068 
L 177.223413 295.005332 
L 177.288357 295.065821 
L 177.3533 295.408139 
L 177.418244 295.395102 
L 177.483188 295.154955 
L 177.548132 295.226361 
L 177.67802 295.436975 
L 177.807908 295.270767 
L 177.937796 295.455088 
L 178.067683 295.340275 
L 178.262515 295.429709 
L 178.392403 295.4091 
L 178.587235 295.42777 
L 178.976898 295.446546 
L 179.366561 295.473673 
L 181.50971 295.478453 
L 185.990839 295.35926 
L 186.120727 295.088948 
L 186.315558 293.528452 
L 186.445446 293.7244 
L 186.575334 295.395368 
L 186.705222 294.541626 
L 186.83511 295.401414 
L 186.900053 295.341949 
L 186.964997 294.89845 
L 187.029941 294.935905 
L 187.159829 295.463894 
L 187.224773 295.339393 
L 187.289717 295.147092 
L 187.354661 295.277614 
L 187.419605 295.451931 
L 187.484549 295.419794 
L 187.614436 295.321359 
L 187.744324 295.439534 
L 187.874212 295.378152 
L 188.0041 295.462327 
L 188.133988 295.386831 
L 188.328819 295.443539 
L 188.653539 295.441434 
L 191.251295 295.478264 
L 195.862311 295.415817 
L 196.057143 295.106719 
L 196.251975 294.161387 
L 196.316919 293.59333 
L 196.51175 295.446028 
L 196.641638 294.690268 
L 196.706582 294.836765 
L 196.83647 295.469923 
L 196.901414 295.305193 
L 196.966358 295.001589 
L 197.031302 295.080197 
L 197.161189 295.471259 
L 197.226133 295.360568 
L 197.291077 295.193588 
L 197.356021 295.283532 
L 197.485909 295.45443 
L 197.615797 295.313693 
L 197.745684 295.470219 
L 197.940516 295.419159 
L 198.070404 295.450126 
L 198.200292 295.421501 
L 198.395123 295.444927 
L 198.784787 295.454336 
L 199.239394 295.472867 
L 200.213553 295.476414 
L 206.123447 295.324907 
L 206.253335 294.72039 
L 206.383223 292.708685 
L 206.513111 293.184923 
L 206.578055 295.115723 
L 206.642998 294.987129 
L 206.707942 293.881669 
L 206.83783 295.294667 
L 206.902774 294.51911 
L 206.967718 294.942732 
L 207.032662 295.425203 
L 207.16255 294.992744 
L 207.292437 295.362163 
L 207.357381 295.119146 
L 207.422325 295.220327 
L 207.487269 295.434452 
L 207.552213 295.272306 
L 207.617157 295.195546 
L 207.682101 295.405384 
L 207.747045 295.383833 
L 207.811989 295.246444 
L 207.876932 295.366279 
L 207.941876 295.439883 
L 208.071764 295.349717 
L 208.201652 295.4257 
L 208.33154 295.402793 
L 208.461428 295.420106 
L 208.721203 295.423386 
L 209.630418 295.461582 
L 211.254015 295.474028 
L 216.319639 295.436809 
L 216.514471 295.258362 
L 216.644359 294.884802 
L 216.904134 293.915453 
L 217.098966 295.398705 
L 217.228854 294.712826 
L 217.358742 295.432061 
L 217.423685 295.397721 
L 217.553573 294.989932 
L 217.683461 295.457106 
L 217.748405 295.405187 
L 217.878293 295.225865 
L 218.008181 295.466894 
L 218.138068 295.327306 
L 218.3329 295.43361 
L 218.462788 295.400159 
L 218.592676 295.462794 
L 218.787507 295.446769 
L 219.112227 295.466056 
L 220.735824 295.476219 
L 224.957178 295.450093 
L 225.152009 295.322451 
L 225.346841 294.723245 
L 225.476729 293.877496 
L 225.541673 294.110798 
L 225.606617 294.173709 
L 225.736504 295.448501 
L 225.801448 295.254429 
L 225.931336 294.770411 
L 226.061224 295.471199 
L 226.126168 295.332992 
L 226.256056 295.050988 
L 226.385943 295.473562 
L 226.580775 295.268465 
L 226.710663 295.465806 
L 226.840551 295.342141 
L 227.035382 295.435123 
L 227.16527 295.414618 
L 227.295158 295.46523 
L 227.48999 295.452739 
L 227.879653 295.474093 
L 228.399204 295.471865 
L 229.957858 295.47867 
L 234.633818 295.369145 
L 234.763706 295.072661 
L 234.958538 293.811546 
L 235.023482 292.769544 
L 235.218313 295.367442 
L 235.283257 295.09467 
L 235.348201 294.342537 
L 235.413145 294.81979 
L 235.478089 295.403146 
L 235.543033 295.293995 
L 235.672921 294.91355 
L 235.802809 295.397695 
L 235.867752 295.067226 
L 235.932696 295.117722 
L 236.062584 295.45763 
L 236.192472 295.173941 
L 236.32236 295.462009 
L 236.452248 295.321765 
L 236.582135 295.458283 
L 236.712023 295.363403 
L 236.841911 295.453351 
L 236.971799 295.415927 
L 237.101687 295.455706 
L 237.296518 295.467702 
L 238.205733 295.465274 
L 244.83001 295.462063 
L 245.024842 295.361402 
L 245.15473 295.115717 
L 245.349562 294.269571 
L 245.414505 294.438342 
L 245.479449 294.563963 
L 245.674281 295.424779 
L 245.804169 294.987194 
L 245.869113 295.105384 
L 245.999001 295.472422 
L 246.063944 295.420471 
L 246.193832 295.238202 
L 246.388664 295.475601 
L 246.453608 295.408081 
L 246.583496 295.359984 
L 246.778327 295.449732 
L 246.973159 295.455031 
L 247.362822 295.479675 
L 248.142149 295.474176 
L 250.804849 295.484105 
L 253.012941 295.379723 
L 253.142829 295.143152 
L 253.272717 294.468013 
L 253.467549 292.972871 
L 253.597437 295.439633 
L 253.727324 294.458819 
L 253.857212 295.444886 
L 253.922156 295.028871 
L 253.9871 294.64712 
L 254.116988 295.410124 
L 254.181932 295.014073 
L 254.246876 295.099919 
L 254.376763 295.400772 
L 254.441707 295.187854 
L 254.506651 295.215143 
L 254.571595 295.447542 
L 254.636539 295.369171 
L 254.701483 295.201211 
L 254.831371 295.462623 
L 254.961258 295.337117 
L 255.091146 295.454687 
L 255.221034 295.377062 
L 255.350922 295.444111 
L 255.48081 295.422903 
L 255.675641 295.420892 
L 256.130249 295.457283 
L 256.974519 295.468024 
L 261.260817 295.48292 
L 264.832731 295.417027 
L 264.962619 295.224609 
L 265.222394 293.735696 
L 265.287338 293.039595 
L 265.48217 295.41237 
L 265.612058 294.399253 
L 265.741945 295.413854 
L 265.806889 295.362316 
L 265.936777 294.879275 
L 266.066665 295.469478 
L 266.196553 295.148153 
L 266.261497 295.198064 
L 266.391384 295.441227 
L 266.521272 295.290739 
L 266.65116 295.470969 
L 266.781048 295.333868 
L 266.910936 295.472144 
L 266.97588 295.419204 
L 267.105767 295.442365 
L 267.365543 295.450082 
L 267.690262 295.475952 
L 268.534533 295.478443 
L 270.352962 295.481568 
L 275.48353 295.405163 
L 275.678362 295.089233 
L 275.938137 294.17211 
L 276.132969 295.466611 
L 276.327801 295.038552 
L 276.457689 295.466363 
L 276.522633 295.404049 
L 276.65252 295.243578 
L 276.782408 295.476594 
L 276.847352 295.41507 
L 276.912296 295.311867 
L 276.97724 295.355796 
L 277.107128 295.474359 
L 277.301959 295.430118 
L 277.431847 295.457614 
L 277.626679 295.468052 
L 278.665781 295.472848 
L 280.743986 295.482859 
L 284.186012 295.373974 
L 284.380844 294.970998 
L 284.64062 294.116234 
L 284.835451 295.432237 
L 284.965339 294.841448 
L 285.030283 295.037413 
L 285.160171 295.474777 
L 285.290059 295.130133 
L 285.355003 295.227601 
L 285.48489 295.475994 
L 285.614778 295.272385 
L 285.679722 295.342964 
L 285.80961 295.470416 
L 285.939498 295.358459 
L 286.004442 295.425228 
L 286.134329 295.450718 
L 286.264217 295.423036 
L 286.459049 295.443026 
L 287.498151 295.476494 
L 289.901075 295.483356 
L 293.018383 295.377834 
L 293.14827 295.12306 
L 293.278158 294.394986 
L 293.47299 292.952277 
L 293.602878 295.374151 
L 293.667822 295.213773 
L 293.797709 294.464689 
L 293.927597 295.371841 
L 293.992541 294.832518 
L 294.057485 294.874603 
L 294.187373 295.465301 
L 294.317261 294.943843 
L 294.447148 295.463079 
L 294.577036 295.251255 
L 294.706924 295.452825 
L 294.836812 295.319381 
L 294.901756 295.460085 
L 294.9667 295.409149 
L 295.031643 295.319736 
L 295.161531 295.46097 
L 295.291419 295.410693 
L 295.421307 295.444718 
L 295.681082 295.442963 
L 296.200634 295.456255 
L 297.564455 295.476622 
L 301.850753 295.485441 
L 304.838172 295.426179 
L 304.96806 295.281721 
L 305.097948 294.828597 
L 305.292779 293.488228 
L 305.487611 295.387753 
L 305.552555 295.368033 
L 305.682443 294.845293 
L 305.81233 295.440605 
L 305.877274 295.395364 
L 306.007162 295.144199 
L 306.13705 295.477805 
L 306.201994 295.378821 
L 306.266938 295.235802 
L 306.331882 295.32502 
L 306.461769 295.459403 
L 306.591657 295.342591 
L 306.721545 295.475835 
L 306.916377 295.445671 
L 307.176152 295.455288 
L 307.500872 295.479047 
L 308.215255 295.472001 
L 309.449189 295.482304 
L 315.164252 295.433478 
L 315.359083 295.178632 
L 315.553915 294.295932 
L 315.618859 293.545676 
L 315.683803 294.00957 
L 315.748747 294.303447 
L 315.878635 295.397439 
L 316.008522 294.786611 
L 316.13841 295.465854 
L 316.268298 294.949267 
L 316.398186 295.469228 
L 316.46313 295.354374 
L 316.528074 295.207255 
L 316.593018 295.253784 
L 316.657961 295.455808 
L 316.722905 295.417172 
L 316.787849 295.262183 
L 316.852793 295.342321 
L 316.982681 295.447972 
L 317.112569 295.367785 
L 317.242456 295.451487 
L 317.372344 295.418494 
L 317.502232 295.457604 
L 317.697064 295.471745 
L 318.671222 295.467244 
L 320.164932 295.480024 
L 325.815051 295.438616 
L 326.009883 295.244139 
L 326.13977 294.794764 
L 326.334602 293.679434 
L 326.529434 295.406244 
L 326.594378 295.381567 
L 326.724266 294.904592 
L 326.919097 295.430582 
L 327.048985 295.150426 
L 327.178873 295.465062 
L 327.243817 295.425551 
L 327.373705 295.301909 
L 327.503592 295.478483 
L 327.63348 295.118382 
L 327.698424 295.162726 
L 327.828312 295.470886 
L 327.9582 295.22331 
L 328.088087 295.47207 
L 328.153031 295.396211 
L 328.282919 295.392463 
L 328.412807 295.429989 
L 328.542695 295.419432 
L 328.672583 295.457402 
L 328.80247 295.422745 
L 328.997302 295.436422 
L 330.29618 295.479869 
L 336.985401 295.271319 
L 337.115289 294.79095 
L 337.310121 293.538028 
L 337.504953 295.428184 
L 337.569897 295.311488 
L 337.63484 294.850839 
L 337.699784 294.897726 
L 337.829672 295.471409 
L 337.894616 295.331439 
L 337.95956 295.087149 
L 338.024504 295.188454 
L 338.154392 295.470365 
L 338.284279 295.225745 
L 338.414167 295.474043 
L 338.479111 295.433833 
L 338.608999 295.363942 
L 338.738887 295.465373 
L 338.868774 295.40897 
L 339.063606 295.436224 
L 339.648101 295.446324 
L 340.167652 295.469196 
L 347.766088 295.479255 
L 348.025864 295.368355 
L 348.155752 295.023243 
L 348.350584 293.131796 
L 348.415527 293.771403 
L 348.610359 295.366119 
L 348.740247 294.709135 
L 348.870135 295.462345 
L 348.935079 295.241503 
L 349.000023 294.931839 
L 349.12991 295.45502 
L 349.194854 295.38677 
L 349.324742 295.192123 
L 349.45463 295.442664 
L 349.519574 295.281388 
L 349.584518 295.319817 
L 349.714405 295.463706 
L 349.844293 295.343683 
L 349.974181 295.459497 
L 350.104069 295.408192 
L 350.233957 295.46525 
L 350.428788 295.471311 
L 351.402947 295.469448 
L 352.377105 295.481236 
L 359.261158 295.283083 
L 359.391046 294.924437 
L 359.585878 294.060297 
L 359.845653 295.460421 
L 360.040485 295.062869 
L 360.170373 295.47627 
L 360.235317 295.408322 
L 360.365205 295.227991 
L 360.495092 295.478459 
L 360.560036 295.441163 
L 360.689924 295.340894 
L 360.884756 295.446938 
L 361.014644 295.413724 
L 361.209475 295.440735 
L 361.534195 295.444826 
L 366.015324 295.486655 
L 368.483192 295.407779 
L 368.61308 295.243504 
L 368.807911 294.506629 
L 368.872855 293.870154 
L 368.937799 294.121433 
L 369.002743 294.161251 
L 369.132631 295.461226 
L 369.327463 294.921114 
L 369.45735 295.450389 
L 369.587238 295.139745 
L 369.717126 295.474323 
L 369.78207 295.380081 
L 369.847014 295.216975 
L 369.911958 295.320126 
L 370.041845 295.456116 
L 370.171733 295.331006 
L 370.301621 295.473335 
L 370.431509 295.396867 
L 370.626341 295.445647 
L 370.756228 295.450689 
L 371.080948 295.476516 
L 372.704545 295.479429 
L 379.198935 295.454109 
L 379.393767 295.251856 
L 379.523655 294.638044 
L 379.653542 293.504309 
L 379.78343 293.852472 
L 379.913318 295.453923 
L 380.043206 294.675994 
L 380.10815 294.690982 
L 380.238037 295.403481 
L 380.367925 294.982973 
L 380.497813 295.475775 
L 380.627701 295.058174 
L 380.757589 295.467523 
L 380.822533 295.369233 
L 380.887476 295.275567 
L 380.95242 295.329237 
L 381.017364 295.472032 
L 381.082308 295.404803 
L 381.147252 295.304388 
L 381.212196 295.396421 
L 381.342084 295.422992 
L 381.471971 295.425336 
L 381.601859 295.429906 
L 381.731747 295.445866 
L 382.056467 295.47563 
L 382.44613 295.457145 
L 383.225457 295.476327 
L 387.77153 295.486539 
L 391.148612 295.39716 
L 391.2785 295.164775 
L 391.60322 293.752071 
L 391.733107 295.40961 
L 391.798051 295.351717 
L 391.927939 294.675636 
L 392.057827 295.471736 
L 392.187715 295.061209 
L 392.252659 295.136462 
L 392.382546 295.430376 
L 392.44749 295.223929 
L 392.512434 295.25518 
L 392.642322 295.47359 
L 392.77221 295.296142 
L 392.902098 295.477664 
L 393.096929 295.426605 
L 393.226817 295.442627 
L 393.356705 295.442408 
L 393.551536 295.435714 
L 394.265919 295.478987 
L 395.045246 295.481478 
L 398.487273 295.48639 
L 398.487273 295.48639 
" clip-path="url(#p60e5df8e7b)" style="fill: none; stroke: #1f77b4; stroke-width: 1.5; stroke-linecap: square"/>
   </g>
   <g id="patch_3">
    <path d="M 57.6 307.584 
L 57.6 41.472 
" style="fill: none; stroke: #000000; stroke-width: 0.8; stroke-linejoin: miter; stroke-linecap: square"/>
   </g>
   <g id="patch_4">
    <path d="M 414.72 307.584 
L 414.72 41.472 
" style="fill: none; stroke: #000000; stroke-width: 0.8; stroke-linejoin: miter; stroke-linecap: square"/>
   </g>
   <g id="patch_5">
    <path d="M 57.6 307.584 
L 414.72 307.584 
" style="fill: none; stroke: #000000; stroke-width: 0.8; stroke-linejoin: miter; stroke-linecap: square"/>
   </g>
   <g id="patch_6">
    <path d="M 57.6 41.472 
L 414.72 41.472 
" style="fill: none; stroke: #000000; stroke-width: 0.8; stroke-linejoin: miter; stroke-linecap: square"/>
   </g>
   <g id="text_17">
    <!-- Training Loss -->
    <g transform="translate(197.421562 35.472) scale(0.12 -0.12)">
     <defs>
      <path id="DejaVuSans-54" d="M -19 4666 
L 3928 4666 
L 3928 4134 
L 2272 4134 
L 2272 0 
L 1638 0 
L 1638 4134 
L -19 4134 
L -19 4666 
z
" transform="scale(0.015625)"/>
      <path id="DejaVuSans-72" d="M 2631 2963 
Q 2534 3019 2420 3045 
Q 2306 3072 2169 3072 
Q 1681 3072 1420 2755 
Q 1159 2438 1159 1844 
L 1159 0 
L 581 0 
L 581 3500 
L 1159 3500 
L 1159 2956 
Q 1341 3275 1631 3429 
Q 1922 3584 2338 3584 
Q 2397 3584 2469 3576 
Q 2541 3569 2628 3553 
L 2631 2963 
z
" transform="scale(0.015625)"/>
      <path id="DejaVuSans-61" d="M 2194 1759 
Q 1497 1759 1228 1600 
Q 959 1441 959 1056 
Q 959 750 1161 570 
Q 1363 391 1709 391 
Q 2188 391 2477 730 
Q 2766 1069 2766 1631 
L 2766 1759 
L 2194 1759 
z
M 3341 1997 
L 3341 0 
L 2766 0 
L 2766 531 
Q 2569 213 2275 61 
Q 1981 -91 1556 -91 
Q 1019 -91 701 211 
Q 384 513 384 1019 
Q 384 1609 779 1909 
Q 1175 2209 1959 2209 
L 2766 2209 
L 2766 2266 
Q 2766 2663 2505 2880 
Q 2244 3097 1772 3097 
Q 1472 3097 1187 3025 
Q 903 2953 641 2809 
L 641 3341 
Q 956 3463 1253 3523 
Q 1550 3584 1831 3584 
Q 2591 3584 2966 3190 
Q 3341 2797 3341 1997 
z
" transform="scale(0.015625)"/>
      <path id="DejaVuSans-69" d="M 603 3500 
L 1178 3500 
L 1178 0 
L 603 0 
L 603 3500 
z
M 603 4863 
L 1178 4863 
L 1178 4134 
L 603 4134 
L 603 4863 
z
" transform="scale(0.015625)"/>
      <path id="DejaVuSans-6e" d="M 3513 2113 
L 3513 0 
L 2938 0 
L 2938 2094 
Q 2938 2591 2744 2837 
Q 2550 3084 2163 3084 
Q 1697 3084 1428 2787 
Q 1159 2491 1159 1978 
L 1159 0 
L 581 0 
L 581 3500 
L 1159 3500 
L 1159 2956 
Q 1366 3272 1645 3428 
Q 1925 3584 2291 3584 
Q 2894 3584 3203 3211 
Q 3513 2838 3513 2113 
z
" transform="scale(0.015625)"/>
      <path id="DejaVuSans-67" d="M 2906 1791 
Q 2906 2416 2648 2759 
Q 2391 3103 1925 3103 
Q 1463 3103 1205 2759 
Q 947 2416 947 1791 
Q 947 1169 1205 825 
Q 1463 481 1925 481 
Q 2391 481 2648 825 
Q 2906 1169 2906 1791 
z
M 3481 434 
Q 3481 -459 3084 -895 
Q 2688 -1331 1869 -1331 
Q 1566 -1331 1297 -1286 
Q 1028 -1241 775 -1147 
L 775 -588 
Q 1028 -725 1275 -790 
Q 1522 -856 1778 -856 
Q 2344 -856 2625 -561 
Q 2906 -266 2906 331 
L 2906 616 
Q 2728 306 2450 153 
Q 2172 0 1784 0 
Q 1141 0 747 490 
Q 353 981 353 1791 
Q 353 2603 747 3093 
Q 1141 3584 1784 3584 
Q 2172 3584 2450 3431 
Q 2728 3278 2906 2969 
L 2906 3500 
L 3481 3500 
L 3481 434 
z
" transform="scale(0.015625)"/>
      <path id="DejaVuSans-20" transform="scale(0.015625)"/>
     </defs>
     <use xlink:href="#DejaVuSans-54"/>
     <use xlink:href="#DejaVuSans-72" x="46.333984"/>
     <use xlink:href="#DejaVuSans-61" x="87.447266"/>
     <use xlink:href="#DejaVuSans-69" x="148.726562"/>
     <use xlink:href="#DejaVuSans-6e" x="176.509766"/>
     <use xlink:href="#DejaVuSans-69" x="239.888672"/>
     <use xlink:href="#DejaVuSans-6e" x="267.671875"/>
     <use xlink:href="#DejaVuSans-67" x="331.050781"/>
     <use xlink:href="#DejaVuSans-20" x="394.527344"/>
     <use xlink:href="#DejaVuSans-4c" x="426.314453"/>
     <use xlink:href="#DejaVuSans-6f" x="480.277344"/>
     <use xlink:href="#DejaVuSans-73" x="541.458984"/>
     <use xlink:href="#DejaVuSans-73" x="593.558594"/>
    </g>
   </g>
  </g>
 </g>
 <defs>
  <clipPath id="p60e5df8e7b">
   <rect x="57.6" y="41.472" width="357.12" height="266.112"/>
  </clipPath>
 </defs>
</svg>
